<?xml version="1.0" standalone="no"?>
<!DOCTYPE svg PUBLIC "-//W3C//DTD SVG 1.1//EN" "http://www.w3.org/Graphics/SVG/1.1/DTD/svg11.dtd" >
<svg xmlns="http://www.w3.org/2000/svg" xmlns:xlink="http://www.w3.org/1999/xlink" version="1.1">
<metadata>
Created by FontForge 20161013 at Mon Jun 13 23:17:02 2016
 By ,,,
June 13, 2016 |  Jeremy Vessey
</metadata>
<defs>
<font id="TheGreatOutdoors-Regular" horiz-adv-x="0" >
  <font-face 
    font-family="The Great Outdoors"
    font-weight="400"
    font-stretch="normal"
    units-per-em="1000"
    panose-1="0 0 5 0 0 0 0 0 0 0"
    ascent="800"
    descent="-200"
    x-height="489"
    cap-height="727"
    bbox="-584.069 -307.184 1259.04 1026.1"
    underline-thickness="50"
    underline-position="-200"
    unicode-range="U+0020-2212"
  />
<missing-glyph horiz-adv-x="500" 
d="M410 800v-1000h-317v1000h317zM333 733h-165v-33h65v-37h-66v-33h166v33h-66v37h66v33zM267 604h-100v-104h166v34h-66v70zM233 570v-36h-33v36h33zM333 473h-166v-33h66v-37h-66v-33h100v70h66v33zM333 413h-33v-66h-133v-34h166v100zM333 291h-100v-56h34v23h33v-47
h-100v80h-33v-113h166v113zM333 118h-166v-113h166v113zM300 85v-47h-100v47h100zM333 -18h-166v-33h70l-70 -47v-33h166v33h-102l70 47h32v33z" />
    <glyph glyph-name=".notdef" horiz-adv-x="500" 
d="M410 800v-1000h-317v1000h317zM333 733h-165v-33h65v-37h-66v-33h166v33h-66v37h66v33zM267 604h-100v-104h166v34h-66v70zM233 570v-36h-33v36h33zM333 473h-166v-33h66v-37h-66v-33h100v70h66v33zM333 413h-33v-66h-133v-34h166v100zM333 291h-100v-56h34v23h33v-47
h-100v80h-33v-113h166v113zM333 118h-166v-113h166v113zM300 85v-47h-100v47h100zM333 -18h-166v-33h70l-70 -47v-33h166v33h-102l70 47h32v33z" />
    <glyph glyph-name=".null" 
 />
    <glyph glyph-name="nonmarkingreturn" horiz-adv-x="333" 
 />
    <glyph glyph-name="space" unicode=" " horiz-adv-x="300" 
 />
    <glyph glyph-name="exclam" unicode="!" horiz-adv-x="213" 
d="M107 391v161q0 25 -1 38q-2 16 -5 24q-4 12 -14.5 20t-22.5 8q-32 2 -42 -28q-4 -14 -4 -20q-1 -10 -1 -29v-348q0 -19 1 -29q2 -16 5 -24q10 -26 39 -26q28 0 38 26q4 12 6 24q1 11 1 33v170zM0 26q0 -26 18.5 -44t44.5 -17q25 0 42.5 17.5t17.5 42.5q0 26 -18.5 44.5
t-44.5 17.5q-25 -1 -42.5 -18.5t-17.5 -42.5z" />
    <glyph glyph-name="quotedbl" unicode="&#x22;" horiz-adv-x="322" 
d="M91 747v54q0 16 -6 28q-9 25 -38 27q-27 2 -40 -24q-5 -11 -7 -24v-116q0 -11 7 -23q10 -25 39 -25q26 0 37 22q7 15 8 28v17v19.5v16.5zM232 747v54q0 16 -6 28q-9 25 -38 27q-27 2 -40 -24q-5 -11 -7 -24v-116q0 -11 7 -23q10 -25 39 -25q26 0 37 22q7 15 8 28v17v19.5
v16.5z" />
    <glyph glyph-name="numbersign" unicode="#" horiz-adv-x="544" 
d="M454 297q0 15 -9 27t-23 16q-6 2 -17.5 3t-15.5 2q-27 4 -30 33v34q-1 6 -1 20v21q-2 19 -6 28q-9 26 -37 28q-31 2 -43 -27q-4 -13 -6 -28v-58q-3 -28 -3 -29q-3 -16 -19 -20q-8 -2 -12 -2q-41 -3 -42 37q-1 10 -1 29v38q-2 20 -5 28q-4 15 -16 24t-27 8
q-14 0 -25.5 -9.5t-15.5 -24.5q-3 -12 -3 -25q-1 -8 -1 -24.5v-25.5q0 -19 -2 -29q-2 -22 -23 -25q-1 0 -10.5 -1t-14.5 -2q-16 -4 -23 -8q-25 -14 -22 -41q2 -24 25 -35q8 -4 19 -6q4 -1 8 -1.5t9 -1t8 -0.5q23 -5 25 -29v-20q-3 -22 -25 -25q-1 0 -20 -3q-14 -2 -20 -4
q-26 -11 -29 -37q-3 -31 25 -44q10 -5 32 -7q20 -1 28.5 -10.5t9.5 -28.5q0 -41 1 -62q0 -18 4 -33q5 -17 20 -25.5t32 -3.5q21 5 30 26q6 14 6 37q0 41 1 62q1 40 42 37h4q26 -2 28 -26q0 -5 1 -16t1 -17v-50q2 -15 6 -28q12 -29 43 -27q28 3 37 28q4 9 6 29v27t1 27
q0 19 2 28q1 17 20 24l17 2q4 1 10.5 2t9.5 1q17 5 27 17t9 28q0 15 -10 26.5t-25 14.5q-8 2 -24 4l-16 3q-12 4 -17 18q-6 18 0 36q5 12 17 17q3 1 10 2t10 2q18 2 25 4q30 10 30 41zM189 212q3 16 3 17q3 14 19 19q18 5 33 1q14 -4 19 -20q2 -8 2 -12q0 -29 -14 -37
q-21 -11 -47 0q-9 4 -12 16q-1 3 -2 9t-1 7z" />
    <glyph glyph-name="dollar" unicode="$" horiz-adv-x="494" 
d="M0 230q0 -65 40 -112q30 -36 68 -53q24 -9 30 -13q13 -6 17 -19q1 -3 2.5 -8.5t3 -10t3.5 -8.5q10 -26 39 -26q29 2 38 27q5 14 5 16q4 28 33 39q2 1 19 9q34 17 64 51q48 55 41.5 129t-68.5 120q-17 13 -38 24q-8 4 -24.5 11.5t-24.5 11.5q-37 15 -46 19q-13 6 -24 16
q-11 9 -11 23t11 24q17 16 40 13.5t36 -20.5q2 -2 8 -12.5t10 -15.5q17 -24 44 -15q25 7 30 35q3 13 -2 29q-13 42 -51 68q-5 3 -15.5 9t-13.5 8q-11 8 -15 19q-8 24 -10 27q-11 27 -39 25q-13 0 -23.5 -7.5t-14.5 -19.5q-4 -11 -5 -20q-3 -26 -25 -41l-19 -16
q-18 -17 -29 -40q-17 -37 -8 -77t41 -65q10 -9 38 -24q7 -4 23 -10t23 -10q25 -11 56 -26q21 -10 34 -24q35 -36 17 -84q-9 -24 -28 -40q-29 -26 -71 -29.5t-76 17.5q-52 33 -40 92q1 5 3 14t3 11q2 10 2 16q2 28 -23 40q-30 14 -50 -10q-9 -11 -13 -21q-15 -32 -15 -66z
" />
    <glyph glyph-name="percent" unicode="%" horiz-adv-x="710" 
d="M96 -96q12 0 24 15q14 15 24 33l371 585q2 4 8 13.5t8 14.5q7 13 8 24q3 25 -18 40q-24 17 -46 0q-9 -7 -18 -17q-10 -12 -19 -28q-56 -88 -84 -133l-277 -438q-14 -21 -23 -39q-4 -7 -8 -23q-2 -19 11.5 -33t38.5 -14zM134 322q54 1 92 40t37 94t-39.5 92.5t-93.5 36.5
t-93 -40t-37 -93q2 -55 40.5 -93t93.5 -37zM171 453q0 -16 -12 -28t-28 -11q-16 0 -28 12t-11 28q1 17 13 28.5t28 10.5q16 0 27.5 -12t10.5 -28zM487 265q-55 1 -93.5 -39t-36.5 -93q1 -55 39.5 -93t93.5 -37t92.5 39.5t37.5 93.5q-1 53 -39 91.5t-94 37.5zM528 133
q-1 -16 -13 -27t-28 -11t-27.5 12t-10.5 28q0 16 12 27.5t28 10.5q16 0 27.5 -11.5t11.5 -28.5z" />
    <glyph glyph-name="ampersand" unicode="&#x26;" horiz-adv-x="687" 
d="M245 -22q41 -2 80 12q82 28 128 100.5t37 158.5q-6 37 -6 41q-3 17 12 29q18 12 27 19q40 28 66 73q9 17 8 36q-1 22 -22 33q-22 10 -43 -3q-8 -6 -15 -15q-4 -4 -10 -12.5t-7 -10.5q-32 -42 -83 -49l-33 -3q-35 -4 -68 -18q-46 -18 -77 -61q-11 -14 -14 -30
q-3 -26 16 -40q22 -19 46 -3q3 1 16 12l24 24q17 16 37 17q16 4 25 -11q6 -12 8 -19q13 -46 -8 -97q-21 -49 -68.5 -75.5t-99.5 -17.5q-55 10 -91.5 51t-39.5 95q-2 56 31 101t88 58q7 2 21.5 4t15.5 2q16 2 24 5q23 7 28 33q3 29 -20 42q-7 4 -23 10q-2 1 -10.5 3.5
t-12.5 4.5q-33 18 -32 54q2 41 40 53q36 9 61 -17q2 -3 6.5 -10t7.5 -10l11 -18q19 -22 45 -14q13 4 21.5 15.5t8.5 25.5q-2 19 -6 28q-21 56 -78 81q-86 35 -155 -23t-49 -149q7 -23 8 -28q7 -21 -12 -37q-4 -3 -17 -14.5t-20 -18.5q-52 -52 -67 -124t13 -140
q28 -70 90.5 -112t136.5 -41z" />
    <glyph glyph-name="quotesingle" unicode="'" horiz-adv-x="181" 
d="M91 747v54q0 16 -6 28q-9 25 -38 27q-27 2 -40 -24q-5 -11 -7 -24v-116q0 -11 7 -23q10 -25 39 -25q26 0 37 22q7 15 8 28v17v19.5v16.5z" />
    <glyph glyph-name="parenleft" unicode="(" horiz-adv-x="250" 
d="M151 574q0 33 -26 43q-26 11 -46 -8q-10 -8 -16 -19l-15 -34q-124 -322 15 -641q5 -14 11 -22q5 -9 13 -16q22 -22 50 -7q23 12 23 41q-2 12 -6 24q-5 14 -17 42q-53 135 -54 266q-1 137 49 272q1 3 7 16.5t8 21.5q1 5 3 13z" />
    <glyph glyph-name="parenright" unicode=")" horiz-adv-x="249" 
d="M159 259q1 149 -62 309l-13 26q-10 13 -13 15q-22 18 -47 8q-25 -13 -25 -40q0 -8 4 -24q2 -6 7 -19t7 -20q53 -139 49 -284q-4 -127 -56 -257l-15 -39q-5 -15 -5 -28q0 -25 23 -36q25 -12 47 4q6 4 14 15l15 30q71 165 70 340z" />
    <glyph glyph-name="asterisk" unicode="*" horiz-adv-x="347" 
d="M31 468q0 -1 -0.5 -3.5t-0.5 -4.5q-2 -30 29 -32q4 0 10.5 0.5t9.5 0.5q7 -1 15 -7q4 -3 21 -20q5 -4 13.5 -3.5t13.5 4.5q6 3 9 8q16 28 45 21q5 0 8 1q8 1 14.5 7t7.5 14q1 6 1 17q-1 18 14 32l9 9q17 19 0 33q-28 25 -23 54l-1 4q-2 8 -8.5 14.5t-14.5 6.5h-24
q-11 0 -19 8q-8 10 -10 12q-19 21 -40 3q-4 -1 -6 -5q-15 -17 -37 -13h-13q-11 -1 -18.5 -9.5t-5.5 -18.5q8 -37 -21 -52l-3 -3q-15 -19 1 -35q7 -7 12 -10q17 -11 12 -33z" />
    <glyph glyph-name="plus" unicode="+" horiz-adv-x="516" 
d="M426 278q0 28 -25 40q-10 4 -32 6q-42 0 -63 1q-8 0 -24 2q-18 3 -22 23q0 5 -1 14.5t-1 14.5v54q-2 18 -6 32q-8 26 -38 28q-29 0 -39 -26q-5 -14 -6 -28q-1 -9 -1 -27v-27q0 -22 -1 -33q-3 -23 -28 -26q-8 -1 -25 -1q-10 -1 -29 -1.5t-29 -0.5t-28 -4q-28 -11 -28 -38
q0 -31 30 -41q15 -3 16 -3q8 -1 24 -1h42q35 1 46 -10t10 -45v-45q0 -4 1 -12.5t1 -12.5q1 -9 6 -20q4 -11 15.5 -18t23.5 -6q25 1 36 25q4 10 6 24q1 9 1 29q0 33 1 50q0 9 3 20q3 14 16 17q9 2 25 4h66q19 2 28 5q27 9 29 37z" />
    <glyph glyph-name="comma" unicode="," horiz-adv-x="213" 
d="M20 -52q-1 -3 -1 -9q0 -18 13 -26.5t29 -1.5q13 5 21 13q44 38 42 100q-2 14 -8 27q-10 22 -31.5 31t-44.5 1t-34 -30.5t-3 -46.5l9 -19q12 -21 8 -39z" />
    <glyph glyph-name="hyphen" unicode="-" horiz-adv-x="510" 
d="M209 293h-128q-22 0 -33 -1q-15 -2 -24 -7q-24 -12 -24 -40q2 -27 27 -39q12 -6 40 -6h249q30 0 45 1q10 0 28 4q29 8 31 41q0 31 -29 41q-14 4 -20 5q-11 1 -34 1h-128z" />
    <glyph glyph-name="period" unicode="." horiz-adv-x="213" 
d="M62 -10q25 -1 42.5 16.5t18.5 43.5q0 25 -17 43t-42 19q-27 1 -45.5 -17.5t-18.5 -44.5q1 -25 18.5 -42.5t43.5 -17.5z" />
    <glyph glyph-name="slash" unicode="/" horiz-adv-x="573" 
d="M493 594q3 28 -18 42q-25 16 -47 -2q-12 -10 -20 -21q-1 -2 -20 -31l-363 -573q-12 -19 -18 -32q-5 -11 -7 -24q-1 -19 12.5 -32t32.5 -11q15 0 26 11q13 14 23 29q22 34 64 102l308 486q12 18 20 35q4 8 7 21z" />
    <glyph glyph-name="zero" unicode="0" horiz-adv-x="708" 
d="M618 280q2 75 -27 150q-32 82 -94 139q-75 69 -171.5 74.5t-178.5 -54.5q-54 -39 -93 -105q-50 -86 -53.5 -191.5t34.5 -187.5q33 -72 86 -121q80 -73 181.5 -75.5t184.5 66.5q46 37 77 91q55 97 54 214zM533 274q-2 -104 -56 -183q-21 -30 -41 -46q-56 -50 -126.5 -50.5
t-126.5 49.5q-45 40 -67 93q-57 130 -7 262q23 61 68 103l6 6q56 50 126 50t127 -50q55 -49 80 -124q18 -60 17 -110z" />
    <glyph glyph-name="one" unicode="1" horiz-adv-x="367" 
d="M247 254q0 177 -1 265q0 28 -1 41q-2 15 -7 24q-10 21 -33 21q-25 1 -37 -21q-3 -6 -7 -20q0 -2 -2 -14t-4 -18q-8 -32 -15 -47q-30 -64 -101 -69h-16t-17 -1q-16 0 -24 -2q-28 -5 -32 -35q-2 -29 24 -40q10 -5 27 -7q60 -6 107 11l15 6q2 0 6 2t6 2q7 2 14 -2.5t8 -11.5
q3 -21 3 -41v-303q0 -30 1 -45q2 -14 6 -24q11 -24 36 -24t36 22q6 12 6 24q1 7 1 42q1 88 1 265z" />
    <glyph glyph-name="two" unicode="2" horiz-adv-x="613" 
d="M513 347q0 60 -19 114q-21 62 -68 107q-68 65 -160.5 61.5t-153.5 -75.5q-93 -108 -48 -248q9 -27 25 -48q41 -55 110 -67q20 -3 37 1q32 7 34 38q0 28 -26 39q-2 1 -6 2t-6 2q-12 2 -20 4q-52 12 -69 65q-14 43 -1 90.5t50 78.5q33 29 75 31.5t79 -21.5q26 -18 45 -47
q28 -43 33 -97q14 -156 -112 -231q-31 -18 -60 -29q-113 -44 -165 -51q-51 -9 -89 -50q-13 -13 -17 -28q-5 -27 13 -42q17 -15 42 -5q7 3 14 8q3 2 8.5 6.5t8.5 6.5q37 29 86 17q21 -4 43 -14q42 -20 63 -31q54 -26 97 -35q32 -5 58 -1q38 5 64.5 30t33.5 63q1 5 1 29
q-1 11 -11 21q-13 14 -32 12t-29 -18q-2 -3 -15 -29q-11 -21 -37 -23q-8 0 -12 1q-41 6 -74 26l-9 9q-2 2 -2 7.5t2 7.5q10 10 16 13q9 5 26 14t25 14q132 79 149 235q1 7 2 21.5t1 15.5z" />
    <glyph glyph-name="three" unicode="3" horiz-adv-x="609" 
d="M0 129q1 -103 69 -177t169 -82q111 -10 195 65t86 186q1 133 -104 216q-14 10 -22 18q-13 11 -8 26q1 6 5 18l6 18q15 56 -7 106.5t-72.5 75.5t-109.5 10q-69 -16 -103 -88q-7 -17 -7 -32q0 -29 26 -39q27 -10 45 13q3 4 8 11t6 9q8 14 14 21q31 36 75 19q20 -8 32 -26
t12 -39q0 -22 -13.5 -40t-35.5 -24q-6 -2 -17.5 -3t-15.5 -2q-16 -2 -24 -4q-14 -4 -22.5 -15.5t-7.5 -24.5q0 -28 28 -37q7 -3 25 -5q7 -1 20.5 -1h20.5q102 -12 145 -103q23 -52 11 -107t-55 -93t-99 -43t-105 25q-49 29 -71 81.5t-8 107.5l5.5 16.5t4.5 14.5q1 2 3 9.5
t3 10.5q7 32 -22 45q-12 7 -25.5 4t-22.5 -14q-11 -12 -17 -28q-20 -43 -20 -99z" />
    <glyph glyph-name="four" unicode="4" horiz-adv-x="584" 
d="M371 403v120q0 22 -1 33q-2 14 -5 20q-8 24 -34 26q-22 3 -35 -16q-5 -8 -14 -30q-4 -11 -11 -35t-11 -36q-40 -116 -95 -198q-57 -86 -131 -123q-11 -5 -23 -17q-14 -15 -10 -35t22 -28q10 -5 20 -5q12 -1 37 -1q46 -1 137 -1h33q32 -3 35 -34v-37q0 -36 1 -54
q0 -13 5 -28q9 -28 38 -26q29 0 37 27q4 13 4 29q1 21 1 62q0 22 1 33q3 24 27 27q7 0 21 1t21 1q19 2 28 5q20 7 24 28.5t-12 36.5q-10 10 -25 13q-26 2 -38 2h-157q-25 0 -37 1q-6 0 -16 4q-9 5 -7 14q5 12 7 15l45 65q2 3 8 9q4 5 11.5 3.5t9.5 -7.5q1 -4 2.5 -11.5
t3 -13.5t3.5 -11q4 -12 15 -19.5t24 -6.5q12 1 22.5 9t13.5 20q4 12 4 20q1 11 1 33v116z" />
    <glyph glyph-name="five" unicode="5" horiz-adv-x="547" 
d="M123 447q36 0 69 11q18 7 54 23q20 9 40 20q28 12 43 14q25 2 36 -16q3 -3 8 -11.5t8 -12.5q13 -17 37 -14q24 4 32 29q4 14 1 29q-8 36 -33.5 58.5t-62.5 24.5q-39 3 -77 -12q-9 -4 -19 -8.5t-22 -10t-19 -8.5q-6 -3 -18 -8t-21.5 -9t-17.5 -7q-41 -14 -75 11
q-10 9 -24 15q-11 6 -24.5 3.5t-21.5 -11.5q-20 -22 -7 -46q7 -12 17 -23q43 -41 97 -41zM457 96q2 66 -36 126t-107 88q-27 11 -60 16q-28 3 -29 3q-19 3 -23 20l-6 24q-10 26 -34 27q-24 3 -38 -19q-6 -10 -7 -15q-1 -7 -12 -70v-8q2 -39 41 -44q18 -2 29 -2h49
q25 -1 49 -9q52 -17 79.5 -66t14.5 -102q-11 -47 -49 -77.5t-85 -32.5q-50 -2 -90 27.5t-53 77.5q-2 6 -4 18l-3 18q-3 11 -7 20q-9 19 -31 21t-35 -15q-7 -10 -10 -23q-2 -13 2 -41q16 -89 87 -143t162 -45q88 8 147.5 74t58.5 152z" />
    <glyph glyph-name="six" unicode="6" horiz-adv-x="601" 
d="M250 -130q103 1 177.5 70t82.5 171q7 102 -56 181t-164 95q-4 1 -12.5 2t-12.5 2q-38 6 -15 38q14 21 46 63q24 34 26 38q9 14 10 26q5 27 -16 40q-21 14 -43 1q-9 -6 -16 -13q-6 -6 -16 -20q-18 -25 -52.5 -71.5t-48.5 -64.5q-29 -40 -85 -122q-39 -57 -51 -130
q-10 -72 6 -127q40 -140 183 -172q9 -2 57 -7zM86 132q2 62 39 122q15 25 43 36q55 20 106 12q68 -9 111 -61.5t39 -121.5q-4 -67 -54.5 -114t-118.5 -48q-25 0 -49 6q-73 18 -102 89q-14 36 -14 80z" />
    <glyph glyph-name="seven" unicode="7" horiz-adv-x="576" 
d="M0 494q0 -44 1 -66q0 -17 4 -29q11 -30 43 -25q24 3 32 28q3 9 5 28l3 33q1 7 8 11.5t14 3.5q12 -2 24 -6q81 -27 167 -12q16 2 25 2q7 1 12 -6t3 -14q-11 -33 -17 -46l-168 -401q-12 -28 -17 -42q-3 -12 -3 -24q2 -26 26 -35q24 -8 42 10q7 5 12 16q8 14 16 34
q158 376 238 564l12 31q2 6 4 20q1 23 -16.5 36t-39.5 5q-3 -1 -21 -11q-4 -3 -12 -8t-14.5 -9t-12.5 -7q-142 -74 -271 11q-3 2 -11 7.5t-13 8.5q-2 1 -5.5 3t-6.5 3.5t-6 2.5q-17 6 -32.5 -2t-20.5 -25q-2 -8 -4 -28v-62z" />
    <glyph glyph-name="eight" unicode="8" horiz-adv-x="601" 
d="M254 -131q88 -1 157 52t90.5 133.5t-12.5 173.5q-16 37 -48 71q-18 18 -28 26q-17 14 -20 25.5t6 31.5q7 15 11 27q19 61 -10.5 118.5t-89.5 78.5q-62 22 -121.5 -5t-82.5 -88q-22 -56 -1 -114q2 -5 6.5 -15t6.5 -15q6 -21 -8 -34q-5 -6 -16.5 -16t-17.5 -15
q-55 -53 -70 -129.5t13 -146.5q28 -71 92.5 -115.5t142.5 -43.5zM329 454q0 -30 -22 -51.5t-52 -21.5t-51.5 22t-20.5 53q0 30 21.5 51.5t52.5 20.5q30 -1 51.5 -22.5t20.5 -51.5zM255 -45q-69 0 -118.5 49.5t-49.5 119.5q0 69 50 119t119 49q70 0 119.5 -49.5t49.5 -119.5
q-1 -70 -50.5 -119.5t-119.5 -48.5z" />
    <glyph glyph-name="nine" unicode="9" horiz-adv-x="601" 
d="M511 361q0 78 -32 138q-39 71 -107 100q-121 53 -236 -8q-70 -37 -107 -109t-27 -150q11 -83 65.5 -143.5t134.5 -78.5q8 -2 23 -4t22 -4q5 -1 15 -5q11 -6 7 -14q-6 -16 -10 -22q-10 -14 -29.5 -39.5t-22.5 -30.5q-2 -4 -9.5 -14.5t-10.5 -16.5q-5 -9 -9 -24
q-4 -22 14 -36t39 -6q10 4 18 11q7 7 21 25l44 60q39 53 117 161q26 38 38 59q40 71 42 151zM424 373q0 -73 -37 -133q-17 -26 -48 -38q-53 -19 -106 -10q-63 10 -104.5 58t-41.5 111q-1 64 39.5 113t103.5 60q39 7 82 -4q68 -19 97 -84q17 -39 15 -73z" />
    <glyph glyph-name="colon" unicode=":" horiz-adv-x="213" 
d="M59 418q-25 -1 -42 -19t-17 -44q1 -25 18.5 -42.5t42.5 -17.5q26 0 44.5 19t17.5 45q-1 25 -19.5 42t-44.5 17zM123 54q0 25 -17.5 43t-42.5 19t-43 -15.5t-20 -42.5q-1 -26 17 -45t44 -19q25 0 43 17.5t19 42.5z" />
    <glyph glyph-name="semicolon" unicode=";" horiz-adv-x="213" 
d="M122 352q1 25 -16 43.5t-42 19.5q-26 1 -45 -17.5t-19 -44.5q0 -25 18 -42.5t43 -17.5q26 -1 43.5 16.5t17.5 42.5zM20 -28v-10q0 -13 10.5 -21t23.5 -5q14 3 23 10q54 43 45 117q-1 7 -7 19q-11 21 -33.5 28.5t-44.5 -2.5t-31.5 -32t-1.5 -44q3 -9 9 -18q12 -21 7 -42z
" />
    <glyph glyph-name="less" unicode="&#x3c;" horiz-adv-x="380" 
d="M247 10q16 0 31 13q12 13 12 31t-13 30l-171 163l171 163q13 13 13 30.5t-12 30.5t-30 13.5t-31 -11.5l-203 -194q-14 -14 -14 -32q0 -19 14 -31l203 -194q12 -12 30 -12z" />
    <glyph glyph-name="equal" unicode="=" horiz-adv-x="509" 
d="M207 389h-128q-22 0 -33 -1q-15 -2 -24 -7q-24 -12 -24 -40q2 -27 27 -39q12 -6 40 -6h249q30 0 45 1q10 0 28 4q29 8 31 41q0 31 -29 41q-14 4 -20 5q-11 1 -34 1h-128zM208 216h-128q-22 0 -33 -1q-15 -2 -24 -7q-24 -12 -24 -40q1 -27 27 -39q12 -6 40 -6h249
q30 0 45 1q10 0 28 4q29 8 31 41q0 31 -29 41q-14 4 -20 5q-11 1 -34 1h-128z" />
    <glyph glyph-name="greater" unicode="&#x3e;" horiz-adv-x="380" 
d="M43 8q18 0 30 12l203 195q14 12 14 31t-14 31l-203 194q-13 13 -30.5 12.5t-30.5 -13.5q-12 -13 -11.5 -31t13.5 -30l170 -163l-170 -163q-13 -13 -13.5 -30.5t11.5 -30.5q14 -14 31 -14z" />
    <glyph glyph-name="question" unicode="?" horiz-adv-x="429" 
d="M84 227h1v-33v-8q4 -16 7 -24q10 -26 39 -24q25 0 36 24q4 8 6 19q2 18 2 25q3 21 20 30q6 3 17.5 8.5t16.5 8.5q92 50 107.5 152.5t-57.5 178.5q-39 40 -91 55q-64 16 -117 -11q-38 -19 -57 -55.5t-12 -78.5q6 -41 35 -71t70 -37q17 -3 33 0q27 7 32 34q5 28 -19 42
q-1 1 -23 10q-4 2 -11.5 5.5t-10.5 5.5q-16 12 -15 32t18 31q12 6 20 7q26 5 48 -7q65 -32 70 -105q2 -40 -22 -73.5t-63 -44.5q-7 -2 -20 -4.5t-17 -3.5q-37 -11 -41 -46q-1 -8 -1.5 -22.5t-0.5 -19.5zM190 27q-1 25 -18.5 42.5t-43.5 17.5q-25 0 -42.5 -17.5t-18.5 -43.5
q0 -26 19 -44t45 -17q25 1 42.5 19t16.5 43z" />
    <glyph glyph-name="at" unicode="@" horiz-adv-x="870" 
d="M391 -141q151 1 262 101.5t127 250.5q1 19 0 38q-2 14 -7 23q-13 21 -38 21q-24 0 -37 -22q-4 -6 -8 -24l-3 -33q-8 -53 -27 -91q-7 -13 -14 -25q-1 -2 -4 -5t-4 -5q-6 -7 -15 -6t-13 9q-16 26 -27 69q-3 12 6 28l25 33q53 80 44 175.5t-77 163.5q-90 90 -222 79
q-84 -6 -156.5 -46.5t-121 -102t-69.5 -144t-6 -168.5q25 -138 134.5 -228.5t250.5 -90.5zM93 249q0 103 63.5 184t163.5 106q65 18 142 -10q31 -10 60 -43q58 -69 39 -154q-1 -8 -7 -19q-6 -13 -16 -11q-8 1 -13 10q-6 12 -16 38q-7 18 -20 53t-18 48q-3 5 -7.5 17t-6.5 17
q-6 10 -14 20q-11 13 -27 14.5t-29 -9.5q-11 -10 -19 -22q-12 -22 -20 -41l-153 -326q-12 -24 -15 -29q-1 -4 -7 -10q-10 -12 -23 -2q-13 16 -15 19q-42 69 -42 150zM391 -47q-45 -1 -91 13q-24 9 -30 13q-29 14 -17 45q1 4 4.5 11.5t5.5 11.5l111 236q12 24 20 36
q4 6 12 5.5t12 -6.5q5 -6 7 -11q14 -35 23 -62q3 -5 3 -12q5 -23 -19 -32q-3 -1 -8.5 -2.5t-7.5 -1.5l-21 -3q-5 -1 -20 -5q-30 -12 -28 -41q2 -33 30 -41q14 -4 21 -3l45 3l28 6q22 2 32 -15q19 -39 30 -81q6 -24 -16 -35q-14 -8 -22 -11q-51 -20 -104 -18z" />
    <glyph glyph-name="A" unicode="A" horiz-adv-x="871" 
d="M285 64v-75q0 -20 7 -32q11 -23 36 -23q13 -1 23.5 6.5t14.5 20.5q2 8 4 28v54q0 6 1 17t1 16q2 25 26 28q14 2 20 2h216l24 -3q17 -5 21 -19q4 -18 4 -29q0 -1 1 -25t2 -37q0 -15 5 -32q8 -28 38 -28q12 0 22.5 7.5t14.5 20.5q5 12 5 24v45q-1 22 -5 71q-8 104 -34 199
q-26 96 -73 180q-45 78 -111 138q-73 65 -152 91q-40 14 -60 16q-79 7 -136 -3q-88 -15 -144.5 -82.5t-55.5 -156.5q1 -75 42 -135t110 -87q68 -28 140 -12t123 69q57 62 66 145q2 20 -5 36q-8 20 -29.5 24t-36.5 -11l-10 -13q-7 -12 -9 -14q-1 -3 -7 -3q-5 2 -5 6
q-6 27 -4 94q0 44 41 24q42 -22 80 -58q55 -51 95 -124q41 -75 66 -179l3 -20q3 -29 -25 -32q-12 -1 -37 -1h-215h-37l-21 -3q-31 -5 -38 -38q-2 -18 -2 -25v-62zM287 486q0 -69 -1 -103q0 -17 -1 -25q-5 -21 -24 -25q-18 -3 -33 -2q-82 6 -122.5 79.5t-1.5 146.5
q48 85 147 82q4 0 12 -2q16 -5 19 -19q3 -16 3 -33v-99h2z" />
    <glyph glyph-name="B" unicode="B" horiz-adv-x="850" 
d="M355 730q-14 0 -39.5 0.5t-46 0.5t-38.5 -1q-67 -3 -120.5 -38t-82 -87t-28.5 -116t34 -122q52 -90 154.5 -112.5t188.5 36.5q89 61 103 171q3 21 -2 37q-8 26 -32 30q-23 3 -40 -17q-5 -7 -8 -14l-6 -15q-4 -6 -9 -6q-4 4 -5 6q-7 49 -3 133q0 2 2 8q4 15 20 19
q12 2 20 2q69 0 91 -6q61 -16 98.5 -65t37.5 -112q-1 -62 -40.5 -110.5t-100.5 -61.5q-5 -1 -10.5 -2t-12 -2t-10.5 -2q-16 -4 -23 -7q-14 -7 -19.5 -23.5t2.5 -30.5q10 -18 28 -21q17 -3 37 -1q34 3 69 17q5 2 15 6.5t15 6.5q22 7 34 -9q14 -20 22 -35q31 -63 23.5 -128
t-38 -117.5t-88 -86.5t-126.5 -36q-94 -2 -167.5 57t-91.5 151q-2 8 -4 23.5t-2 17.5q-2 14 -6 24q-9 23 -35 25q-26 0 -37 -23q-6 -10 -6 -23q0 -28 2 -42q17 -115 99 -196q72 -71 168 -92.5t189 11t156 111.5q67 85 73.5 195t-48.5 198l-20 32q-8 16 -1 32q2 5 8 17.5
t9 19.5q35 79 17.5 162.5t-80.5 141.5q-74 66 -169 69h-120zM287 489v-95q0 -19 -1 -29q-3 -23 -27 -28q-18 -2 -29 -1q-56 4 -96.5 43t-46.5 94t25 102t85 63q37 10 66 5q20 -4 22 -22t2 -28v-104zM371 63v70q-2 18 -4 29q-3 14 -14 22.5t-25 8.5t-24.5 -9t-14.5 -23
q-3 -9 -3 -20v-149q0 -10 3 -21q7 -31 37 -33q15 -1 27 8.5t15 25.5q0 1 3 29v62z" />
    <glyph glyph-name="C" unicode="C" horiz-adv-x="773" 
d="M422 -60q111 0 221 86q20 18 24 22q7 7 12 17q12 25 -8 46q-18 17 -42 9q-8 -3 -22 -13q-6 -4 -17.5 -13t-15.5 -12q-78 -54 -170 -55q-141 -2 -233 99q-121 130 -70 303q25 84 97 147q62 54 140 66q74 11 136 -26q54 -34 61 -94q7 -53 -23 -98.5t-82 -59.5
q-69 -19 -129 26q-2 2 -12.5 11t-16.5 13q-28 22 -53 -1q-11 -11 -12.5 -26.5t8.5 -30.5q9 -15 31 -33q62 -49 138.5 -51.5t139 41t87.5 118.5q26 78 -4 156t-115 117q-49 23 -108 26q-90 4 -171 -40q-160 -88 -205 -273q-8 -38 -8 -74q-2 -167 118 -284.5t304 -118.5z" />
    <glyph glyph-name="D" unicode="D" horiz-adv-x="878" 
d="M326 726v1q-66 0 -79 -1q-30 0 -57 -6q-92 -18 -148 -98q-56 -81 -38 -177.5t99 -152.5q80 -56 177.5 -38.5t153.5 97.5q35 52 41 111q3 19 -3 37q-7 20 -27 26t-37 -7q-8 -8 -11 -13q-2 -2 -5 -6.5t-5 -6.5q-3 -3 -7 -1q-5 3 -5 5q-6 34 -4 116q1 1 1 4q6 21 23 21
q25 2 37 0q114 -13 190 -96.5t80 -197.5q4 -151 -117 -249q-75 -61 -175 -66q-22 -1 -31.5 7.5t-10.5 30.5q-1 14 -1 41q0 25 -1 37q0 9 -4 25q-4 12 -14.5 19.5t-23.5 7.5q-12 0 -22.5 -7.5t-14.5 -19.5q-5 -18 -5 -33q-1 -44 -1 -132q0 -13 3 -25q6 -32 40 -37q2 0 6 -0.5
t6 -0.5h42.5t52.5 2q173 18 278 154q83 111 79 248q-8 180 -147 294q-99 81 -232 87h-26h-31h-26zM284 485q0 -64 -1 -95q0 -11 -2 -29q-3 -15 -19 -20q-11 -4 -24 -4q-96 2 -135 85q-41 85 17 159q49 63 130 58q2 0 5 -0.5t4 -0.5q19 -3 22 -22q2 -18 2 -28q1 -35 1 -103z
" />
    <glyph glyph-name="E" unicode="E" horiz-adv-x="616" 
d="M272 -59q112 0 191.5 77t82.5 188q1 62 -25 121q-9 17 -20 26q-21 16 -43 4q-22 -11 -22 -37q0 -6 4 -20q2 -7 6.5 -19.5t5.5 -15.5q14 -51 1 -98q-14 -57 -59 -95.5t-103 -43.5q-59 -6 -111 24t-77 85q-25 54 -14 111t54 99q49 47 118 52q9 1 25 1.5t21 0.5q13 1 28 8
q17 8 20.5 26.5t-8.5 33.5q-13 13 -25 15l-32 3q-22 4 -32 8q-22 8 -35 28t-12 44q1 23 15.5 41.5t36.5 26.5q49 16 82 -25q3 -4 7.5 -11.5t5.5 -8.5q2 -3 6.5 -10.5t7.5 -10.5q11 -14 29 -14q17 -1 28.5 10t12.5 27t-8 40q-29 65 -99.5 86.5t-132.5 -16.5q-46 -28 -66 -79
t-6 -104q1 -4 5 -14.5t6 -16.5q9 -25 -13 -43l-27 -20q-48 -40 -74 -93.5t-26.5 -105.5t15.5 -103q28 -82 98.5 -132t157.5 -50z" />
    <glyph glyph-name="F" unicode="F" horiz-adv-x="576" 
d="M363 727h-104q-41 -2 -62 -6q-107 -19 -163 -113t-20 -201q20 -59 64.5 -99.5t98.5 -55.5t113 -3.5t107 51.5q72 61 84 157q2 28 -4 41q-8 21 -30.5 25t-37.5 -13q-7 -10 -9 -14q-3 -5 -7 -15q-6 -11 -10 -5q0 1 -2 3t-2 3q-7 48 -3 128v4q5 22 26 24q18 2 29 2h62
q31 2 53 9q82 30 99 117q3 18 -1 33q-5 16 -18.5 24.5t-29.5 4.5q-19 -4 -28 -23q-3 -7 -10 -31q-15 -41 -59 -46q-11 -1 -33 -1h-103zM287 487v-95q0 -19 -1 -29q-3 -29 -32 -32q-25 -2 -41 2q-56 11 -91.5 55t-34.5 102q2 56 40.5 98.5t95.5 49.5q9 1 29 1q33 -1 34 -32
q1 -10 1 -29v-91zM291 68v-74q2 -23 7 -33q12 -23 36 -23q23 0 34 21q5 9 7 23q1 10 1 29q1 0 0 54v54v25q-2 14 -4 20q-8 27 -37 29q-14 0 -25 -8.5t-15 -21.5q-2 -8 -4 -28v-67z" />
    <glyph glyph-name="G" unicode="G" horiz-adv-x="775" 
d="M0 392q9 -204 191 -295q117 -59 250 -17q26 10 39 14q22 7 29 -16q2 -8 2 -12q5 -48 -3 -87q-6 -24 -11 -35q-15 -34 -51 -45q-11 -3 -33 -7q-20 -4 -28 -8q-23 -9 -23 -35q-1 -13 7 -23.5t20 -14.5q16 -4 24 -4q55 0 102.5 28.5t68.5 91.5q3 10 10 40q5 29 5 70
q-1 27 -5 79q-3 52 4 99q11 83 63 132q8 8 11 13q3 4 9 14q10 21 -4 39q-15 20 -40 16q-13 -2 -22 -9q-24 -20 -34 -31q-38 -45 -57 -109q-3 -10 -10 -40q-6 -22 -22 -35q-18 -13 -20 -14q-84 -51 -170 -39.5t-145 74.5q-48 50 -63 112.5t0 118.5t54 102.5t94 69.5
q38 17 81 15q46 -3 77 -26q40 -28 42 -77q3 -66 -53 -101q-56 -34 -114 0q-6 3 -16.5 11.5t-13.5 10.5q-14 10 -21 12q-22 8 -39 -7q-17 -16 -13 -38q3 -14 12 -26q18 -18 27 -25q77 -59 171 -34t132 114q16 45 15 91t-29.5 89.5t-79.5 67.5q-22 11 -46 17q-76 18 -151 -8
q-76 -27 -130 -87q-89 -96 -93 -236z" />
    <glyph glyph-name="H" unicode="H" horiz-adv-x="760" 
d="M481 175v-104q0 -22 2 -33q2 -14 7 -23q11 -21 34 -21q25 0 36 23q5 9 7 23q1 11 1 33v121v348q0 30 2 45q5 38 41 53l20 6q1 0 7 2t9 4q26 12 23 40q-1 13 -10.5 23.5t-23.5 12.5q-21 4 -45 -3q-83 -26 -104 -109q-4 -16 -6 -49q-4 -40 -9 -61q-29 -110 -137 -156
q-8 -3 -24 -7q-8 -1 -15.5 4t-9.5 14q-2 10 -2 16v37v232q0 21 -3 42q-2 15 -13 24.5t-27 11.5q-18 2 -32 -1q-81 -11 -138.5 -68.5t-68.5 -139.5q-11 -80 30.5 -151t116.5 -102q59 -24 105 -19q96 8 171 58q2 1 17 11q18 11 27 8q11 -6 11 -29q1 -39 1 -116zM198 481v-87
q0 -9 -2 -29q-2 -10 -10.5 -14t-18.5 0q-7 3 -14 8q-65 45 -65.5 125.5t64.5 125.5q4 3 22 10q5 2 12 -2t8 -9q4 -16 4 -24v-104zM286 134q0 2 -0.5 14t-1.5 20q-2 14 -8 27q-10 19 -31.5 20.5t-34.5 -16.5q-10 -14 -11 -30q0 -25 -1 -38q0 -27 -1 -41q-6 -42 -44 -55
q-5 -2 -15.5 -5.5t-15.5 -5.5q-30 -12 -25 -43q1 -13 11.5 -22.5t24.5 -11.5q19 -2 28 0q95 21 119 113q4 18 6 74z" />
    <glyph glyph-name="I" unicode="I" horiz-adv-x="570" 
d="M271 727v-1h-45q-101 -7 -164.5 -79.5t-61.5 -165.5t65 -161t157 -75q93 -8 167 50t90 152q1 11 1 33q0 8 -3 16q-7 22 -29 27t-38 -11q-1 -1 -10 -13l-12 -22q0 -2 -3 -2q-6 3 -6 4q-5 13 -5 49q-1 39 -1 116q0 25 -1 37q-5 39 -43 44q-12 2 -20 2h-38zM288 487
q0 -66 -1 -100q0 -19 -2 -28q-3 -19 -24 -26q-10 -2 -16 -2q-101 0 -143 88q-43 88 22 166q50 60 132 55q28 -2 30 -29q0 -5 1 -16t1 -17v-91zM371 65v70q-2 22 -5 33q-4 12 -14.5 19.5t-22.5 7.5q-29 2 -38 -26q-5 -10 -5 -20v-160q0 -8 4 -20q4 -13 14.5 -20.5t22.5 -7.5
q28 -2 38 26q6 12 6 32v66z" />
    <glyph glyph-name="J" unicode="J" horiz-adv-x="571" 
d="M274 727q-36 0 -54 -2q-88 -9 -150 -71q-53 -53 -66.5 -126.5t17.5 -141.5t94.5 -107t137.5 -35q75 4 134.5 49t82.5 116q11 31 11 61q0 13 -3 25q-6 21 -28 27q-26 6 -41 -13q-3 -3 -5.5 -7t-5 -9t-4.5 -8t-8 -9q-1 -1 -3 0.5t-3.5 5t-1.5 7.5q0 10 -1.5 30.5t-2.5 31.5
v32.5v38.5v32q0 16 -3 33q-6 29 -35 37q-14 2 -21 2q-13 1 -41 1zM287 487v-32v-38.5v-32.5q0 -9 -2 -29q-3 -15 -19 -20q-8 -3 -24 -5q-59 -1 -104 40t-50 99q-7 73 44 124.5t124 45.5q6 0 12 -3q13 -5 16 -17q3 -13 3 -28q1 0 1 -52zM373 122h-1v33v8q-2 14 -4 21
q-3 13 -14 22t-25 9t-24.5 -9t-14.5 -23q-3 -12 -3 -24q-1 -7 -1 -20.5v-20.5q0 -20 -1 -29q-8 -42 -45 -55q-18 -5 -32 -10q-27 -12 -25 -39q2 -31 34 -38q16 -3 32 0q47 8 81 43t40 83q1 7 1.5 15.5t1 18.5t0.5 15z" />
    <glyph glyph-name="K" unicode="K" horiz-adv-x="789" 
d="M272 726v2q-1 0 -28.5 -2t-41.5 -4q-75 -12 -129.5 -65t-68.5 -127q-14 -77 18 -146.5t99 -107.5q55 -31 116 -32t111 24t86.5 73.5t45.5 110.5q1 8 1 25q0 11 -4 20q-8 21 -29.5 25.5t-37.5 -11.5q-2 -2 -12 -17q-2 -3 -4 -8t-3 -7q-2 -4 -7 -2q-2 0 -5 5q-3 12 -5 75
v99q0 17 -5 37q-5 22 -27 28q-13 5 -24 5h-14.5h-17h-14.5zM287 485v-95q0 -19 -1 -29q-3 -26 -30 -29q-22 -2 -33 -1q-66 7 -106 61.5t-28 119.5q11 59 59.5 96t108.5 31q26 -3 29 -30q1 -5 1 -16v-25v-83zM285 64h1v-75q0 -13 5 -28q8 -27 37 -27q13 -1 23.5 6.5
t14.5 20.5q3 9 5 28q1 8 1 25v25q0 22 1 33q2 32 35 32q15 1 33 -2q36 -7 71 -31q33 -21 79 -73q7 -9 21.5 -27.5t22.5 -27.5q23 -27 48 -51q28 -28 68 -47q28 -12 56 -11q45 1 77 36q7 8 11 17q10 25 -6 42q-17 20 -42 12q-11 -4 -26 -12q-22 -11 -47 2q-19 11 -36 28
q-32 30 -60 68q-37 50 -81 89q-4 3 -12 11q-18 19 -1 37q3 3 9.5 9t8.5 8q76 73 81 180q2 41 0 124q0 13 -3 25q-4 14 -14.5 23t-23.5 9q-32 0 -40 -30q-5 -18 -5 -33q-1 -13 -1 -38v-37q0 -41 -1 -49q-9 -98 -99 -142q-33 -15 -69 -15q-44 0 -66 -1q-22 0 -33 -2
q-35 -5 -41 -40q0 -5 -0.5 -14.5t-1.5 -14.5v-62z" />
    <glyph glyph-name="L" unicode="L" horiz-adv-x="605" 
d="M278 691q-96 -2 -160 -40q-93 -55 -113 -161q-14 -78 18 -149t100 -110q56 -32 118.5 -32.5t113.5 25t88.5 74.5t45.5 112q2 18 2 26t-4 20q-8 22 -30.5 26.5t-38.5 -12.5q-4 -5 -12 -17q-2 -2 -3.5 -7t-3.5 -8q-4 -4 -7 -2q-5 0 -5 5q-5 25 -5 76v101q-2 26 -5 38
q-6 21 -28 29q-13 5 -25 5q-15 1 -46 1zM293 444v-97q0 -19 -1 -29q-3 -27 -31 -30q-22 -2 -33 0q-67 7 -108 62t-29 122q11 61 60.5 98t111.5 31q26 -3 29 -30q1 -6 1 -17v-25v-85zM773 -102q18 -10 21.5 -29.5t-8.5 -35.5q-53 -68 -125 -68q-36 0 -82 19t-74.5 37
t-80.5 53q-119 80 -216 50q-20 -6 -38 -16.5t-26 -17.5l-7 -7q-12 -14 -30.5 -15.5t-31.5 10.5q-14 13 -15 31t11 32q48 48 111 67q47 14 96 11q7 0 12.5 5.5t5.5 12.5v79q0 20 15 33.5t35 10.5q16 -2 27 -15t11 -30v-106q0 -13 13 -20q41 -19 76 -43q118 -80 167 -90.5
t76 30.5q25 30 57 12z" />
    <glyph glyph-name="M" unicode="M" horiz-adv-x="1089" 
d="M634 269v244q0 7 0.5 19t0.5 18q2 23 10 40q18 36 56.5 45.5t70.5 -13.5q33 -22 36 -62q1 -8 1 -46q1 -64 1 -191v-190v-25q-1 -25 0 -25q5 -38 7 -45q11 -42 44.5 -71.5t75.5 -34.5q18 -3 33 1q14 5 22.5 17.5t6.5 27.5q-5 20 -21 29q-11 5 -28 10q-51 14 -53 70v41v365
v54q-2 32 -8 53q-31 99 -129 121q-63 16 -124 -19q-6 -3 -15 -9t-13 -8q-16 -9 -32 0q-2 1 -17 10q-69 45 -147 24q-3 -1 -8.5 -2.5t-7.5 -2.5q-20 -5 -36 3q-26 11 -44 11q-76 0 -91 -1q-28 -2 -53 -9q-52 -15 -91.5 -50.5t-59 -80.5t-21.5 -97t21 -101q34 -79 112 -118.5
t169 -16.5q71 18 120 73.5t58 128.5q2 25 -1 37q-7 30 -33 33q-25 3 -40 -17q-2 -3 -12 -22q-5 -11 -9 -12q-3 -1 -5.5 3.5t-2.5 13.5q-3 27 -3 54q0 9 4 29q7 27 28.5 44t49.5 19t51.5 -13t33.5 -41q7 -17 7 -37q1 -13 1 -41v-468q0 -31 1 -46q2 -19 6 -27q11 -23 37 -23
q24 2 33 22q5 9 7 23q1 14 1 42v240zM287 491v-104q0 -19 -2 -28q-3 -20 -22 -23q-20 -4 -32 -3q-58 3 -99.5 45t-45.5 100q-3 58 33 104.5t93 56.5q23 4 50 1q21 -3 24 -25q1 -11 1 -33v-91zM371 72q0 44 -1 66q0 14 -3 28q-8 31 -40 31q-13 0 -24 -9t-14 -23
q-4 -14 -4 -24v-144q0 -10 4 -24t15 -22.5t25 -8.5t24.5 9t13.5 23q2 8 4 28v70z" />
    <glyph glyph-name="N" unicode="N" horiz-adv-x="924" 
d="M665 290v-182q0 -38 6 -62q10 -44 43 -75t76 -38q20 -3 37 2q16 5 23.5 21t0.5 32q-5 15 -23 23q-4 1 -13 3.5t-14 4.5q-43 14 -48 62v41v319q0 10 -0.5 29.5t-0.5 28.5q-1 37 -14 73q-32 91 -119.5 132.5t-180.5 6.5q-6 -3 -18.5 -8.5t-19.5 -7.5q-17 -8 -31 3
q-4 2 -10 8q-18 13 -39 13q-88 0 -99 -1q-112 -9 -177 -100.5t-36 -198.5q39 -144 180 -175q142 -32 238 80q44 50 53 119q3 16 1 37q-3 29 -30 36q-29 8 -46 -19l-8 -15q-5 -10 -6 -11t-7 -1l-2 2q-9 22 -2 57q10 45 45.5 75t80.5 35q58 6 104 -30.5t54 -95.5q2 -13 2 -41
v-182zM288 478q0 -64 -1 -95q0 -20 -1 -29q-3 -25 -27 -28q-8 -2 -24 -2q-57 1 -99.5 41t-47.5 96q-8 74 42.5 125t124.5 46q4 0 12 -2q14 -5 17 -16q3 -15 3 -29v-107h1zM371 64v66q0 10 -4 28q-8 28 -36 30q-14 1 -25 -7t-15 -21q-5 -15 -5 -28q-2 -72 0 -144q0 -14 4 -25
q9 -31 39 -29q31 0 38 31q4 13 4 29v70z" />
    <glyph glyph-name="O" unicode="O" horiz-adv-x="903" 
d="M414 -74q145 4 259 102.5t138 247.5q2 15 2 47q1 7 -3 20q-8 27 -38 29q-29 0 -39 -27q-3 -8 -5 -24q-1 -8 -3 -23t-4 -23q-33 -164 -186 -235q-63 -27 -133 -24t-132 33l-27 15q-70 43 -111.5 114.5t-43.5 153.5q-1 43 13 90q59 181 243 223q56 12 109 -1
q63 -16 102.5 -65.5t41.5 -107t-29 -112.5q-44 -69 -121 -85q-5 -1 -10.5 -2t-12.5 -2t-11 -2q-16 -4 -24 -8q-23 -11 -21 -37q1 -25 25 -36q14 -4 21 -4q28 0 42 3q176 37 221 207q22 81 -7 160t-96 129q-91 67 -207 55q-179 -18 -288 -165q-84 -112 -78 -257
q6 -149 108 -259q58 -62 128 -94q84 -39 177 -36z" />
    <glyph glyph-name="P" unicode="P" horiz-adv-x="845" 
d="M286 63v-75q0 -18 7 -32q7 -15 23 -20.5t30 2.5q16 8 21 25q4 18 4 28q1 0 1 33l-1 33q3 28 3 29q1 8 7 14.5t14 7.5q20 2 29 2q10 1 29 2t29 2q82 7 149 58q137 106 123 287q0 12 -5 25q-13 42 -20 58q-45 100 -142 151q-66 33 -140 33q-101 1 -203 0q-22 0 -49 -5
q-112 -22 -166.5 -122t-10.5 -206q30 -71 95.5 -112t141.5 -37q78 5 138 53.5t80 122.5q9 33 8 57q-2 14 -4 20q-5 15 -19.5 22.5t-30.5 2.5q-13 -4 -23 -17q0 -1 -4 -8.5t-7.5 -13t-6.5 -5.5q-5 0 -8 16q-5 33 -3 115q0 4 2 8q4 16 19 20q6 2 8 2q53 2 79 -2
q94 -16 148 -95.5t32 -171.5q-16 -73 -73.5 -120.5t-133.5 -51.5h-42h-31t-31 -1q-14 0 -28 -3q-30 -6 -36 -36q-2 -20 -2 -29v-66zM288 487q0 -68 -1 -103q0 -19 -2 -29q-3 -15 -19 -20q-11 -4 -24 -4q-101 2 -141 91q-41 90 25 165q51 58 129 52q7 0 13 -3q13 -3 16 -17
q3 -13 3 -28q1 0 1 -52l-1 -52h1z" />
    <glyph glyph-name="Q" unicode="Q" horiz-adv-x="887" 
d="M86 328q-2 44 12 88q59 177 239 219q54 12 106 -1q47 -12 81 -43.5t49 -70.5t11 -83.5t-28 -82.5q-42 -66 -119 -84q-5 -1 -16 -2.5t-16 -2.5q-18 -5 -24 -7q-22 -13 -21 -38q2 -25 25 -34q11 -6 20 -4q28 0 41 2q174 37 217 204q21 79 -7 156.5t-94 126.5
q-89 66 -203 54q-177 -18 -282 -161q-83 -111 -77 -253q6 -146 106 -254q108 -117 270 -128q10 -1 29 -1q26 -1 44 -21q7 -10 16 -19l45 -49q30 -29 62 -48q31 -20 65 -26q67 -11 112 39q8 8 13 21q12 30 -15 47q-21 13 -39 3q-4 -2 -29 -17q-18 -10 -40 -4l-15 6
q-40 21 -75 65q-3 6 -4 7q-2 5 -0.5 12.5t6.5 10.5l43 24q170 101 201 294q2 15 2 45q1 7 -3 21q-8 26 -37 28q-29 0 -39 -26q-4 -16 -5 -24q-1 -5 -2 -14.5t-2 -17t-2 -14.5q-33 -160 -183 -230q-16 -7 -35 -12q-17 -4 -32 7q-10 9 -30 29q-38 38 -80 64q-82 52 -173 51h-9
h-11h-9q-20 2 -30 19q-7 11 -12 26q-18 55 -17 103zM299 39q-2 -2 -4 -1q-30 3 -58 26q-3 3 -3 7q0 7 4 7q16 2 38 -9t27 -24q0 -1 -2 -3t-2 -3z" />
    <glyph glyph-name="R" unicode="R" horiz-adv-x="858" 
d="M348 722h-120q-76 -3 -136 -50.5t-81 -117t3 -152.5q26 -78 95 -123t153 -38q80 7 141 62.5t75 135.5q3 18 3 37q0 5 -5 20q-8 19 -27.5 23.5t-34.5 -8.5q-7 -5 -11 -12q-3 -3 -10 -22q-3 -5 -7 -15q-3 -3 -4 -2q-4 0 -6 4q-3 19 -4.5 56t5 75.5t23.5 39.5q77 8 135 -17
q73 -32 110.5 -104.5t14.5 -155.5q-36 -132 -172 -159q-15 -4 -62 -6h-74q-28 -3 -29 -3q-28 -6 -34 -33q-2 -5 -4 -32v-129q0 -16 2 -24q2 -13 8 -24q8 -14 24.5 -17.5t29.5 5.5q15 11 17 23q5 15 5 28q1 10 1 29v29q0 20 1 29q3 22 25 25q10 2 16 2q33 0 64 -14
q37 -17 69 -46q29 -27 56 -61q24 -32 36 -45q27 -30 49 -51q25 -25 58 -40q32 -14 64 -13q44 3 73 35q10 12 12 21q10 24 -9 41q-18 18 -42 9q-5 -2 -14.5 -6.5t-11.5 -5.5q-18 -10 -40 0q-19 10 -39 30q-28 27 -58 65q-41 52 -71 81q-6 5 -16 19q-4 5 -3 11.5t6 10.5
q10 10 15 14q25 17 30 22q69 55 97 137.5t9 167t-81 147.5q-87 89 -211 92h-108zM287 484v-99q0 -19 -2 -29q-2 -23 -27 -28q-8 -1 -24 -1q-54 3 -94 38t-51 88q-11 52 15 100t75 70q35 16 76 13q29 -2 31 -32q1 -9 1 -29v-91z" />
    <glyph glyph-name="S" unicode="S" horiz-adv-x="636" 
d="M256 -59q99 0 170 46q62 43 94 110t24.5 141.5t-54.5 135.5q-32 40 -57 59q-17 14 -60 45q-8 6 -25 17.5t-25 17.5q-20 14 -37 33q-11 13 -17 29q-7 16 -1 32t22 24q31 19 57 -8q4 -5 12 -17q2 -2 7 -9t8 -10q19 -19 42 -10q22 8 27 34q2 17 -6 32q-35 79 -119 83
q-76 3 -117.5 -60.5t-9.5 -132.5q17 -37 50 -65q26 -22 59 -45l48 -33q35 -24 59 -52q34 -37 46 -78q17 -59 -6.5 -116.5t-79 -91t-122.5 -23.5q-97 15 -139.5 103t5.5 173q3 6 9 15t8 13q8 13 10 23q9 27 -16 43q-21 12 -44 0q-9 -5 -15 -13q-16 -19 -27 -37
q-30 -54 -35.5 -113t13 -110.5t52 -93.5t84 -66.5t106.5 -24.5z" />
    <glyph glyph-name="T" unicode="T" horiz-adv-x="693" 
d="M413 250v-269q0 -28 1 -42q0 -11 5 -24q11 -23 36 -24q12 -1 23 6.5t15 19.5q4 16 4 25q1 16 1 49v514q0 27 1 41q0 14 2 21q2 19 22 21q5 1 14.5 1.5t14.5 0.5h45q29 0 53 10q79 35 92 119q3 21 -5 36q-12 22 -32 23q-26 2 -38 -20q-4 -6 -7 -16l-6 -19q-13 -41 -58 -46
q-15 -1 -46 -1q-12 0 -52.5 2t-62.5 2q-32 1 -96 -1q-52 -3 -110 -19q-64 -19 -109 -57q-76 -61 -105.5 -155t-1.5 -188q28 -95 103 -158t173 -73q16 -2 33 0q12 2 23 8q18 11 18 33t-18 33q-10 6 -23 9q-5 1 -14.5 2t-13.5 2q-90 12 -147 77q-77 88 -57 196q26 142 162 187
q47 16 118 18q11 0 16 -1q23 -4 25 -24q2 -28 2 -42v-277z" />
    <glyph glyph-name="U" unicode="U" horiz-adv-x="883" 
d="M750 364v187q0 25 4 45q6 36 41 48q1 1 20 6l15 6q26 13 23 41q-1 12 -9.5 22t-20.5 12q-17 3 -29 2q-40 -5 -72 -30q-52 -42 -56 -107q-1 -9 -1 -54q-1 -113 -1 -339q0 -39 -1 -46q-6 -55 -45 -92t-92 -40q-53 -2 -94.5 30t-54.5 84q-1 5 -2.5 14.5t-2.5 14.5
q-5 15 -7 19q-11 24 -37 22q-13 0 -23 -8t-13 -20q-2 -9 -4 -25q0 -25 10 -57q26 -80 96.5 -124.5t155.5 -33.5t140.5 73.5t58.5 142.5q1 15 1 46v161zM275 727v-1h-14.5h-17h-14.5q-113 -8 -177 -94q-94 -126 -20 -261q71 -135 225 -126q151 10 211 155q15 34 15 73
q-2 18 -4 24q-7 20 -28 25.5t-37 -8.5q-8 -8 -12 -16q-2 -3 -5 -9.5t-5 -9.5t-6 -3q-5 2 -5 6q-4 9 -6 49v116q0 25 -2 37q-5 36 -41 41q-10 2 -16 2h-41zM290 486v-99q-3 -28 -3 -29q-3 -18 -21 -24q-10 -3 -24 -3q-49 0 -89 29t-56 75q-17 47 -1.5 95.5t55.5 78.5
q47 36 109 31q1 -1 4 -1.5t4 -0.5q16 -5 19 -20q2 -9 2 -29q1 -34 1 -103z" />
    <glyph glyph-name="V" unicode="V" horiz-adv-x="762" 
d="M481 480q1 -24 -5 -50q-42 -150 -187 -178q-149 -30 -244 95q-19 25 -32 62q-13 32 -12.5 72t5 58.5t8.5 27.5q26 71 84 114t134 47q42 2 83 0q58 0 58 -59q0 -64 1 -95v-14.5v-17v-14.5q0 -3 1 -24t2 -30q0 -5 5 -5q4 -2 6 3q2 4 7 15.5t7 15.5q5 8 14 15q14 12 33 7.5
t26 -22.5q4 -10 6 -23zM672 596v33q1 33 0 33q0 16 -3 29q-7 31 -39 31q-31 0 -39 -31q-3 -9 -3 -20q0 -6 -1 -18.5t-1 -18.5q-2 -103 -16 -198q-20 -128 -63 -227q-25 -58 -62 -102q-14 -18 -37 -39q-4 -4 -14 -8q-4 -2 -10 1t-8 8q-3 15 -3 16q-1 8 -1 23t-1 22
q0 14 -3 29q-9 31 -39 31q-14 0 -25 -8t-14 -22q-4 -15 -4 -33v-40.5v-47.5v-40q0 -17 2 -25q4 -21 18.5 -31.5t35.5 -7.5q12 3 28 8q23 9 55 28q49 33 82 75q53 63 86 145q30 69 47 151q26 118 32 254zM288 387v100v103q0 16 -3 29q-3 15 -19 20q-2 1 -8 1q-85 8 -136 -55
q-59 -73 -22 -159q35 -83 131 -94q18 -2 33 4q17 5 22 23q2 9 2 28z" />
    <glyph glyph-name="W" unicode="W" horiz-adv-x="1030" 
d="M482 480q2 -19 -5 -49q-42 -151 -187 -179q-149 -30 -245 95q-19 26 -32 63q-6 15 -9 31t-3.5 31t0.5 29t3 26t4 20t4 15l2 6q26 71 84.5 114t134.5 47q14 1 83 1q58 0 58 -60q0 -16 0.5 -48t0.5 -47v-14.5v-17v-14.5q0 -3 1 -24t2 -30q0 -3 5 -6q5 0 7 4t6.5 16t6.5 15
q8 11 14 15q15 12 33.5 7.5t26.5 -22.5q3 -7 5 -24zM930 581q0 56 -1 83q0 16 -3 29q-6 22 -27 29q-16 5 -30.5 -2.5t-19.5 -23.5q-3 -8 -5 -37q-6 -126 -6 -128q-10 -132 -40 -241q-17 -60 -42 -113q-52 -105 -128 -149q-26 -15 -21 -45q2 -14 4 -21q3 -13 12.5 -18.5
t21.5 -1.5q16 6 23 10q35 17 64 45q54 49 92 123q39 72 63 166q31 118 43 295zM674 597v67q0 14 -3 28q-6 30 -39 32q-31 0 -39 -31q-2 -7 -4 -21q0 -6 -0.5 -18.5t-0.5 -18.5q-1 -92 -16 -198q-19 -125 -64 -228q-26 -59 -61 -103q-6 -7 -38 -39q-2 -2 -14 -7q-13 -4 -17 8
q-4 10 -4 16q-1 15 -1 46q-2 20 -4 28q-4 14 -14.5 23t-24.5 9t-25 -8.5t-14 -21.5q-4 -15 -4 -33q-1 -65 0 -129q0 -17 2 -25q3 -21 18 -31.5t36 -6.5q10 1 28 7q27 10 55 28q48 32 83 75q51 64 86 146q28 69 47 151q26 120 32 255zM289 388v100v103q0 15 -3 29
q-3 15 -19 20q-1 1 -4 1.5t-4 0.5q-85 6 -136 -56q-60 -73 -23 -160q37 -84 132 -93q20 -2 33 3q18 6 22 23q2 20 2 29z" />
    <glyph glyph-name="X" unicode="X" horiz-adv-x="993" 
d="M282 728h-8h-9h-8q-83 -5 -145 -43q-73 -43 -99 -118q-23 -69 -6 -139q19 -78 80.5 -128t140.5 -55q82 -4 147.5 41t92.5 120q14 39 13 69q0 8 -4 24q-10 24 -34 26q-29 3 -40 -24q-1 -2 -6 -20q-5 -27 -7 -37q-17 -57 -67.5 -89t-108.5 -21q-59 11 -95 58t-32 106
q5 69 61 108q23 16 56 26q55 15 103 9q62 -6 121 -40q96 -57 158 -166q1 -1 1.5 -3t1.5 -4l2 -4q6 -18 -2 -32q-8 -12 -24 -34l-235 -300q-20 -26 -30 -40t-11 -31q0 -23 18 -35q20 -12 40 -2q8 4 16 12q1 1 19 22l82 105q41 53 125 159q13 18 27 32q7 7 16.5 5.5
t13.5 -11.5q4 -12 10 -36l18 -89q5 -25 17 -73q12 -43 33 -80q15 -28 39 -48q45 -37 105 -21q15 5 26 14q21 20 11 45q-9 23 -35 25h-29q-20 0 -32 15q-14 18 -18 28q-11 26 -18 51q-8 26 -17 73q-25 123 -43 181l-3 12q-6 21 6 39q14 20 28 37l132 170q16 20 25 33
q8 14 10 22q8 24 -12 41q-19 16 -43 6q-5 -3 -17 -12q-1 -1 -22 -25l-114 -147q-16 -20 -25 -28q-8 -8 -17 -8t-15 8q-16 20 -23 30q-56 75 -124 121q-101 70 -217 70z" />
    <glyph glyph-name="Y" unicode="Y" horiz-adv-x="815" 
d="M705 421v216q0 25 -1 37q-2 14 -4 20q-4 13 -14.5 20.5t-22.5 7.5q-33 0 -40 -30q-3 -12 -3 -25q-1 -16 -1 -49v-369q0 -28 -2 -41q-2 -22 -23 -26q-60 -7 -103 7q-55 18 -85 69q-17 28 4 53q3 4 10.5 12.5t10.5 12.5q42 53 50 122q2 21 -2 36q-6 19 -25 27t-35 -3
q-9 -6 -15 -15q-3 -4 -7 -12.5t-7 -12.5q-2 -2 -4 -1q-5 3 -6 4q-4 16 -4 24q-2 50 -2 74v83q0 64 -62 65q-50 0 -75 -1q-27 -2 -49 -7q-150 -39 -181 -184q-31 -146 89 -242q68 -54 164 -49q22 2 33 2q15 1 25 -12q4 -5 10 -15.5t10 -15.5q48 -71 126 -96q17 -5 53 -11
q5 -1 16 -2.5t16 -2.5q8 -1 10.5 -9.5t-2.5 -13.5q-9 -10 -18 -17q-34 -22 -77 -27q-15 -1 -46 -1q-9 -1 -27 -1h-27q-15 -2 -28 -6q-24 -10 -24 -36q0 -25 23 -36q11 -6 24 -6q83 -4 124 2q93 13 155 80t68 161q1 15 1 46v194zM289 485q0 -64 -1 -96q0 -19 -1 -29
q-3 -23 -26 -28q-22 -4 -50 1q-56 12 -91 56.5t-32 102.5q2 57 41.5 99t96.5 47q6 1 33 1q25 -2 28 -26q1 -10 1 -29q1 -33 1 -99z" />
    <glyph glyph-name="Z" unicode="Z" horiz-adv-x="718" 
d="M464 519q15 -11 15.5 -40t-5.5 -53l-7 -23q-1 -3 -3.5 -10t-4.5 -10q-29 -60 -90.5 -101t-146.5 -35q-71 5 -128.5 49.5t-80.5 113.5q-24 70 -4.5 141t75.5 119q62 53 148 58q0 1 39 0h39v1q50 0 75 -1q16 0 28 -4q16 -4 24.5 -17.5t5.5 -29.5q-1 -13 -6 -24
q-7 -17 -17 -38l-81 -186l-15 -39v-12q0 -4 4.5 -6.5t7.5 -0.5q7 3 14 8q32 28 42 75q1 4 2 12t2 12q2 14 5 21q5 16 21 23.5t32 1.5zM222 377q46 103 94 215q4 8 8 28q1 4 -2 9.5t-8 7.5q-2 1 -7 2.5t-8 1.5h-33v1q-5 0 -19.5 -0.5t-22.5 -1.5q-59 -6 -99 -52
q-48 -60 -35.5 -129t71.5 -104q10 -6 23 -9q16 -3 26 10q8 9 12 21zM288 -61h99q52 0 79 1q22 0 41 4q89 25 109 118q5 20 -2 36q-8 25 -32 29q-29 5 -41 -21q-5 -8 -6 -16q-2 -4 -4.5 -12t-3.5 -11q-12 -31 -45 -39q-11 -3 -33 -3q-118 -1 -236 0q-9 0 -25 2q-8 2 -13 9.5
t-3 15.5q4 14 11 31q18 40 26 61q7 18 6 32q-2 26 -24 35q-23 10 -43 -8q-2 -2 -10 -12q-5 -8 -10 -19l-66 -151q-5 -16 -8 -28q-4 -19 6 -34t29 -18q12 -2 37 -2h162z" />
    <glyph glyph-name="bracketleft" unicode="[" horiz-adv-x="315" 
d="M117 627q-36 0 -54 -1q-13 0 -25 -3q-29 -8 -35 -37q-2 -8 -2 -25q-1 -14 -1 -41v-555q0 -28 1 -42q0 -8 2 -24q8 -30 36 -37q15 -3 16 -3h120q12 1 24 6q29 12 26 43q-2 28 -28 37q-6 3 -20 5q-5 0 -16 1t-17 1q-17 0 -25 2q-22 2 -24 24q-2 20 -2 29v472q0 9 2 29
q1 10 8 16.5t16 7.5q13 2 38 2q4 0 10.5 0.5t12 1t10.5 1.5q33 7 35 40q1 17 -8.5 29.5t-25.5 16.5q-12 3 -25 3q-16 1 -49 1z" />
    <glyph glyph-name="backslash" unicode="\" horiz-adv-x="574" 
d="M442 -90q18 -1 31 13.5t11 32.5q-1 12 -8 23q-9 18 -23 39q-121 192 -363 574q-12 20 -21 30q-6 9 -19 16q-24 11 -43 -4q-21 -16 -16 -40q1 -12 8 -23q6 -14 19 -32l360 -570q7 -11 21 -31q7 -9 17 -18q10 -10 26 -10z" />
    <glyph glyph-name="bracketright" unicode="]" horiz-adv-x="305" 
d="M215 250v178l1 64q0 65 -1 65q0 25 -3 37q-4 27 -35 37q-12 3 -24 3h-104q-6 0 -20 -2q-18 -4 -29 -17t-10 -30q1 -16 12 -27.5t28 -13.5q13 -2 37 -2q24 -2 33 -4q17 -3 20 -19q2 -11 2 -33v-472q0 -19 -1 -29q-3 -22 -25 -24q-1 0 -41 -3q-27 -2 -33 -4q-30 -7 -32 -39
q-1 -14 8 -27t23 -17q17 -5 33 -5h95h12q50 6 53 53q1 7 1 45v286z" />
    <glyph glyph-name="asciicircum" unicode="^" horiz-adv-x="438" 
d="M307 382q18 0 30.5 14t10.5 33q-4 17 -10 27q-9 15 -29 45l-80 120q-12 18 -22 30q-17 19 -38 19t-37 -19q-8 -8 -12 -16l-105 -169q-6 -11 -11 -22q-2 -4 -4 -16q-3 -28 23 -41q20 -12 43 3q11 8 24 28q16 25 48 77q9 13 20 26q5 5 13.5 5t12.5 -5q11 -11 18 -22
q10 -14 28 -41.5t23 -34.5q9 -13 24 -28q12 -13 30 -13z" />
    <glyph glyph-name="underscore" unicode="_" horiz-adv-x="667" 
d="M288 30h-177q-5 0 -20.5 -0.5t-24.5 -1.5q-19 -2 -33 -6q-33 -12 -33 -40q1 -27 37 -39q17 -6 56 -6h341h63q26 2 39 5q18 4 29.5 15.5t11.5 25.5t-11 25.5t-29 15.5t-27 5q-15 1 -46 1h-176z" />
    <glyph glyph-name="a" unicode="a" horiz-adv-x="524" 
d="M434 42q-3 15 -4 18q-3 11 -11 31l-138 342q-10 24 -12 26q-6 10 -14 20q-11 12 -28 12t-28 -11q-8 -8 -15 -20q-4 -7 -16 -33q-12 -27 -48 -107t-56 -123q-8 -19 -24.5 -55t-24.5 -55q-7 -13 -14 -39q-2 -11 1 -20q7 -22 29 -27t38 11q14 14 21 31q13 31 49 31h8h141
q16 0 24 -2q18 -2 27 -18q1 -3 4.5 -10.5t6.5 -11.5q9 -14 18 -22q19 -17 42 -6t24 38zM222 159q-47 3 -49 3q-9 1 -13.5 9t-2.5 16q2 11 6 19l39 86q0 2 2 4t2 4q9 15 19 12q10 -1 15 -12q17 -37 37 -88q2 -4 4.5 -12t3.5 -11q2 -10 -3 -18t-15 -9q-10 -2 -29 -2h-16v-1z
" />
    <glyph glyph-name="b" unicode="b" horiz-adv-x="566" 
d="M180 0h107q32 2 50 4q46 8 78 37q40 36 53.5 83.5t1.5 91.5t-44 76q-3 2 -5.5 5t-6 6.5l-5.5 5.5q-14 14 -12 34q5 28 5 33q4 48 -26.5 84.5t-78.5 43.5q-8 1 -24 1h-207q-16 0 -29 -3q-24 -4 -32 -29q-4 -14 -4 -20q-1 -10 -1 -29v-344q0 -22 1 -33q2 -17 12 -29t26 -15
q17 -3 33 -3h108zM194 348h-45h-25q-40 3 -36 44q0 2 2 8q5 13 17 16q11 4 24 4h128q8 0 20 -2q14 -4 19 -8q16 -9 15 -27.5t-17 -26.5t-32 -8h-70zM215 86h-74q-5 0 -13 0.5t-12 0.5q-28 3 -28 31q-2 53 0 107q0 5 1 8q3 19 22 22q12 2 17 2q113 0 169 -1q14 0 29 -3
q25 -7 42.5 -27.5t19.5 -46.5q1 -27 -12.5 -50t-37.5 -34q-19 -8 -44 -8h-79v-1z" />
    <glyph glyph-name="c" unicode="c" horiz-adv-x="525" 
d="M241 496q-3 0 -16 -1.5t-21 -2.5q-73 -13 -127 -65t-71 -124q-17 -76 12 -148t88 -111q124 -83 258 -17q16 7 49 32q13 9 20 31q6 20 -8.5 36.5t-35.5 12.5q-12 -1 -23 -8l-27 -19q-41 -27 -90 -27q-50 0 -91.5 28t-59.5 75q-19 48 -6.5 97.5t50.5 83.5t87.5 39.5
t94.5 -17.5q10 -6 28 -18l17 -12q34 -20 56 7q23 26 -4 57q-12 13 -31 27q-62 43 -149 44z" />
    <glyph glyph-name="d" unicode="d" horiz-adv-x="559" 
d="M0 254v-174q0 -24 4 -41q6 -30 36 -36q16 -2 24 -2q15 -1 46 -1q97 0 124 2q129 9 198 119q52 82 33 178t-98 154q-64 49 -142 49q-54 1 -161 1q-7 0 -21 -2q-35 -5 -41 -41q-2 -24 -2 -37v-169zM176 87h-49q-14 2 -21 4q-13 3 -16 17q-3 12 -3 24v75v153q0 22 2 33
q2 18 21 22q3 1 9 2t7 1q61 0 91 -1q43 0 80 -21q47 -26 70 -76t12 -103q-11 -52 -51.5 -88t-93.5 -41q-11 -1 -31.5 -1.5t-26.5 -0.5v1z" />
    <glyph glyph-name="e" unicode="e" horiz-adv-x="526" 
d="M0 249v-166q0 -25 1 -37q3 -36 38 -43q17 -3 33 -3h295q17 0 32 3q17 3 28 17q13 15 7 35q-9 24 -33 28q-21 3 -41 3h-212q-11 0 -37 2q-22 4 -24 25q-1 33 0 66q2 24 28 26q10 1 29 1h100q22 0 33 1q8 0 24 4q14 4 22.5 15.5t7.5 24.5q-2 29 -29 37q-12 4 -20 4
q-11 1 -33 1h-104q-5 1 -16 1t-17 1q-22 3 -24 24q-4 31 -1 66q3 24 28 26q13 1 37 1q67 1 199 1q25 0 38 1q8 0 20 5q24 9 25 34q2 30 -24 40q-13 5 -24 5q-14 2 -41 2h-179h-91q-4 0 -10.5 -0.5t-12 -1t-10.5 -1.5q-35 -6 -40 -41q-2 -24 -2 -37v-170z" />
    <glyph glyph-name="f" unicode="f" horiz-adv-x="525" 
d="M0 246v-170q0 -13 2 -37q1 -13 11 -26q12 -14 31.5 -13.5t29.5 15.5q7 10 9 23q2 8 2 25q1 13 1 39v40q0 22 1 33q4 22 24 25q22 2 33 2h116q22 0 33 2q17 3 28 15t10 27t-11 26t-25 13q-17 3 -33 3h-112q-22 0 -33 1q-28 3 -30 29q-2 30 0 62q2 25 26 27q26 2 38 2h203
q24 0 37 1q14 2 20 5q23 11 24 36q0 28 -27 38q-6 2 -16 4q-8 1 -24 1h-295q-19 0 -29 -1q-37 -6 -42 -44q-2 -12 -2 -37v-166z" />
    <glyph glyph-name="g" unicode="g" horiz-adv-x="555" 
d="M356 289h-49h-9q-17 -2 -31 -10q-18 -11 -18 -33t18 -33q11 -8 27 -10q27 0 41 -1q13 0 25 -3q15 -4 18 -20q5 -24 -11 -43q-13 -14 -28 -25q-50 -34 -110 -26.5t-101 52.5q-40 44 -41.5 103t35.5 106q37 48 96.5 59.5t111.5 -19.5q6 -3 15 -9.5t13 -8.5q9 -7 18 -11
q25 -10 45 10q17 19 8 43q-4 9 -11 17q-11 13 -39 31q-85 52 -181.5 31.5t-152.5 -101.5q-69 -102 -34 -215t141 -157q87 -34 170 -8q11 3 39 16q50 21 90 77q13 18 13 38q1 52 0 104q0 1 -0.5 3.5t-0.5 4.5q-8 27 -33 34q-14 4 -24 4h-50z" />
    <glyph glyph-name="h" unicode="h" horiz-adv-x="529" 
d="M439 245v162q0 24 -1 37q0 11 -5 24q-11 23 -36 23q-23 0 -34 -20q-7 -11 -8 -23t-1 -37v-112q-2 -20 -4 -29q-1 -13 -16 -17q-18 -4 -29 -4h-170q-11 0 -16 1q-28 3 -31 32v33q0 64 -1 96q0 22 -1 33q0 6 -4 20q-10 27 -38 27t-38 -27q-4 -16 -5 -24q-1 -14 -1 -42v-311
q0 -25 1 -37q0 -11 2 -16q8 -27 34 -33q26 -5 42 20q6 9 8 23q0 36 1 54q0 25 1 37q2 23 24 26q6 1 17 1t16 1h149q14 0 21 -1q20 -1 28 -9t9 -29q1 -23 1 -67q0 -12 3 -24q3 -13 14 -22.5t24 -10.5q29 0 39 26q4 10 4 16q1 12 1 37v166z" />
    <glyph glyph-name="i" unicode="i" horiz-adv-x="445" 
d="M178 500h-99q-23 0 -34 -1q-14 -2 -23 -7q-22 -13 -21 -38q2 -23 23 -32q8 -4 19 -6q10 -1 29 -1q22 0 33 -1q26 -3 29 -30q0 -3 0.5 -8.5t0.5 -8.5v-232q0 -6 -2 -20q-2 -25 -26 -27q-11 -2 -33 -2q-5 0 -16 -1t-17 -1q-22 -3 -35 -21q-6 -7 -6 -19q2 -32 31 -40
q16 -4 36 -4h224q16 0 24 2q12 2 20 7q16 8 19.5 27.5t-13.5 34.5q-13 12 -30 13q-6 1 -18.5 1.5t-18.5 0.5q-9 0 -29 2q-19 4 -21 22q-3 20 -3 37v207q0 14 1 21q1 22 9.5 30.5t31.5 9.5q27 0 41 1q15 0 24 4q24 9 26 34q1 14 -6.5 25.5t-21.5 16.5q-12 4 -37 4h-111z" />
    <glyph glyph-name="j" unicode="j" horiz-adv-x="471" 
d="M381 303v39v45.5v39.5q0 22 -2 33q-6 29 -36 35q-15 3 -29 3h-182q-17 0 -25 -2q-7 -1 -19 -7q-20 -13 -19 -35q0 -22 21 -33q9 -6 19 -7t29 -1h91q22 0 33 -1q32 -1 33 -35q1 -6 1 -20v-158q0 -11 -2 -33q-5 -27 -21 -44q-31 -35 -83 -35t-83 36q-9 11 -15 24
q-2 4 -4.5 13t-3.5 11q-4 16 -8 23q-11 20 -34 20q-25 0 -36 -23q-4 -7 -6 -24q-1 -20 10 -52q30 -73 108 -102q85 -32 165 9q54 28 77 73q21 40 21 79v129z" />
    <glyph glyph-name="k" unicode="k" horiz-adv-x="547" 
d="M0 245v-170q0 -25 2 -37q1 -15 12.5 -25.5t25.5 -12.5q14 -1 26.5 8.5t16.5 23.5q2 12 2 17q3 27 23 47l89 87q7 7 17 12q15 9 27 -3t21 -24q56 -72 94 -122q15 -20 33 -36q26 -21 50 -2q28 18 13 51q-6 12 -10 18l-20 26q-31 40 -91 118q-3 3 -8 10t-8 10
q-14 20 -13.5 32t16.5 29q14 14 21 20l92 90q16 16 22 30q9 24 -7 43q-20 22 -45 10q-10 -4 -21 -13q-5 -4 -13 -12t-11 -10q-94 -92 -139 -137q-82 -79 -83 -80t-22 -19q-7 -5 -14.5 -1.5t-8.5 10.5q-3 17 -3 33v141q0 25 -1 37t-6 24q-11 23 -36 23t-36 -24q-4 -9 -6 -19
q-1 -13 -1 -38v-165z" />
    <glyph glyph-name="l" unicode="l" horiz-adv-x="525" 
d="M0 247v-165q0 -25 1 -37q1 -15 11.5 -26.5t24.5 -14.5q7 -3 16 -3q10 -1 29 -1h273q23 0 33 1t24 7q25 10 23 36t-24 35q-7 4 -24 6q-11 1 -33 1h-203q-13 0 -37 2q-25 2 -27 26q-1 11 -1 33v129q0 99 -1 149q0 25 -3 37q-2 15 -14 24.5t-27 8.5q-30 -2 -38 -33
q-2 -12 -2 -20q-1 -13 -1 -37v-158z" />
    <glyph glyph-name="m" unicode="m" horiz-adv-x="651" 
d="M0 246v-154q0 -27 1 -41q0 -11 2 -16q8 -28 33 -34t43 19q7 12 8 24v41q1 28 1 83v83q0 17 3 37q1 5 8 8t12 0q7 -4 26 -26q60 -75 87 -106q13 -18 28 -30q28 -26 56 -1q10 8 26 26q42 52 63 77q26 32 40 48q4 5 16 13q3 1 8 -0.5t7 -4.5q5 -13 5 -15q1 -12 1 -37v-85
t1 -85q0 -25 2 -37t12 -21t22 -11q24 -4 40 17q8 11 9 23q0 5 0.5 16t0.5 17v340q0 22 -1 33q-2 10 -6 20q-6 16 -22.5 22t-32.5 -2q-10 -5 -17 -12q-1 -1 -9.5 -10.5t-12.5 -14.5l-83 -102q-16 -20 -61 -74q-8 -11 -20 -21q-15 -17 -33 1q-15 15 -24 28l-137 167
q-20 23 -25 27q-20 21 -45 13q-25 -7 -30 -41q-1 -3 -1.5 -10t-0.5 -10v-38v-144z" />
    <glyph glyph-name="n" unicode="n" horiz-adv-x="529" 
d="M439 246v157v37q-2 17 -5 24q-4 12 -14.5 19.5t-23.5 7.5q-25 0 -36 -24q-5 -12 -5 -24q-1 -12 -1 -37v-170q0 -19 -3 -37q-1 -8 -9 -11t-13 2q-21 19 -29 30q-23 26 -64 74t-55 64q-62 73 -86 100q-13 16 -27 26q-16 11 -35.5 5.5t-26.5 -24.5q-4 -14 -5 -20
q-1 -10 -1 -29v-344q0 -11 2 -33q1 -17 19 -31q10 -8 23 -8t23 8q19 16 19 35q1 11 1 33q1 19 1 56v56v42q-1 41 0 41l3 24q2 6 9 8t12 -2q16 -14 23 -23q68 -78 202 -236q15 -17 32 -32q7 -7 23 -9q15 -2 28.5 7.5t16.5 25.5q2 13 2 38v174z" />
    <glyph glyph-name="o" unicode="o" horiz-adv-x="568" 
d="M478 250q-1 102 -73 174.5t-175 73.5q-104 0 -177 -73t-73 -177q0 -100 72 -174.5t180 -73.5t177.5 76t68.5 174zM230 411q65 0 113.5 -47.5t47.5 -116.5q0 -67 -48.5 -114.5t-116.5 -46.5q-66 2 -112.5 49t-46.5 113q0 68 47.5 115.5t115.5 47.5z" />
    <glyph glyph-name="p" unicode="p" horiz-adv-x="535" 
d="M0 242v-174q0 -11 2 -33q1 -12 11 -22t22 -12q26 -5 42 19q8 13 8 24q0 27 1 41q1 22 9.5 30t31.5 10h33h87q39 3 46 4q66 11 108.5 61.5t43.5 118.5t-43 119.5t-107 62.5q-24 4 -37 4l-98 1q-97 0 -97 -1q-16 0 -28 -4q-28 -8 -32 -34q-3 -21 -3 -42v-173zM187 211h-54
q-3 1 -10 1t-11 1q-22 3 -25 24q0 2 -0.5 6.5t-0.5 6.5v120q1 20 9.5 28.5t28.5 9.5h137q13 0 28 -5q30 -9 49 -33.5t21 -55.5q1 -32 -17 -58.5t-48 -37.5q-21 -6 -41 -6q-22 -1 -66 -1z" />
    <glyph glyph-name="q" unicode="q" horiz-adv-x="650" 
d="M261 0q31 4 45 -0.5t40 -27.5q31 -30 79 -44q49 -13 97 6q6 2 18 10q8 5 16 18q9 20 -2 38.5t-33 18.5l-36 -6q-41 -9 -73 19q-7 6 -4 16q2 9 7 14q4 5 12 14t12 14q91 115 40 249q-35 93 -124.5 135t-183.5 11q-89 -28 -138.5 -111t-26.5 -185q24 -100 112 -153
q67 -40 143 -36zM139 204h-28q-16 0 -21 17q-4 9 -4 24q-2 52 29 96.5t81 61.5q51 17 102 0t82 -60q32 -45 30 -100.5t-36 -95.5q-19 -22 -33 -24.5t-36 16.5q-12 12 -29 24q-61 44 -137 41z" />
    <glyph glyph-name="r" unicode="r" horiz-adv-x="536" 
d="M0 246v-70v-112q0 -11 2 -29q2 -12 11.5 -22t21.5 -12q27 -5 42 20q6 9 8 23q0 30 1 45q3 32 33 35q4 1 13 1h95q3 0 8 -0.5t8 -0.5q20 -3 32 -18q5 -7 13 -21q4 -6 25 -43q10 -19 26 -32q12 -11 28.5 -9.5t27.5 13.5q15 17 8 38q-3 8 -9.5 21.5t-8.5 16.5q-3 6 -10 19
t-10 21q-6 16 5 27q4 5 26 27q73 82 39 185q-32 99 -139 122q-20 4 -46 4q-90 2 -182 0q-19 0 -29 -2q-32 -6 -37 -40q-2 -24 -2 -37v-170zM192 408h58q20 0 29 -2q33 -7 55.5 -31.5t23.5 -57.5q2 -35 -17 -62.5t-53 -37.5q-18 -5 -33 -5q-64 -1 -128 0q-9 0 -13 1
q-24 3 -27 26q0 2 -0.5 4.5t-0.5 3.5v125q0 4 2 12q3 19 22 22q12 2 20 2h62z" />
    <glyph glyph-name="s" unicode="s" horiz-adv-x="472" 
d="M195 -17q8 0 16 1q98 14 146 91q20 32 24 70t-12 77.5t-53 66.5q-22 16 -35 22q-10 5 -29 13.5t-23 10.5q-28 12 -42 19q-7 3 -20 14q-7 8 -7 19t7 19q16 16 37 14.5t35 -19.5q16 -24 19 -27q16 -21 41 -13q23 7 28 33q3 13 -2 28q-11 39 -45 63q-45 31 -101 21.5
t-88 -53.5q-20 -28 -22 -62t16 -63q16 -27 44 -42q23 -12 45 -21q12 -6 34 -15.5t27 -11.5q24 -14 34 -23q42 -36 18 -86q-4 -10 -13 -21q-26 -31 -69.5 -37.5t-77.5 15.5q-48 31 -37 85l6 25q2 10 1 16q0 25 -23 36q-22 10 -43 -6q-10 -9 -17 -24q-16 -36 -13 -72
q3 -69 53 -114q57 -50 141 -49z" />
    <glyph glyph-name="t" unicode="t" horiz-adv-x="521" 
d="M218 497h-133h-29l-20 -2q-34 -7 -36 -40q0 -33 34 -40q1 0 17 -3h25h41q36 1 46.5 -10t9.5 -48v-33v-228q0 -27 1 -41q0 -2 3 -20q8 -28 37 -30q28 -2 38 26q4 10 6 24q1 13 1 41v244v37q2 20 10 28t29 9q22 1 66 1q16 0 33 3q15 2 25 13.5t9 26.5q0 14 -9 24.5
t-23 14.5l-20 3h-33h-128z" />
    <glyph glyph-name="u" unicode="u" horiz-adv-x="589" 
d="M1 334v-74q1 -7 1 -21t1 -21q11 -93 79 -155q62 -56 141 -63q113 -12 198 65q58 52 73 132q6 33 6 66v153q0 19 -1 29q-2 14 -4 20q-10 28 -38 28t-38 -27q-4 -14 -4 -20q-1 -13 -1 -38q0 -93 -1 -140q0 -31 -2 -46q-10 -62 -58 -100.5t-108 -36.5q-62 2 -106.5 44.5
t-49.5 104.5q-1 6 -1 37v64t-1 64v33q0 14 -2 21q-2 18 -13.5 28.5t-26.5 11.5q-35 0 -42 -39q-2 -22 -2 -33v-87z" />
    <glyph glyph-name="v" unicode="v" horiz-adv-x="522" 
d="M0 446q0 -2 1.5 -9t2.5 -11l12 -31q12 -28 34 -84.5t34 -84.5q48 -118 71 -177q11 -25 24 -38q11 -10 26.5 -10.5t26.5 9.5q14 12 26 37q26 59 78.5 175.5t78.5 175.5q3 6 13 31q2 4 4 16q3 33 -25 43q-25 11 -46 -10q-10 -15 -11 -17q-2 -4 -4.5 -8.5t-5 -9.5t-3.5 -8
q-42 -94 -82 -182q-2 -4 -10.5 -23t-13.5 -29q-4 -9 -11 -17q-4 -5 -11 -5t-11 5q-5 6 -17 33q-10 27 -32 79.5t-32 78.5q-3 8 -9 22.5t-11 26.5t-10 23q-5 13 -16 29q-16 22 -45 13q-26 -10 -26 -43z" />
    <glyph glyph-name="w" unicode="w" horiz-adv-x="847" 
d="M504 161q-8 2 -12 5q-5 4 -8 9q-8 17 -24.5 52t-24.5 53q-10 20 1 44q1 3 3.5 8t5 9.5t4.5 8.5l30 58q9 19 13 31q8 31 -19 46q-28 17 -49 -7q-3 -3 -19 -27q-1 -2 -7 -10.5t-10 -12.5q-3 -4 -9.5 -4.5t-9.5 3.5q-8 10 -14 20q-2 3 -9 14t-12 17q-17 19 -42 11
q-30 -11 -27 -42q3 -17 9 -32q5 -10 14 -30t14 -30q8 -15 15 -34q7 -18 -1 -36q-1 -3 -3.5 -8.5t-3.5 -7.5l-45 -84q-1 -3 -4.5 -8t-4.5 -6l-3 -3t-2 -3q-12 -10 -23 1q-8 8 -21 36q-70 150 -106 225q-10 22 -16 33q-10 14 -15 20q-22 20 -46 6q-27 -14 -22 -41q4 -16 7 -24
q3 -7 6.5 -14.5t8 -16.5t6.5 -14q69 -149 143 -304q10 -22 22 -44q7 -10 16 -19q11 -10 26.5 -10t26.5 10q8 8 15 20q10 15 26 47q15 26 43 80q6 10 14 20q4 4 11.5 4t10.5 -4q5 -6 17 -28q10 -19 52 -109l10 -18q15 -22 37.5 -22t38.5 22l3.5 7t4.5 7q24 44 35 66
q68 128 151 286q9 16 19 37q4 10 6 24q2 24 -21 38q-21 12 -42 -3q-9 -6 -15 -15q-10 -16 -14 -25l-57 -106q-12 -23 -36.5 -69.5t-36.5 -69.5q-14 -26 -20 -31q-1 -1 -11 -6z" />
    <glyph glyph-name="x" unicode="x" horiz-adv-x="524" 
d="M394 0q19 0 32 16.5t5 35.5q-4 11 -12 22q-1 2 -23 29q-14 16 -42.5 49.5t-43.5 50.5q-17 21 -20 27q-9 16 0 31q6 10 14 20q32 38 49 57q19 23 59 69q14 18 19 32q6 22 -8 39q-15 16 -37 13q-15 -4 -22 -11q-14 -12 -26 -26l-78 -92q-4 -5 -12.5 -14t-12.5 -13
q-18 -16 -37 1q-7 7 -23 25q-50 58 -75 88q-16 18 -25 27q-11 9 -17 11q-24 11 -43 -5q-22 -19 -11 -45q4 -12 9 -18q16 -20 24 -29q14 -18 43.5 -52.5t44.5 -51.5q12 -14 20 -27q7 -12 -1 -27q-4 -9 -11 -17l-37 -45q-24 -27 -70 -81q-18 -22 -23 -35q-9 -24 9 -42
q17 -17 42 -9q8 1 14 8q19 14 35 34q52 62 78 92q4 5 14 15q21 22 43 2q1 -1 7 -8t9 -11q52 -60 78 -91q8 -10 35 -35q12 -9 27 -9z" />
    <glyph glyph-name="y" unicode="y" horiz-adv-x="522" 
d="M38 492q-15 -1 -26 -11.5t-12 -25.5q0 -15 4 -24q3 -7 17 -38q12 -23 51.5 -99t60.5 -118q5 -11 17 -33q12 -24 12 -52t2 -41q2 -18 7 -28q11 -24 37 -22q22 1 33 22q5 9 7 23q2 11 2 33q-3 38 20 75q8 13 22 39q10 17 116 202q15 27 16 29q6 14 7 23q5 29 -21 41
q-23 11 -43 -4q-7 -5 -17 -18q-3 -5 -9 -15.5t-8 -13.5q-15 -25 -44.5 -77t-44.5 -77q-5 -10 -17 -28l-9 -9q-3 -3 -9.5 -3t-9.5 4q-8 8 -10 12q-4 6 -22 40l-74 144q-14 24 -22 35q-12 15 -33 15z" />
    <glyph glyph-name="z" unicode="z" horiz-adv-x="523" 
d="M216 0h141q13 0 37 2q21 3 34 22q6 13 5 24q-5 25 -28 33q-14 4 -20 4q-13 1 -37 1h-145l-33 3q-8 2 -11 9.5t1 13.5q10 18 24 33q138 162 207 242l24 29q7 8 11 17q10 20 2.5 38.5t-28.5 24.5l-21 3q-9 1 -29 1h-269q-19 0 -29 -1l-20 -3q-30 -10 -32 -39q0 -14 8.5 -25
t22.5 -15q8 -2 24 -4h50q22 -1 66 -1h66q11 0 29 -4q6 -1 8.5 -8t-0.5 -12q-14 -20 -22 -30l-177 -207l-54 -63q-14 -18 -19 -32q-8 -25 11 -41q10 -10 26 -13q24 -2 37 -2h140z" />
    <glyph glyph-name="braceleft" unicode="{" horiz-adv-x="369" 
d="M94 -21v-13q4 -64 65 -88q33 -14 69 -12q12 2 20 4q29 8 31 39t-27 43q-1 0 -29 6q-15 5 -19 7q-12 5 -14 19q-2 12 1 20q1 7 12 44q17 58 18 64q16 63 -9 113q-12 25 -1 48q1 1 4 7q20 43 9 94q-3 13 -17 64l-15 51q-3 14 -2 25q0 14 13 20q3 1 23 7q20 4 28 8
q23 9 25 35q1 27 -22 41q-12 8 -28 8q-40 1 -77 -15q-54 -26 -58 -84q-2 -29 4 -54q2 -8 6.5 -24t6.5 -24q13 -39 15 -47q5 -18 6 -37q3 -35 -33 -46q-16 -4 -24 -5q-7 -1 -21 -1q-14 -2 -20 -4q-15 -4 -24.5 -15.5t-9.5 -26.5t9 -27t23 -16q7 -2 21 -4q5 -1 14.5 -1.5
t14.5 -0.5q14 -3 27 -8q22 -11 23 -33q0 -16 -1 -24q-2 -10 -11 -41q-3 -11 -10 -32.5t-8 -26.5q-8 -30 -8 -57z" />
    <glyph glyph-name="bar" unicode="|" horiz-adv-x="180" 
d="M0 316v-343q0 -28 1 -41q0 -17 7 -28q14 -22 37 -22q26 0 37 23q6 13 7 24q1 12 1 37v707q0 25 -1 37q-1 8 -7 24q-10 26 -40 24q-24 -2 -35 -25q-4 -10 -6 -24q-1 -15 -1 -45v-348z" />
    <glyph glyph-name="braceright" unicode="}" horiz-adv-x="359" 
d="M177 513q0 82 -78 105q-28 9 -57 8q-16 -2 -24 -5q-13 -5 -21 -17t-7 -25q2 -27 28 -38q4 -2 23 -7q3 -1 8 -2t9 -2t7 -2q14 -7 14 -20q2 -13 -1 -24q-2 -10 -7.5 -28t-7.5 -24q-12 -42 -17 -64q-10 -55 10 -97l6 -16q4 -14 0 -24q0 -1 -2 -7t-4 -9q-20 -44 -9 -101
q3 -18 13 -52q2 -7 7.5 -24.5t8.5 -27.5q2 -8 4 -28q1 -8 -4.5 -16t-13.5 -10q-3 -1 -7.5 -2t-8.5 -2l-8 -2q-20 -5 -24 -7q-25 -14 -24 -40q1 -27 27 -38q12 -5 20 -5q44 -3 81 14q53 25 57 81q3 19 -1 45q-3 14 -14 56q-2 7 -7.5 24.5t-8.5 27.5t-7 32q-3 40 34 50
q16 4 24 5q3 0 11.5 0.5t13.5 1.5q12 1 24 6q28 12 25 43q-2 27 -28 38q-12 4 -20 4q-5 1 -14.5 1.5t-14.5 1.5q-22 4 -32 9q-20 9 -22 32q-2 14 1 25q1 6 4.5 19t5.5 21q6 17 16 51q11 38 12 65z" />
    <glyph glyph-name="asciitilde" unicode="~" horiz-adv-x="671" 
d="M43 103q27 0 38 23q42 81 82 95q25 7 60 -11q17 -10 49 -34l24 -18t24 -16t28.5 -14.5t29 -9t33.5 -3.5t35 6q91 26 133 144q5 17 -2.5 33t-24.5 22q-16 6 -32.5 -1.5t-22.5 -24.5q-26 -76 -74 -90q-21 -6 -42 4t-57 37q-43 32 -60 41q-68 35 -127 17q-73 -23 -132 -137
q-8 -16 -3 -33.5t21 -24.5q9 -5 20 -5z" />
    <glyph glyph-name="exclamdown" unicode="&#xa1;" horiz-adv-x="212" 
d="M122 554q1 25 -16 43.5t-42 19.5q-26 1 -44.5 -16t-19.5 -42q-2 -26 16 -45t44 -19q25 -1 43 16.5t19 42.5zM16 192v-170q0 -25 2 -37q2 -15 7 -24q11 -22 37 -22q26 1 36 24q5 9 7 24q1 13 1 41v327q0 28 -1 42q-2 14 -7 23q-11 24 -36 24q-24 2 -37 -21q-5 -11 -7 -24
q-2 -12 -2 -37v-170z" />
    <glyph glyph-name="guillemotleft" unicode="&#xab;" horiz-adv-x="622" 
d="M246 10q19 0 31 14q13 13 12.5 30.5t-13.5 30.5l-171 163l171 163q13 12 13.5 29.5t-12.5 31.5q-12 13 -30 13t-31 -12l-203 -194q-13 -13 -13 -31q0 -17 13 -32l203 -194q14 -12 30 -12zM489 9q18 0 31 13q13 14 12.5 31.5t-13.5 29.5l-171 163l171 163q13 13 13.5 30.5
t-12.5 30.5q-12 13 -30 13.5t-31 -11.5l-203 -194q-13 -15 -13 -32q0 -18 13 -31l203 -194q13 -12 30 -12z" />
    <glyph glyph-name="periodcentered" unicode="&#xb7;" horiz-adv-x="213" 
d="M59 416q-25 -1 -42 -19t-17 -43q1 -25 18.5 -42.5t43.5 -17.5q25 -1 43.5 18.5t17.5 45.5q-2 25 -20.5 42t-43.5 16z" />
    <glyph glyph-name="guillemotright" unicode="&#xbb;" horiz-adv-x="618" 
d="M290 257q0 -19 -14 -31l-203 -195q-12 -12 -30 -12q-17 0 -31 14q-12 13 -11.5 30.5t13.5 30.5l170 163l-170 163q-13 12 -13.5 30t11.5 31q13 13 30.5 13.5t30.5 -12.5l203 -194q14 -12 14 -31zM514 280q14 -12 14 -31t-14 -31l-203 -195q-12 -12 -30 -12q-17 0 -31 14
q-12 13 -11.5 30.5t13.5 30.5l170 163l-170 163q-13 12 -13.5 30t11.5 31q13 13 30.5 13.5t30.5 -12.5z" />
    <glyph glyph-name="questiondown" unicode="&#xbf;" horiz-adv-x="429" 
d="M272 555q1 25 -16 42.5t-42 19.5q-26 1 -45 -16.5t-20 -43.5q0 -25 17 -43t42 -19q26 -1 44.5 16.5t19.5 43.5zM254 357h1v29q0 5 -1 8l-6 24q-10 26 -39 26q-28 0 -38 -27q-4 -11 -5 -20q0 -4 -1 -12t-1 -12q-3 -18 -19 -27q-5 -3 -16.5 -8t-16.5 -8
q-94 -50 -109.5 -154.5t59.5 -180.5q40 -39 92 -53q62 -14 113 11q37 17 56 50.5t16 74.5q-4 41 -31 73.5t-67 42.5q-24 6 -45 1q-23 -7 -29 -32q-5 -30 18 -43q3 -2 6 -3.5t7 -3t6 -2.5q19 -7 23 -10q22 -12 20 -38q-3 -21 -25 -30q-11 -5 -28 -5q-30 -1 -57 22
q-58 49 -44 118q15 71 89 93q7 2 25 4q43 11 47 55v11v14v12z" />
    <glyph glyph-name="Agrave" unicode="&#xc0;" horiz-adv-x="871" 
d="M503 768q20 0 33 15.5t9 34.5q-1 12 -8 23q-25 36 -77 108q-5 7 -15 14q-26 19 -50 2q-30 -20 -17 -51q6 -16 15 -29q20 -29 60 -85q15 -18 19 -21q12 -11 31 -11zM285 64v-75q0 -20 7 -32q11 -23 36 -23q13 -1 23.5 6.5t14.5 20.5q2 8 4 28v54q0 6 1 17t1 16q2 25 26 28
q14 2 20 2h216l24 -3q17 -5 21 -19q4 -18 4 -29q0 -1 1 -25t2 -37q0 -15 5 -32q8 -28 38 -28q12 0 22.5 7.5t14.5 20.5q5 12 5 24v45q-1 22 -5 71q-8 104 -34 199q-26 96 -73 180q-45 78 -111 138q-73 65 -152 91q-40 14 -60 16q-79 7 -136 -3q-88 -15 -144.5 -82.5
t-55.5 -156.5q1 -75 42 -135t110 -87q68 -28 140 -12t123 69q57 62 66 145q2 20 -5 36q-8 20 -29.5 24t-36.5 -11l-10 -13q-7 -12 -9 -14q-1 -3 -7 -3q-5 2 -5 6q-6 27 -4 94q0 44 41 24q42 -22 80 -58q55 -51 95 -124q41 -75 66 -179l3 -20q3 -29 -25 -32q-12 -1 -37 -1
h-215h-37l-21 -3q-31 -5 -38 -38q-2 -18 -2 -25v-62zM287 486q0 -69 -1 -103q0 -17 -1 -25q-5 -21 -24 -25q-18 -3 -33 -2q-82 6 -122.5 79.5t-1.5 146.5q48 85 147 82q4 0 12 -2q16 -5 19 -19q3 -16 3 -33v-99h2z" />
    <glyph glyph-name="Aacute" unicode="&#xc1;" horiz-adv-x="871" 
d="M569 911q2 32 -21 45q-22 13 -46 -1q-12 -9 -19 -17l-74 -105q-2 -3 -7 -15q-12 -32 14 -52q28 -19 54 2q9 7 18 17l69 98q6 10 8 15l2.5 7.5t1.5 5.5zM285 64v-75q0 -20 7 -32q11 -23 36 -23q13 -1 23.5 6.5t14.5 20.5q2 8 4 28v54q0 6 1 17t1 16q2 25 26 28q14 2 20 2
h216l24 -3q17 -5 21 -19q4 -18 4 -29q0 -1 1 -25t2 -37q0 -15 5 -32q8 -28 38 -28q12 0 22.5 7.5t14.5 20.5q5 12 5 24v45q-1 22 -5 71q-8 104 -34 199q-26 96 -73 180q-45 78 -111 138q-73 65 -152 91q-40 14 -60 16q-79 7 -136 -3q-88 -15 -144.5 -82.5t-55.5 -156.5
q1 -75 42 -135t110 -87q68 -28 140 -12t123 69q57 62 66 145q2 20 -5 36q-8 20 -29.5 24t-36.5 -11l-10 -13q-7 -12 -9 -14q-1 -3 -7 -3q-5 2 -5 6q-6 27 -4 94q0 44 41 24q42 -22 80 -58q55 -51 95 -124q41 -75 66 -179l3 -20q3 -29 -25 -32q-12 -1 -37 -1h-215h-37l-21 -3
q-31 -5 -38 -38q-2 -18 -2 -25v-62zM287 486q0 -69 -1 -103q0 -17 -1 -25q-5 -21 -24 -25q-18 -3 -33 -2q-82 6 -122.5 79.5t-1.5 146.5q48 85 147 82q4 0 12 -2q16 -5 19 -19q3 -16 3 -33v-99h2z" />
    <glyph glyph-name="Acircumflex" unicode="&#xc2;" horiz-adv-x="871" 
d="M315 821q0 -22 18.5 -35.5t39.5 -5.5q15 6 27 18l44 44q15 15 26 15t27 -14l40 -42q18 -16 27 -19q26 -11 46 6q21 18 14 45q-3 9 -9 18q-1 3 -12 16l-87 90q-3 3 -18 16q-28 19 -55 0q-12 -9 -21 -19l-81 -83q-6 -7 -18 -23q-8 -11 -8 -27zM285 64v-75q0 -20 7 -32
q11 -23 36 -23q13 -1 23.5 6.5t14.5 20.5q2 8 4 28v54q0 6 1 17t1 16q2 25 26 28q14 2 20 2h216l24 -3q17 -5 21 -19q4 -18 4 -29q0 -1 1 -25t2 -37q0 -15 5 -32q8 -28 38 -28q12 0 22.5 7.5t14.5 20.5q5 12 5 24v45q-1 22 -5 71q-8 104 -34 199q-26 96 -73 180
q-45 78 -111 138q-73 65 -152 91q-40 14 -60 16q-79 7 -136 -3q-88 -15 -144.5 -82.5t-55.5 -156.5q1 -75 42 -135t110 -87q68 -28 140 -12t123 69q57 62 66 145q2 20 -5 36q-8 20 -29.5 24t-36.5 -11l-10 -13q-7 -12 -9 -14q-1 -3 -7 -3q-5 2 -5 6q-6 27 -4 94q0 44 41 24
q42 -22 80 -58q55 -51 95 -124q41 -75 66 -179l3 -20q3 -29 -25 -32q-12 -1 -37 -1h-215h-37l-21 -3q-31 -5 -38 -38q-2 -18 -2 -25v-62zM287 486q0 -69 -1 -103q0 -17 -1 -25q-5 -21 -24 -25q-18 -3 -33 -2q-82 6 -122.5 79.5t-1.5 146.5q48 85 147 82q4 0 12 -2
q16 -5 19 -19q3 -16 3 -33v-99h2z" />
    <glyph glyph-name="Atilde" unicode="&#xc3;" horiz-adv-x="871" 
d="M528 807q6 0 20 2q57 11 80 67q8 16 1 33t-23 24t-33 0t-24 -23q-6 -14 -17 -16q-9 -2 -37 14q-15 10 -32 17q-90 40 -149 -51q-10 -15 -6 -32.5t19 -27.5t32 -6t27 19q13 19 22 22q8 3 21 -3q9 -4 22 -12q45 -27 77 -27zM285 64v-75q0 -20 7 -32q11 -23 36 -23
q13 -1 23.5 6.5t14.5 20.5q2 8 4 28v54q0 6 1 17t1 16q2 25 26 28q14 2 20 2h216l24 -3q17 -5 21 -19q4 -18 4 -29q0 -1 1 -25t2 -37q0 -15 5 -32q8 -28 38 -28q12 0 22.5 7.5t14.5 20.5q5 12 5 24v45q-1 22 -5 71q-8 104 -34 199q-26 96 -73 180q-45 78 -111 138
q-73 65 -152 91q-40 14 -60 16q-79 7 -136 -3q-88 -15 -144.5 -82.5t-55.5 -156.5q1 -75 42 -135t110 -87q68 -28 140 -12t123 69q57 62 66 145q2 20 -5 36q-8 20 -29.5 24t-36.5 -11l-10 -13q-7 -12 -9 -14q-1 -3 -7 -3q-5 2 -5 6q-6 27 -4 94q0 44 41 24q42 -22 80 -58
q55 -51 95 -124q41 -75 66 -179l3 -20q3 -29 -25 -32q-12 -1 -37 -1h-215h-37l-21 -3q-31 -5 -38 -38q-2 -18 -2 -25v-62zM287 486q0 -69 -1 -103q0 -17 -1 -25q-5 -21 -24 -25q-18 -3 -33 -2q-82 6 -122.5 79.5t-1.5 146.5q48 85 147 82q4 0 12 -2q16 -5 19 -19
q3 -16 3 -33v-99h2z" />
    <glyph glyph-name="Adieresis" unicode="&#xc4;" horiz-adv-x="871" 
d="M558 933q-25 -1 -42.5 -18.5t-17.5 -43.5q1 -25 18.5 -42.5t42.5 -17.5q26 -1 44.5 18t17.5 46q-2 25 -20 42t-43 16zM449 872q0 26 -17.5 43.5t-43.5 17.5t-43.5 -17t-18.5 -42q-1 -26 18 -45.5t45 -18.5q25 1 42 19t18 43zM285 64v-75q0 -20 7 -32q11 -23 36 -23
q13 -1 23.5 6.5t14.5 20.5q2 8 4 28v54q0 6 1 17t1 16q2 25 26 28q14 2 20 2h216l24 -3q17 -5 21 -19q4 -18 4 -29q0 -1 1 -25t2 -37q0 -15 5 -32q8 -28 38 -28q12 0 22.5 7.5t14.5 20.5q5 12 5 24v45q-1 22 -5 71q-8 104 -34 199q-26 96 -73 180q-45 78 -111 138
q-73 65 -152 91q-40 14 -60 16q-79 7 -136 -3q-88 -15 -144.5 -82.5t-55.5 -156.5q1 -75 42 -135t110 -87q68 -28 140 -12t123 69q57 62 66 145q2 20 -5 36q-8 20 -29.5 24t-36.5 -11l-10 -13q-7 -12 -9 -14q-1 -3 -7 -3q-5 2 -5 6q-6 27 -4 94q0 44 41 24q42 -22 80 -58
q55 -51 95 -124q41 -75 66 -179l3 -20q3 -29 -25 -32q-12 -1 -37 -1h-215h-37l-21 -3q-31 -5 -38 -38q-2 -18 -2 -25v-62zM287 486q0 -69 -1 -103q0 -17 -1 -25q-5 -21 -24 -25q-18 -3 -33 -2q-82 6 -122.5 79.5t-1.5 146.5q48 85 147 82q4 0 12 -2q16 -5 19 -19
q3 -16 3 -33v-99h2z" />
    <glyph glyph-name="Aring" unicode="&#xc5;" horiz-adv-x="871" 
d="M571 895q1 53 -34 91t-88 40q-55 2 -93 -35t-40 -88q-1 -54 36 -92t90 -39q52 -1 89.5 35t39.5 88zM445 868q-13 0 -22 9t-10 22q0 13 9.5 22.5t22.5 8.5q11 -1 20 -9t10 -20q1 -13 -8 -22.5t-22 -10.5zM285 64v-75q0 -20 7 -32q11 -23 36 -23q13 -1 23.5 6.5t14.5 20.5
q2 8 4 28v54q0 6 1 17t1 16q2 25 26 28q14 2 20 2h216l24 -3q17 -5 21 -19q4 -18 4 -29q0 -1 1 -25t2 -37q0 -15 5 -32q8 -28 38 -28q12 0 22.5 7.5t14.5 20.5q5 12 5 24v45q-1 22 -5 71q-8 104 -34 199q-26 96 -73 180q-45 78 -111 138q-73 65 -152 91q-40 14 -60 16
q-79 7 -136 -3q-88 -15 -144.5 -82.5t-55.5 -156.5q1 -75 42 -135t110 -87q68 -28 140 -12t123 69q57 62 66 145q2 20 -5 36q-8 20 -29.5 24t-36.5 -11l-10 -13q-7 -12 -9 -14q-1 -3 -7 -3q-5 2 -5 6q-6 27 -4 94q0 44 41 24q42 -22 80 -58q55 -51 95 -124q41 -75 66 -179
l3 -20q3 -29 -25 -32q-12 -1 -37 -1h-215h-37l-21 -3q-31 -5 -38 -38q-2 -18 -2 -25v-62zM287 486q0 -69 -1 -103q0 -17 -1 -25q-5 -21 -24 -25q-18 -3 -33 -2q-82 6 -122.5 79.5t-1.5 146.5q48 85 147 82q4 0 12 -2q16 -5 19 -19q3 -16 3 -33v-99h2z" />
    <glyph glyph-name="AE" unicode="&#xc6;" horiz-adv-x="1305" 
d="M1193 308q26 -59 25 -121q-3 -111 -82.5 -188t-191.5 -77q-98 0 -173 62q0 -11 -5 -23q-4 -13 -14.5 -20.5t-22.5 -7.5q-30 0 -38 28q-5 17 -5 32q-1 9 -1.5 19.5t-1 23t-0.5 19.5q0 11 -4 29q-4 14 -21 19l-24 3h-216q-6 0 -20 -2q-24 -3 -26 -28q0 -5 -1 -16t-1 -17
v-54q-2 -20 -4 -28q-4 -13 -14.5 -20.5t-23.5 -6.5q-25 0 -36 23q-7 12 -7 32v75v62q0 7 2 25q7 33 38 38l21 3h37h215q25 0 37 1q28 3 25 32l-3 20q-25 104 -66 179q-40 73 -95 124q-38 36 -80 58q-41 20 -41 -24q-2 -67 4 -94q0 -4 5 -6q6 0 7 3q2 2 9 14l10 13
q15 15 36.5 11t29.5 -24q7 -16 5 -36q-9 -83 -66 -145q-51 -53 -123 -69t-140 12q-69 27 -110 87t-42 135q-1 89 55.5 156.5t144.5 82.5q57 10 136 3q20 -2 60 -16q79 -26 152 -91q66 -60 111 -138q37 -66 59 -134q23 34 55 60l27 20q22 18 13 43q-2 6 -6 16.5t-5 14.5
q-14 53 6 104t66 79q62 38 132.5 16.5t99.5 -86.5q9 -24 8 -40t-12.5 -27t-28.5 -10q-18 0 -29 14q-3 3 -7.5 10.5t-6.5 10.5q-1 1 -5.5 8.5t-7.5 11.5q-33 41 -82 25q-22 -8 -36.5 -26.5t-15.5 -41.5q-1 -24 12 -44t35 -28q10 -4 32 -8l32 -3q12 -3 25 -15
q12 -15 8.5 -33.5t-20.5 -26.5q-15 -7 -28 -8q-5 0 -21 -0.5t-25 -1.5q-69 -5 -118 -52q-43 -42 -54 -99t14 -111q25 -56 76.5 -86t111.5 -23q58 5 103 43.5t59 95.5q13 47 -1 98q-1 3 -5.5 15.5t-6.5 19.5q-4 14 -4 20q0 26 22 37q22 12 43 -4q11 -9 20 -26zM286 383
q1 34 1 103h-2v99q0 17 -3 33q-3 14 -19 19q-8 2 -12 2q-99 3 -147 -82q-39 -73 1.5 -146.5t122.5 -79.5q15 -1 33 2q19 4 24 25q1 8 1 25z" />
    <glyph glyph-name="Ccedilla" unicode="&#xc7;" horiz-adv-x="773" 
d="M671 111q20 -21 8 -46q-5 -10 -12 -17q-4 -4 -24 -22q-79 -62 -168 -80q7 -10 15 -17q18 -14 25 -22q51 -57 27 -127q-22 -67 -94 -84q-49 -11 -93 16t-57 76q-5 26 0 45q10 29 41 31q29 0 40 -24q1 -2 9 -23l3.5 -7t4.5 -7q10 -12 25 -12q23 0 29 19q4 10 1 21t-12 15
q-10 6 -30 14q-28 10 -31 40q-1 3 -3 35q0 5 1 7q-167 17 -272.5 131t-103.5 270q0 36 8 74q45 185 205 273q81 44 171 40q59 -3 108 -26q85 -39 115 -117t4 -156q-25 -75 -87.5 -118.5t-139 -41t-138.5 51.5q-22 18 -31 33q-10 15 -8.5 30.5t12.5 26.5q25 23 53 1
q6 -4 16.5 -13t12.5 -11q60 -45 129 -26q52 14 82 59.5t23 98.5q-7 60 -61 94q-62 37 -136 26q-78 -12 -140 -66q-72 -63 -97 -147q-51 -173 70 -303q92 -101 233 -99q92 1 170 55q4 3 15.5 12t17.5 13q14 10 22 13q24 8 42 -9z" />
    <glyph glyph-name="Egrave" unicode="&#xc8;" horiz-adv-x="616" 
d="M348 778q20 0 33 15.5t9 34.5q-1 12 -8 23q-25 36 -77 108q-5 7 -15 14q-26 19 -50 2q-30 -20 -17 -51q7 -16 15 -29q20 -29 60 -85q15 -18 19 -21q12 -11 31 -11zM272 -59q112 0 191.5 77t82.5 188q1 62 -25 121q-9 17 -20 26q-21 16 -43 4q-22 -11 -22 -37q0 -6 4 -20
q2 -7 6.5 -19.5t5.5 -15.5q14 -51 1 -98q-14 -57 -59 -95.5t-103 -43.5q-59 -6 -111 24t-77 85q-25 54 -14 111t54 99q49 47 118 52q9 1 25 1.5t21 0.5q13 1 28 8q17 8 20.5 26.5t-8.5 33.5q-13 13 -25 15l-32 3q-22 4 -32 8q-22 8 -35 28t-12 44q1 23 15.5 41.5t36.5 26.5
q49 16 82 -25q3 -4 7.5 -11.5t5.5 -8.5q2 -3 6.5 -10.5t7.5 -10.5q11 -14 29 -14q17 -1 28.5 10t12.5 27t-8 40q-29 65 -99.5 86.5t-132.5 -16.5q-46 -28 -66 -79t-6 -104q1 -4 5 -14.5t6 -16.5q9 -25 -13 -43l-27 -20q-48 -40 -74 -93.5t-26.5 -105.5t15.5 -103
q28 -82 98.5 -132t157.5 -50z" />
    <glyph glyph-name="Eacute" unicode="&#xc9;" horiz-adv-x="616" 
d="M423 923q2 32 -21 45q-22 13 -46 -1q-12 -9 -19 -17l-74 -105q-2 -3 -7 -15q-12 -32 14 -52q28 -19 54 2q9 7 18 17l69 98q6 10 8 15l2.5 7.5t1.5 5.5zM272 -59q112 0 191.5 77t82.5 188q1 62 -25 121q-9 17 -20 26q-21 16 -43 4q-22 -11 -22 -37q0 -6 4 -20
q2 -7 6.5 -19.5t5.5 -15.5q14 -51 1 -98q-14 -57 -59 -95.5t-103 -43.5q-59 -6 -111 24t-77 85q-25 54 -14 111t54 99q49 47 118 52q9 1 25 1.5t21 0.5q13 1 28 8q17 8 20.5 26.5t-8.5 33.5q-13 13 -25 15l-32 3q-22 4 -32 8q-22 8 -35 28t-12 44q1 23 15.5 41.5t36.5 26.5
q49 16 82 -25q3 -4 7.5 -11.5t5.5 -8.5q2 -3 6.5 -10.5t7.5 -10.5q11 -14 29 -14q17 -1 28.5 10t12.5 27t-8 40q-29 65 -99.5 86.5t-132.5 -16.5q-46 -28 -66 -79t-6 -104q1 -4 5 -14.5t6 -16.5q9 -25 -13 -43l-27 -20q-48 -40 -74 -93.5t-26.5 -105.5t15.5 -103
q28 -82 98.5 -132t157.5 -50z" />
    <glyph glyph-name="Ecircumflex" unicode="&#xca;" horiz-adv-x="616" 
d="M132 819q0 -22 18.5 -35.5t39.5 -5.5q15 6 27 18l14 14t16 16.5t14 13.5q15 15 26 15t27 -14l40 -42q18 -16 27 -19q26 -11 46 6q21 18 14 45q-3 9 -9 18q-1 3 -12 16l-87 90q-3 3 -18 16q-27 19 -55 0q-12 -9 -21 -19l-81 -83q-6 -7 -18 -23q-8 -11 -8 -27zM272 -59
q112 0 191.5 77t82.5 188q1 62 -25 121q-9 17 -20 26q-21 16 -43 4q-22 -11 -22 -37q0 -6 4 -20q2 -7 6.5 -19.5t5.5 -15.5q14 -51 1 -98q-14 -57 -59 -95.5t-103 -43.5q-59 -6 -111 24t-77 85q-25 54 -14 111t54 99q49 47 118 52q9 1 25 1.5t21 0.5q13 1 28 8
q17 8 20.5 26.5t-8.5 33.5q-13 13 -25 15l-32 3q-22 4 -32 8q-22 8 -35 28t-12 44q1 23 15.5 41.5t36.5 26.5q49 16 82 -25q3 -4 7.5 -11.5t5.5 -8.5q2 -3 6.5 -10.5t7.5 -10.5q11 -14 29 -14q17 -1 28.5 10t12.5 27t-8 40q-29 65 -99.5 86.5t-132.5 -16.5q-46 -28 -66 -79
t-6 -104q1 -4 5 -14.5t6 -16.5q9 -25 -13 -43l-27 -20q-48 -40 -74 -93.5t-26.5 -105.5t15.5 -103q28 -82 98.5 -132t157.5 -50z" />
    <glyph glyph-name="Edieresis" unicode="&#xcb;" horiz-adv-x="616" 
d="M366 889q-25 -1 -42.5 -18.5t-17.5 -43.5q1 -25 18.5 -42.5t42.5 -17.5q26 -1 44.5 18t17.5 46q-2 25 -20 42t-43 16zM257 828q0 26 -17.5 43.5t-43.5 17.5t-43.5 -17t-18.5 -42q-1 -26 18 -45.5t45 -18.5q25 1 42 19t18 43zM272 -59q112 0 191.5 77t82.5 188
q1 62 -25 121q-9 17 -20 26q-21 16 -43 4q-22 -11 -22 -37q0 -6 4 -20q2 -7 6.5 -19.5t5.5 -15.5q14 -51 1 -98q-14 -57 -59 -95.5t-103 -43.5q-59 -6 -111 24t-77 85q-25 54 -14 111t54 99q49 47 118 52q9 1 25 1.5t21 0.5q13 1 28 8q17 8 20.5 26.5t-8.5 33.5
q-13 13 -25 15l-32 3q-22 4 -32 8q-22 8 -35 28t-12 44q1 23 15.5 41.5t36.5 26.5q49 16 82 -25q3 -4 7.5 -11.5t5.5 -8.5q2 -3 6.5 -10.5t7.5 -10.5q11 -14 29 -14q17 -1 28.5 10t12.5 27t-8 40q-29 65 -99.5 86.5t-132.5 -16.5q-46 -28 -66 -79t-6 -104q1 -4 5 -14.5
t6 -16.5q9 -25 -13 -43l-27 -20q-48 -40 -74 -93.5t-26.5 -105.5t15.5 -103q28 -82 98.5 -132t157.5 -50z" />
    <glyph glyph-name="Igrave" unicode="&#xcc;" horiz-adv-x="570" 
d="M324 787q20 0 33 15.5t9 34.5q-1 12 -8 23q-25 36 -77 108q-5 7 -15 14q-26 19 -50 2q-30 -20 -17 -51q7 -16 15 -29q20 -29 60 -85q15 -18 19 -21q12 -11 31 -11zM271 727v-1h-45q-101 -7 -164.5 -79.5t-61.5 -165.5t65 -161t157 -75q93 -8 167 50t90 152q1 11 1 33
q0 8 -3 16q-7 22 -29 27t-38 -11q-1 -1 -10 -13l-12 -22q0 -2 -3 -2q-6 3 -6 4q-5 13 -5 49q-1 39 -1 116q0 25 -1 37q-5 39 -43 44q-12 2 -20 2h-38zM288 487q0 -66 -1 -100q0 -19 -2 -28q-3 -19 -24 -26q-10 -2 -16 -2q-101 0 -143 88q-43 88 22 166q50 60 132 55
q28 -2 30 -29q0 -5 1 -16t1 -17v-91zM371 65v70q-2 22 -5 33q-4 12 -14.5 19.5t-22.5 7.5q-29 2 -38 -26q-5 -10 -5 -20v-160q0 -8 4 -20q4 -13 14.5 -20.5t22.5 -7.5q28 -2 38 26q6 12 6 32v66z" />
    <glyph glyph-name="Iacute" unicode="&#xcd;" horiz-adv-x="570" 
d="M415 937q2 32 -21 45q-22 13 -46 -1q-12 -9 -19 -17l-74 -105q-2 -3 -7 -15q-12 -32 14 -52q28 -19 54 2q9 7 18 17l69 98q6 10 8 15q1 3 3 8zM271 727v-1h-45q-101 -7 -164.5 -79.5t-61.5 -165.5t65 -161t157 -75q93 -8 167 50t90 152q1 11 1 33q0 8 -3 16q-7 22 -29 27
t-38 -11q-1 -1 -10 -13l-12 -22q0 -2 -3 -2q-6 3 -6 4q-5 13 -5 49q-1 39 -1 116q0 25 -1 37q-5 39 -43 44q-12 2 -20 2h-38zM288 487q0 -66 -1 -100q0 -19 -2 -28q-3 -19 -24 -26q-10 -2 -16 -2q-101 0 -143 88q-43 88 22 166q50 60 132 55q28 -2 30 -29q0 -5 1 -16t1 -17
v-91zM371 65v70q-2 22 -5 33q-4 12 -14.5 19.5t-22.5 7.5q-29 2 -38 -26q-5 -10 -5 -20v-160q0 -8 4 -20q4 -13 14.5 -20.5t22.5 -7.5q28 -2 38 26q6 12 6 32v66z" />
    <glyph glyph-name="Icircumflex" unicode="&#xce;" horiz-adv-x="570" 
d="M125 821q0 -22 18.5 -35.5t39.5 -5.5q15 6 27 18l14 14t16 16.5t14 13.5q15 15 26 15t27 -14l40 -42q18 -16 27 -19q26 -11 46 6q21 18 14 45q-3 9 -9 18q-1 3 -12 16l-87 90q-3 3 -18 16q-27 19 -55 0q-12 -9 -21 -19l-81 -83q-6 -7 -18 -23q-8 -11 -8 -27zM271 727v-1
h-45q-101 -7 -164.5 -79.5t-61.5 -165.5t65 -161t157 -75q93 -8 167 50t90 152q1 11 1 33q0 8 -3 16q-7 22 -29 27t-38 -11q-1 -1 -10 -13l-12 -22q0 -2 -3 -2q-6 3 -6 4q-5 13 -5 49q-1 39 -1 116q0 25 -1 37q-5 39 -43 44q-12 2 -20 2h-38zM288 487q0 -66 -1 -100
q0 -19 -2 -28q-3 -19 -24 -26q-10 -2 -16 -2q-101 0 -143 88q-43 88 22 166q50 60 132 55q28 -2 30 -29q0 -5 1 -16t1 -17v-91zM371 65v70q-2 22 -5 33q-4 12 -14.5 19.5t-22.5 7.5q-29 2 -38 -26q-5 -10 -5 -20v-160q0 -8 4 -20q4 -13 14.5 -20.5t22.5 -7.5q28 -2 38 26
q6 12 6 32v66z" />
    <glyph glyph-name="Idieresis" unicode="&#xcf;" horiz-adv-x="570" 
d="M367 931q-25 -1 -42.5 -18.5t-17.5 -43.5q1 -25 18.5 -42.5t42.5 -17.5q26 -1 44.5 18t17.5 46q-2 25 -20 42t-43 16zM258 870q0 26 -18 43.5t-43 17.5q-26 0 -43.5 -17t-18.5 -42q-1 -26 18 -45.5t45 -18.5q25 1 42 19t18 43zM271 727v-1h-45q-101 -7 -164.5 -79.5
t-61.5 -165.5t65 -161t157 -75q93 -8 167 50t90 152q1 11 1 33q0 8 -3 16q-7 22 -29 27t-38 -11q-1 -1 -10 -13l-12 -22q0 -2 -3 -2q-6 3 -6 4q-5 13 -5 49q-1 39 -1 116q0 25 -1 37q-5 39 -43 44q-12 2 -20 2h-38zM288 487q0 -66 -1 -100q0 -19 -2 -28q-3 -19 -24 -26
q-10 -2 -16 -2q-101 0 -143 88q-43 88 22 166q50 60 132 55q28 -2 30 -29q0 -5 1 -16t1 -17v-91zM371 65v70q-2 22 -5 33q-4 12 -14.5 19.5t-22.5 7.5q-29 2 -38 -26q-5 -10 -5 -20v-160q0 -8 4 -20q4 -13 14.5 -20.5t22.5 -7.5q28 -2 38 26q6 12 6 32v66z" />
    <glyph glyph-name="Eth" unicode="&#xd0;" horiz-adv-x="878" 
d="M788 345q4 -137 -79 -248q-105 -136 -278 -154q-18 -2 -52.5 -2h-42.5q-2 0 -6 0.5t-6 0.5q-34 5 -40 37q-3 12 -3 25q0 88 1 132q0 15 5 33q4 12 14.5 19.5t22.5 7.5q13 0 23.5 -7.5t14.5 -19.5q4 -16 4 -25q1 -12 1 -37q0 -27 1 -41q1 -22 10.5 -30.5t31.5 -7.5
q100 5 175 66q98 79 114 192q-3 0 -8 -0.5t-7 -0.5q-15 -1 -45 -1h-249q-17 0 -25 1q-58 -37 -130.5 -35.5t-131.5 42.5q-81 56 -99 152.5t38 177.5q56 80 148 98q27 6 57 6q13 1 79 1v-1h26h31h26q133 -6 232 -87q139 -114 147 -294zM283 390q1 31 1 95q0 68 -1 103
q0 10 -2 28q-3 19 -22 22q-1 0 -4 0.5t-5 0.5q-81 5 -130 -58q-58 -74 -17 -159q39 -83 135 -85q13 0 24 4q16 5 19 20q2 18 2 29zM660 377q23 0 34 -1q1 0 2.5 -0.5t2.5 -0.5q-14 103 -87.5 176t-179.5 86q-12 2 -37 0q-17 0 -23 -21q0 -3 -1 -4q-2 -82 4 -116q0 -2 5 -5
q4 -2 7 1q2 2 5 6.5t5 6.5q3 5 11 13q17 13 37 7t27 -26q6 -18 3 -37q-4 -42 -25 -85h82h128z" />
    <glyph glyph-name="Ntilde" unicode="&#xd1;" horiz-adv-x="924" 
d="M574 788q6 0 20 2q57 11 80 67q8 16 1 33t-23 24t-33 0t-24 -23q-6 -14 -17 -16q-9 -2 -37 14q-15 10 -32 17q-90 40 -149 -51q-10 -15 -6 -32.5t19 -27.5t32 -6t27 19q13 19 22 22q8 3 21 -3q9 -4 22 -12q45 -27 77 -27zM665 290v-182q0 -38 6 -62q10 -44 43 -75t76 -38
q20 -3 37 2q16 5 23.5 21t0.5 32q-5 15 -23 23q-4 1 -13 3.5t-14 4.5q-43 14 -48 62v41v319q0 10 -0.5 29.5t-0.5 28.5q-1 37 -14 73q-32 91 -119.5 132.5t-180.5 6.5q-6 -3 -18.5 -8.5t-19.5 -7.5q-17 -8 -31 3q-4 2 -10 8q-18 13 -39 13q-88 0 -99 -1q-112 -9 -177 -100.5
t-36 -198.5q39 -144 180 -175q142 -32 238 80q44 50 53 119q3 16 1 37q-3 29 -30 36q-29 8 -46 -19l-8 -15q-5 -10 -6 -11t-7 -1l-2 2q-9 22 -2 57q10 45 45.5 75t80.5 35q58 6 104 -30.5t54 -95.5q2 -13 2 -41v-182zM288 478q0 -64 -1 -95q0 -20 -1 -29q-3 -25 -27 -28
q-8 -2 -24 -2q-57 1 -99.5 41t-47.5 96q-8 74 42.5 125t124.5 46q4 0 12 -2q14 -5 17 -16q3 -15 3 -29v-107h1zM371 64v66q0 10 -4 28q-8 28 -36 30q-14 1 -25 -7t-15 -21q-5 -15 -5 -28q-2 -72 0 -144q0 -14 4 -25q9 -31 39 -29q31 0 38 31q4 13 4 29v70z" />
    <glyph glyph-name="Ograve" unicode="&#xd2;" horiz-adv-x="903" 
d="M437 810q20 0 33 15.5t9 34.5q-1 12 -8 23q-25 36 -77 108q-5 7 -15 14q-26 19 -50 2q-30 -20 -17 -51q6 -16 15 -29q20 -29 60 -85q15 -18 19 -21q12 -11 31 -11zM414 -74q145 4 259 102.5t138 247.5q2 15 2 47q1 7 -3 20q-8 27 -38 29q-29 0 -39 -27q-3 -8 -5 -24
q-1 -8 -3 -23t-4 -23q-33 -164 -186 -235q-63 -27 -133 -24t-132 33l-27 15q-70 43 -111.5 114.5t-43.5 153.5q-1 43 13 90q59 181 243 223q56 12 109 -1q63 -16 102.5 -65.5t41.5 -107t-29 -112.5q-44 -69 -121 -85q-5 -1 -10.5 -2t-12.5 -2t-11 -2q-16 -4 -24 -8
q-23 -11 -21 -37q1 -25 25 -36q14 -4 21 -4q28 0 42 3q176 37 221 207q22 81 -7 160t-96 129q-91 67 -207 55q-179 -18 -288 -165q-84 -112 -78 -257q6 -149 108 -259q58 -62 128 -94q84 -39 177 -36z" />
    <glyph glyph-name="Oacute" unicode="&#xd3;" horiz-adv-x="903" 
d="M544 966q2 32 -21 45q-22 13 -46 -1q-12 -9 -19 -17l-74 -105q-2 -3 -7 -15q-12 -32 14 -52q28 -19 54 2q9 7 18 17l69 98q6 10 8 15q1 3 2 8zM414 -74q145 4 259 102.5t138 247.5q2 15 2 47q1 7 -3 20q-8 27 -38 29q-29 0 -39 -27q-3 -8 -5 -24q-1 -8 -3 -23t-4 -23
q-33 -164 -186 -235q-63 -27 -133 -24t-132 33l-27 15q-70 43 -111.5 114.5t-43.5 153.5q-1 43 13 90q59 181 243 223q56 12 109 -1q63 -16 102.5 -65.5t41.5 -107t-29 -112.5q-44 -69 -121 -85q-5 -1 -10.5 -2t-12.5 -2t-11 -2q-16 -4 -24 -8q-23 -11 -21 -37q1 -25 25 -36
q14 -4 21 -4q28 0 42 3q176 37 221 207q22 81 -7 160t-96 129q-91 67 -207 55q-179 -18 -288 -165q-84 -112 -78 -257q6 -149 108 -259q58 -62 128 -94q84 -39 177 -36z" />
    <glyph glyph-name="Ocircumflex" unicode="&#xd4;" horiz-adv-x="903" 
d="M232 845q0 -22 18.5 -35.5t39.5 -5.5q15 6 27 18l44 44q15 15 26 15t27 -14l40 -42q18 -16 27 -19q26 -11 46 6q21 18 14 45q-3 9 -9 18q-1 3 -12 16l-87 90q-3 3 -18 16q-27 19 -55 0q-12 -9 -21 -19l-81 -83q-6 -7 -18 -23q-8 -11 -8 -27zM414 -74q145 4 259 102.5
t138 247.5q2 15 2 47q1 7 -3 20q-8 27 -38 29q-29 0 -39 -27q-3 -8 -5 -24q-1 -8 -3 -23t-4 -23q-33 -164 -186 -235q-63 -27 -133 -24t-132 33l-27 15q-70 43 -111.5 114.5t-43.5 153.5q-1 43 13 90q59 181 243 223q56 12 109 -1q63 -16 102.5 -65.5t41.5 -107t-29 -112.5
q-44 -69 -121 -85q-5 -1 -10.5 -2t-12.5 -2t-11 -2q-16 -4 -24 -8q-23 -11 -21 -37q1 -25 25 -36q14 -4 21 -4q28 0 42 3q176 37 221 207q22 81 -7 160t-96 129q-91 67 -207 55q-179 -18 -288 -165q-84 -112 -78 -257q6 -149 108 -259q58 -62 128 -94q84 -39 177 -36z" />
    <glyph glyph-name="Otilde" unicode="&#xd5;" horiz-adv-x="903" 
d="M455 795q6 0 20 2q57 11 80 67q8 16 1 33t-23 24t-33 0t-24 -23q-6 -14 -17 -16q-9 -2 -37 14q-15 10 -32 17q-90 40 -149 -51q-10 -15 -6 -32.5t19 -27.5t32 -6t27 19q13 19 22 22q7 3 21 -3q9 -4 22 -12q45 -27 77 -27zM414 -74q145 4 259 102.5t138 247.5q2 15 2 47
q1 7 -3 20q-8 27 -38 29q-29 0 -39 -27q-3 -8 -5 -24q-1 -8 -3 -23t-4 -23q-33 -164 -186 -235q-63 -27 -133 -24t-132 33l-27 15q-70 43 -111.5 114.5t-43.5 153.5q-1 43 13 90q59 181 243 223q56 12 109 -1q63 -16 102.5 -65.5t41.5 -107t-29 -112.5q-44 -69 -121 -85
q-5 -1 -10.5 -2t-12.5 -2t-11 -2q-16 -4 -24 -8q-23 -11 -21 -37q1 -25 25 -36q14 -4 21 -4q28 0 42 3q176 37 221 207q22 81 -7 160t-96 129q-91 67 -207 55q-179 -18 -288 -165q-84 -112 -78 -257q6 -149 108 -259q58 -62 128 -94q84 -39 177 -36z" />
    <glyph glyph-name="Odieresis" unicode="&#xd6;" horiz-adv-x="903" 
d="M494 930q-25 -1 -42.5 -18.5t-17.5 -43.5q1 -25 18.5 -42.5t42.5 -17.5q26 -1 44.5 18t17.5 46q-2 25 -20 42t-43 16zM385 869q0 25 -17.5 43t-43.5 18t-43.5 -17t-18.5 -42q-1 -26 18 -45.5t45 -18.5q25 1 42 19t18 43zM414 -74q145 4 259 102.5t138 247.5q2 15 2 47
q1 7 -3 20q-8 27 -38 29q-29 0 -39 -27q-3 -8 -5 -24q-1 -8 -3 -23t-4 -23q-33 -164 -186 -235q-63 -27 -133 -24t-132 33l-27 15q-70 43 -111.5 114.5t-43.5 153.5q-1 43 13 90q59 181 243 223q56 12 109 -1q63 -16 102.5 -65.5t41.5 -107t-29 -112.5q-44 -69 -121 -85
q-5 -1 -10.5 -2t-12.5 -2t-11 -2q-16 -4 -24 -8q-23 -11 -21 -37q1 -25 25 -36q14 -4 21 -4q28 0 42 3q176 37 221 207q22 81 -7 160t-96 129q-91 67 -207 55q-179 -18 -288 -165q-84 -112 -78 -257q6 -149 108 -259q58 -62 128 -94q84 -39 177 -36z" />
    <glyph glyph-name="multiply" unicode="&#xd7;" horiz-adv-x="415" 
d="M312 123q19 19 11 46q-4 7 -19 27q-29 29 -44 45l-15 18q-11 16 1 32q2 2 19 22l19 19l19 19q12 15 18 27q13 24 -7 47q-20 20 -46 9q-12 -6 -24 -15l-18 -18t-21 -20q-19 -19 -24 -23q-18 -13 -38 2q-12 10 -18 17q-28 26 -43 39q-3 3 -22 17q-29 13 -47 -7
q-22 -20 -8 -50q1 -1 4 -6t5 -7q3 -3 17 -18l29 -30q25 -24 25.5 -39t-24.5 -39l-32 -32q-2 -3 -8 -9.5t-8 -9.5q-6 -10 -10 -18q-10 -26 11 -45q17 -16 43 -8q11 5 21 13q7 6 21 20l36 34q6 7 17 12q11 8 23 1q7 -4 20 -15q8 -7 23.5 -22.5l23.5 -23.5q11 -10 23 -17
q27 -13 47 6z" />
    <glyph glyph-name="Oslash" unicode="&#xd8;" horiz-adv-x="903" 
d="M810 343q4 -13 3 -20q0 -32 -2 -47q-24 -149 -138 -247.5t-259 -102.5q-93 -3 -177 36q-3 1 -11 5l-12 6l-5 -5q-11 -11 -26 -11q-19 -2 -32.5 11t-12.5 32q2 12 6 22q-24 22 -35 34q-102 110 -108 259q-6 145 78 257q109 147 288 165q115 12 204 -53q21 13 42 -1
q21 -13 19 -42l-4 -12q39 -50 52 -111t-3 -125q-45 -170 -221 -207q-14 -3 -42 -3q-7 0 -21 4q-20 10 -24 27l-73 -115l-30 -48l4 -2q62 -30 132 -33t133 24q153 71 186 235q2 8 4 23t3 23q2 16 5 24q10 27 39 27q30 -2 38 -29zM88 332q3 -135 104 -230q109 171 325 513
q-28 20 -64 29q-53 13 -109 1q-184 -42 -243 -223q-14 -47 -13 -90zM568 359q27 42 29.5 92t-19.5 93l-177 -279l12 3q4 1 11 2t12.5 2t10.5 2q77 16 121 85z" />
    <glyph glyph-name="Ugrave" unicode="&#xd9;" horiz-adv-x="883" 
d="M570 787q20 0 33 15.5t9 34.5q-1 12 -8 23q-25 36 -77 108q-5 7 -15 14q-26 19 -50 2q-30 -20 -17 -51q7 -16 15 -29q20 -29 60 -85q15 -18 19 -21q12 -11 31 -11zM750 364v187q0 25 4 45q6 36 41 48q1 1 20 6l15 6q26 13 23 41q-1 12 -9.5 22t-20.5 12q-17 3 -29 2
q-40 -5 -72 -30q-52 -42 -56 -107q-1 -9 -1 -54q-1 -113 -1 -339q0 -39 -1 -46q-6 -55 -45 -92t-92 -40q-53 -2 -94.5 30t-54.5 84q-1 5 -2.5 14.5t-2.5 14.5q-5 15 -7 19q-11 24 -37 22q-13 0 -23 -8t-13 -20q-2 -9 -4 -25q0 -25 10 -57q26 -80 96.5 -124.5t155.5 -33.5
t140.5 73.5t58.5 142.5q1 15 1 46v161zM275 727v-1h-14.5h-17h-14.5q-113 -8 -177 -94q-94 -126 -20 -261q71 -135 225 -126q151 10 211 155q15 34 15 73q-2 18 -4 24q-7 20 -28 25.5t-37 -8.5q-8 -8 -12 -16q-2 -3 -5 -9.5t-5 -9.5t-6 -3q-5 2 -5 6q-4 9 -6 49v116
q0 25 -2 37q-5 36 -41 41q-10 2 -16 2h-41zM290 486v-99q-3 -28 -3 -29q-3 -18 -21 -24q-10 -3 -24 -3q-49 0 -89 29t-56 75q-17 47 -1.5 95.5t55.5 78.5q47 36 109 31q1 -1 4 -1.5t4 -0.5q16 -5 19 -20q2 -9 2 -29q1 -34 1 -103z" />
    <glyph glyph-name="Uacute" unicode="&#xda;" horiz-adv-x="883" 
d="M676 933q2 32 -21 45q-22 13 -46 -1q-12 -9 -19 -17l-74 -105q-2 -3 -7 -15q-12 -32 14 -52q28 -19 54 2q9 7 18 17l69 98q6 10 8 15q1 3 2 8zM750 364v187q0 25 4 45q6 36 41 48q1 1 20 6l15 6q26 13 23 41q-1 12 -9.5 22t-20.5 12q-17 3 -29 2q-40 -5 -72 -30
q-52 -42 -56 -107q-1 -9 -1 -54q-1 -113 -1 -339q0 -39 -1 -46q-6 -55 -45 -92t-92 -40q-53 -2 -94.5 30t-54.5 84q-1 5 -2.5 14.5t-2.5 14.5q-5 15 -7 19q-11 24 -37 22q-13 0 -23 -8t-13 -20q-2 -9 -4 -25q0 -25 10 -57q26 -80 96.5 -124.5t155.5 -33.5t140.5 73.5
t58.5 142.5q1 15 1 46v161zM275 727v-1h-14.5h-17h-14.5q-113 -8 -177 -94q-94 -126 -20 -261q71 -135 225 -126q151 10 211 155q15 34 15 73q-2 18 -4 24q-7 20 -28 25.5t-37 -8.5q-8 -8 -12 -16q-2 -3 -5 -9.5t-5 -9.5t-6 -3q-5 2 -5 6q-4 9 -6 49v116q0 25 -2 37
q-5 36 -41 41q-10 2 -16 2h-41zM290 486v-99q-3 -28 -3 -29q-3 -18 -21 -24q-10 -3 -24 -3q-49 0 -89 29t-56 75q-17 47 -1.5 95.5t55.5 78.5q47 36 109 31q1 -1 4 -1.5t4 -0.5q16 -5 19 -20q2 -9 2 -29q1 -34 1 -103z" />
    <glyph glyph-name="Ucircumflex" unicode="&#xdb;" horiz-adv-x="883" 
d="M378 832q0 -22 18.5 -35.5t39.5 -5.5q15 6 27 18l14 14t16 16.5t14 13.5q15 15 26 15t27 -14l40 -42q18 -16 27 -19q26 -11 46 6q21 18 14 45q-3 9 -9 18q-1 3 -12 16l-87 90q-3 3 -18 16q-27 19 -55 0q-12 -9 -21 -19l-81 -83q-6 -7 -18 -23q-8 -11 -8 -27zM750 364v187
q0 25 4 45q6 36 41 48q1 1 20 6l15 6q26 13 23 41q-1 12 -9.5 22t-20.5 12q-17 3 -29 2q-40 -5 -72 -30q-52 -42 -56 -107q-1 -9 -1 -54q-1 -113 -1 -339q0 -39 -1 -46q-6 -55 -45 -92t-92 -40q-53 -2 -94.5 30t-54.5 84q-1 5 -2.5 14.5t-2.5 14.5q-5 15 -7 19
q-11 24 -37 22q-13 0 -23 -8t-13 -20q-2 -9 -4 -25q0 -25 10 -57q26 -80 96.5 -124.5t155.5 -33.5t140.5 73.5t58.5 142.5q1 15 1 46v161zM275 727v-1h-14.5h-17h-14.5q-113 -8 -177 -94q-94 -126 -20 -261q71 -135 225 -126q151 10 211 155q15 34 15 73q-2 18 -4 24
q-7 20 -28 25.5t-37 -8.5q-8 -8 -12 -16q-2 -3 -5 -9.5t-5 -9.5t-6 -3q-5 2 -5 6q-4 9 -6 49v116q0 25 -2 37q-5 36 -41 41q-10 2 -16 2h-41zM290 486v-99q-3 -28 -3 -29q-3 -18 -21 -24q-10 -3 -24 -3q-49 0 -89 29t-56 75q-17 47 -1.5 95.5t55.5 78.5q47 36 109 31
q1 -1 4 -1.5t4 -0.5q16 -5 19 -20q2 -9 2 -29q1 -34 1 -103z" />
    <glyph glyph-name="Udieresis" unicode="&#xdc;" horiz-adv-x="883" 
d="M628 923q-25 -1 -42.5 -18.5t-17.5 -43.5q1 -25 18.5 -42.5t42.5 -17.5q26 -1 44.5 18t17.5 46q-2 25 -20 42t-43 16zM519 862q0 26 -17.5 43.5t-43.5 17.5t-43.5 -17t-18.5 -42q-1 -26 18 -45.5t45 -18.5q25 1 42 19t18 43zM750 364v187q0 25 4 45q6 36 41 48q1 1 20 6
l15 6q26 13 23 41q-1 12 -9.5 22t-20.5 12q-17 3 -29 2q-40 -5 -72 -30q-52 -42 -56 -107q-1 -9 -1 -54q-1 -113 -1 -339q0 -39 -1 -46q-6 -55 -45 -92t-92 -40q-53 -2 -94.5 30t-54.5 84q-1 5 -2.5 14.5t-2.5 14.5q-5 15 -7 19q-11 24 -37 22q-13 0 -23 -8t-13 -20
q-2 -9 -4 -25q0 -25 10 -57q26 -80 96.5 -124.5t155.5 -33.5t140.5 73.5t58.5 142.5q1 15 1 46v161zM275 727v-1h-14.5h-17h-14.5q-113 -8 -177 -94q-94 -126 -20 -261q71 -135 225 -126q151 10 211 155q15 34 15 73q-2 18 -4 24q-7 20 -28 25.5t-37 -8.5q-8 -8 -12 -16
q-2 -3 -5 -9.5t-5 -9.5t-6 -3q-5 2 -5 6q-4 9 -6 49v116q0 25 -2 37q-5 36 -41 41q-10 2 -16 2h-41zM290 486v-99q-3 -28 -3 -29q-3 -18 -21 -24q-10 -3 -24 -3q-49 0 -89 29t-56 75q-17 47 -1.5 95.5t55.5 78.5q47 36 109 31q1 -1 4 -1.5t4 -0.5q16 -5 19 -20q2 -9 2 -29
q1 -34 1 -103z" />
    <glyph glyph-name="Yacute" unicode="&#xdd;" horiz-adv-x="815" 
d="M658 930q2 32 -21 45q-22 13 -46 -1q-12 -9 -19 -17l-74 -105q-2 -3 -7 -15q-12 -32 14 -52q28 -19 54 2q9 7 18 17l69 98q6 10 8 15q1 3 2 8zM705 421v216q0 25 -1 37q-2 14 -4 20q-4 13 -14.5 20.5t-22.5 7.5q-33 0 -40 -30q-3 -12 -3 -25q-1 -16 -1 -49v-369
q0 -28 -2 -41q-2 -22 -23 -26q-60 -7 -103 7q-55 18 -85 69q-17 28 4 53q3 4 10.5 12.5t10.5 12.5q42 53 50 122q2 21 -2 36q-6 19 -25 27t-35 -3q-9 -6 -15 -15q-3 -4 -7 -12.5t-7 -12.5q-2 -2 -4 -1q-5 3 -6 4q-4 16 -4 24q-2 50 -2 74v83q0 64 -62 65q-50 0 -75 -1
q-27 -2 -49 -7q-150 -39 -181 -184q-31 -146 89 -242q68 -54 164 -49q22 2 33 2q15 1 25 -12q4 -5 10 -15.5t10 -15.5q48 -71 126 -96q17 -5 53 -11q5 -1 16 -2.5t16 -2.5q8 -1 10.5 -9.5t-2.5 -13.5q-9 -10 -18 -17q-34 -22 -77 -27q-15 -1 -46 -1q-9 -1 -27 -1h-27
q-15 -2 -28 -6q-24 -10 -24 -36q0 -25 23 -36q11 -6 24 -6q83 -4 124 2q93 13 155 80t68 161q1 15 1 46v194zM289 485q0 -64 -1 -96q0 -19 -1 -29q-3 -23 -26 -28q-22 -4 -50 1q-56 12 -91 56.5t-32 102.5q2 57 41.5 99t96.5 47q6 1 33 1q25 -2 28 -26q1 -10 1 -29
q1 -33 1 -99z" />
    <glyph glyph-name="Thorn" unicode="&#xde;" horiz-adv-x="845" 
d="M754 463q14 -181 -123 -287q-67 -51 -149 -58q-10 -1 -29 -2t-29 -2q-9 0 -29 -2q-8 -1 -14 -7.5t-7 -14.5q0 -1 -3 -29l1 -33q0 -33 -1 -33q0 -10 -4 -28q-5 -17 -21 -25q-14 -8 -30 -2.5t-23 20.5q-7 14 -7 32v75v66q0 9 2 29q6 30 36 36q14 3 28 3q10 1 31 1h31h42
q76 4 133.5 51.5t73.5 120.5q22 92 -32 171.5t-148 95.5q-26 4 -79 2q-2 0 -8 -2q-10 -3 -15 -11v-114q0 -16 -2 -24q2 -10 7 -10q3 0 6.5 5.5t7.5 13t4 8.5q10 13 23 17q16 5 30.5 -2.5t19.5 -22.5q2 -6 4 -20q1 -24 -8 -57q-20 -74 -80 -122.5t-138 -53.5
q-76 -4 -141.5 37t-95.5 112q-44 106 10.5 206t166.5 122q27 5 49 5q15 1 44 1v56q1 11 1 33q1 5 5 20q10 29 41 29q14 0 25.5 -8.5t15.5 -21.5q3 -10 5 -29q0 -8 0.5 -23t0.5 -22q0 -6 -0.5 -17.5t-0.5 -16.5q44 0 66 -1q74 0 140 -33q97 -51 142 -151q7 -16 20 -58
q5 -13 5 -25zM287 388q1 35 1 103h-1v104q0 15 -3 28q-3 14 -16 17q-6 3 -13 3q-78 6 -129 -52q-66 -75 -25 -165q40 -89 141 -91q13 0 24 4q16 5 19 20q2 10 2 29z" />
    <glyph glyph-name="agrave" unicode="&#xe0;" horiz-adv-x="514" 
d="M244 578q20 0 33 15.5t9 34.5q-1 12 -8 23q-25 36 -77 108q-5 7 -15 14q-26 19 -50 2q-30 -20 -17 -51q7 -16 15 -29q20 -29 60 -85q15 -18 19 -21q12 -11 31 -11zM434 42q-3 15 -4 18q-3 11 -11 31l-138 342q-10 24 -12 26q-6 10 -14 20q-11 12 -28 12t-28 -11
q-8 -8 -15 -20q-4 -7 -16 -33q-12 -27 -48 -107t-56 -123q-8 -19 -24.5 -55t-24.5 -55q-7 -13 -14 -39q-2 -11 1 -20q7 -22 29 -27t38 11q14 14 21 31q13 31 49 31h8h141q16 0 24 -2q18 -2 27 -18q1 -3 4.5 -10.5t6.5 -11.5q9 -14 18 -22q19 -17 42 -6t24 38zM222 159
q-47 3 -49 3q-9 1 -13.5 9t-2.5 16q2 11 6 19l39 86q0 2 2 4t2 4q9 15 19 12q10 -1 15 -12q17 -37 37 -88q2 -4 4.5 -12t3.5 -11q2 -10 -3 -18t-15 -9q-10 -2 -29 -2h-16v-1z" />
    <glyph glyph-name="aacute" unicode="&#xe1;" horiz-adv-x="524" 
d="M360 737q2 32 -21 45q-22 13 -46 -1q-12 -9 -19 -17l-74 -105q-2 -3 -7 -15q-12 -32 14 -52q28 -19 54 2q9 7 18 17l69 98q6 10 8 15q1 3 2 8zM434 42q-3 15 -4 18q-3 11 -11 31l-138 342q-10 24 -12 26q-6 10 -14 20q-11 12 -28 12t-28 -11q-8 -8 -15 -20q-4 -7 -16 -33
q-12 -27 -48 -107t-56 -123q-8 -19 -24.5 -55t-24.5 -55q-7 -13 -14 -39q-2 -11 1 -20q7 -22 29 -27t38 11q14 14 21 31q13 31 49 31h8h141q16 0 24 -2q18 -2 27 -18q1 -3 4.5 -10.5t6.5 -11.5q9 -14 18 -22q19 -17 42 -6t24 38zM222 159q-47 3 -49 3q-9 1 -13.5 9t-2.5 16
q2 11 6 19l39 86q0 2 2 4t2 4q9 15 19 12q10 -1 15 -12q17 -37 37 -88q2 -4 4.5 -12t3.5 -11q2 -10 -3 -18t-15 -9q-10 -2 -29 -2h-16v-1z" />
    <glyph glyph-name="acircumflex" unicode="&#xe2;" horiz-adv-x="514" 
d="M63 600q0 -22 18.5 -35.5t39.5 -5.5q15 6 27 18l14 14t16 16.5t14 13.5q15 15 26 15t27 -14l40 -42q18 -16 27 -19q26 -11 46 6q21 18 14 45q-3 9 -9 18q-1 3 -12 16l-87 90q-3 3 -18 16q-28 19 -55 0q-12 -9 -21 -19l-81 -83q-6 -7 -18 -23q-8 -11 -8 -27zM434 42
q-3 15 -4 18q-3 11 -11 31l-138 342q-10 24 -12 26q-6 10 -14 20q-11 12 -28 12t-28 -11q-8 -8 -15 -20q-4 -7 -16 -33q-12 -27 -48 -107t-56 -123q-8 -19 -24.5 -55t-24.5 -55q-7 -13 -14 -39q-2 -11 1 -20q7 -22 29 -27t38 11q14 14 21 31q13 31 49 31h8h141q16 0 24 -2
q18 -2 27 -18q1 -3 4.5 -10.5t6.5 -11.5q9 -14 18 -22q19 -17 42 -6t24 38zM222 159q-47 3 -49 3q-9 1 -13.5 9t-2.5 16q2 11 6 19l39 86q0 2 2 4t2 4q9 15 19 12q10 -1 15 -12q17 -37 37 -88q2 -4 4.5 -12t3.5 -11q2 -10 -3 -18t-15 -9q-10 -2 -29 -2h-16v-1z" />
    <glyph glyph-name="atilde" unicode="&#xe3;" horiz-adv-x="524" 
d="M280 572q6 0 20 2q57 11 80 67q8 16 1 33t-23 24t-33 0t-24 -23q-6 -14 -17 -16q-9 -2 -37 14q-15 10 -32 17q-90 40 -149 -51q-10 -15 -6 -32.5t19 -27.5t32 -6t27 19q13 19 22 22q8 3 21 -3q9 -4 22 -12q45 -27 77 -27zM434 42q-3 15 -4 18q-3 11 -11 31l-138 342
q-10 24 -12 26q-6 10 -14 20q-11 12 -28 12t-28 -11q-8 -8 -15 -20q-4 -7 -16 -33q-12 -27 -48 -107t-56 -123q-8 -19 -24.5 -55t-24.5 -55q-7 -13 -14 -39q-2 -11 1 -20q7 -22 29 -27t38 11q14 14 21 31q13 31 49 31h8h141q16 0 24 -2q18 -2 27 -18q1 -3 4.5 -10.5
t6.5 -11.5q9 -14 18 -22q19 -17 42 -6t24 38zM222 159q-47 3 -49 3q-9 1 -13.5 9t-2.5 16q2 11 6 19l39 86q0 2 2 4t2 4q9 15 19 12q10 -1 15 -12q17 -37 37 -88q2 -4 4.5 -12t3.5 -11q2 -10 -3 -18t-15 -9q-10 -2 -29 -2h-16v-1z" />
    <glyph glyph-name="adieresis" unicode="&#xe4;" horiz-adv-x="524" 
d="M310 697q-25 -1 -42.5 -18.5t-17.5 -43.5q1 -25 18.5 -42.5t42.5 -17.5q26 -1 44.5 18t17.5 46q-2 25 -20 42t-43 16zM201 636q0 26 -17.5 43.5t-43.5 17.5t-43.5 -17t-18.5 -42q-1 -26 18 -45.5t45 -18.5q25 1 42 19t18 43zM434 42q-3 15 -4 18q-3 11 -11 31l-138 342
q-10 24 -12 26q-6 10 -14 20q-11 12 -28 12t-28 -11q-8 -8 -15 -20q-4 -7 -16 -33q-12 -27 -48 -107t-56 -123q-8 -19 -24.5 -55t-24.5 -55q-7 -13 -14 -39q-2 -11 1 -20q7 -22 29 -27t38 11q14 14 21 31q13 31 49 31h8h141q16 0 24 -2q18 -2 27 -18q1 -3 4.5 -10.5
t6.5 -11.5q9 -14 18 -22q19 -17 42 -6t24 38zM222 159q-47 3 -49 3q-9 1 -13.5 9t-2.5 16q2 11 6 19l39 86q0 2 2 4t2 4q9 15 19 12q10 -1 15 -12q17 -37 37 -88q2 -4 4.5 -12t3.5 -11q2 -10 -3 -18t-15 -9q-10 -2 -29 -2h-16v-1z" />
    <glyph glyph-name="aring" unicode="&#xe5;" horiz-adv-x="524" 
d="M430 60q1 -3 4 -18q-1 -27 -24 -38t-42 6q-9 8 -18 22q-3 4 -6.5 11.5t-4.5 10.5q-9 16 -27 18q-8 2 -24 2h-141h-8q-36 0 -49 -31q-7 -17 -21 -31q-16 -16 -38 -11t-29 27q-3 9 -1 20q7 26 14 39q8 19 24.5 55t24.5 55q20 43 56 123t48 107q4 10 14 30
q-38 14 -61.5 47.5t-22.5 75.5q2 51 40 88t93 35q53 -2 88 -40t34 -91q-1 -39 -24 -70.5t-59 -44.5q3 -5 6.5 -13t4.5 -11l138 -342q8 -20 11 -31zM227 607q-13 1 -22.5 -8.5t-9.5 -22.5q1 -13 10 -22t22 -9q13 1 22 10.5t8 22.5q-1 12 -10 20t-20 9zM267 162q10 1 15 9
t3 18q-1 3 -3.5 11t-4.5 12q-20 51 -37 88q-5 11 -15 12q-10 3 -19 -12q0 -2 -2 -4t-2 -4l-39 -86q-4 -8 -6 -19q-2 -8 2.5 -16t13.5 -9q2 0 49 -3v1h16q19 0 29 2z" />
    <glyph glyph-name="ae" unicode="&#xe6;" horiz-adv-x="876" 
d="M784 50q6 -20 -7 -35q-11 -14 -28 -17q-15 -3 -32 -3h-295q-16 0 -33 3q-24 5 -33 25l-6 9q-3 4 -6.5 11.5t-4.5 10.5q-9 16 -27 18q-8 2 -24 2h-141h-8q-36 0 -49 -31q-7 -17 -21 -31q-16 -16 -38 -11t-29 27q-3 9 -1 20q7 26 14 39q8 19 24.5 55t24.5 55q20 43 56 123
t48 107q12 26 16 33q7 12 15 20q11 11 28 11t28 -12q8 -10 14 -20q2 -2 12 -26l69 -171v152q0 13 2 37q5 35 40 41q5 1 10.5 1.5t12 1t10.5 0.5h91h179q27 0 41 -2q11 0 24 -5q26 -10 24 -40q-1 -25 -25 -34q-12 -5 -20 -5q-13 -1 -38 -1q-132 0 -199 -1q-24 0 -37 -1
q-25 -2 -28 -26q-3 -35 1 -66q2 -21 24 -24q6 0 17 -1t16 -1h104q22 0 33 -1q8 0 20 -4q27 -8 29 -37q1 -13 -7.5 -24.5t-22.5 -15.5q-16 -4 -24 -4q-11 -1 -33 -1h-100q-19 0 -29 -1q-26 -2 -28 -26q-1 -33 0 -66q2 -21 24 -25q26 -2 37 -2h212q20 0 41 -3q24 -4 33 -28z
M267 162q10 1 15 9t3 18q-1 3 -3.5 11t-4.5 12q-20 51 -37 88q-5 11 -15 12q-10 3 -19 -12q0 -2 -2 -4t-2 -4l-39 -86q-4 -8 -6 -19q-2 -8 2.5 -16t13.5 -9q2 0 49 -3v1h16q19 0 29 2z" />
    <glyph glyph-name="ccedilla" unicode="&#xe7;" horiz-adv-x="525" 
d="M389 139q21 4 35.5 -12.5t8.5 -36.5q-7 -22 -20 -31q-33 -25 -49 -32q-34 -17 -72 -25q6 -11 16 -18q18 -14 25 -22q51 -57 27 -127q-22 -67 -94 -84q-49 -11 -93 16t-57 76q-5 26 0 45q10 29 41 31q29 0 40 -24q1 -2 9 -23l3.5 -7t4.5 -7q10 -12 25 -12q23 0 29 19
q4 10 1 21t-12 15q-10 6 -30 14q-28 10 -31 40q-1 3 -3 35q0 2 0.5 6.5t0.5 7.5q-45 11 -88 40q-59 39 -88 111t-12 148q17 72 71 124t127 65q8 1 21 2.5t16 1.5q87 -1 149 -44q19 -14 31 -27q27 -31 4 -57q-22 -27 -56 -7l-17 12q-18 12 -28 18q-45 23 -94.5 17.5
t-87.5 -39.5t-50.5 -83.5t6.5 -97.5q18 -47 59.5 -75t91.5 -28q49 0 90 27l27 19q11 7 23 8z" />
    <glyph glyph-name="egrave" unicode="&#xe8;" horiz-adv-x="526" 
d="M268 581q20 0 33 15.5t9 34.5q-1 12 -8 23q-25 36 -77 108q-5 7 -15 14q-26 19 -50 2q-30 -20 -17 -51q7 -16 15 -29q20 -29 60 -85q15 -18 19 -21q12 -11 31 -11zM0 249v-166q0 -25 1 -37q3 -36 38 -43q17 -3 33 -3h295q17 0 32 3q17 3 28 17q13 15 7 35q-9 24 -33 28
q-21 3 -41 3h-212q-11 0 -37 2q-22 4 -24 25q-1 33 0 66q2 24 28 26q10 1 29 1h100q22 0 33 1q8 0 24 4q14 4 22.5 15.5t7.5 24.5q-2 29 -29 37q-12 4 -20 4q-11 1 -33 1h-104q-5 1 -16 1t-17 1q-22 3 -24 24q-4 31 -1 66q3 24 28 26q13 1 37 1q67 1 199 1q25 0 38 1
q8 0 20 5q24 9 25 34q2 30 -24 40q-13 5 -24 5q-14 2 -41 2h-179h-91q-4 0 -10.5 -0.5t-12 -1t-10.5 -1.5q-35 -6 -40 -41q-2 -24 -2 -37v-170z" />
    <glyph glyph-name="eacute" unicode="&#xe9;" horiz-adv-x="526" 
d="M357 739q2 32 -21 45q-22 13 -46 -1q-12 -9 -19 -17l-74 -105q-2 -3 -7 -15q-12 -32 14 -52q28 -19 54 2q9 7 18 17l69 98q6 10 8 15l2.5 7.5t1.5 5.5zM0 249v-166q0 -25 1 -37q3 -36 38 -43q17 -3 33 -3h295q17 0 32 3q17 3 28 17q13 15 7 35q-9 24 -33 28q-21 3 -41 3
h-212q-11 0 -37 2q-22 4 -24 25q-1 33 0 66q2 24 28 26q10 1 29 1h100q22 0 33 1q8 0 24 4q14 4 22.5 15.5t7.5 24.5q-2 29 -29 37q-12 4 -20 4q-11 1 -33 1h-104q-5 1 -16 1t-17 1q-22 3 -24 24q-4 31 -1 66q3 24 28 26q13 1 37 1q67 1 199 1q25 0 38 1q8 0 20 5
q24 9 25 34q2 30 -24 40q-13 5 -24 5q-14 2 -41 2h-179h-91q-4 0 -10.5 -0.5t-12 -1t-10.5 -1.5q-35 -6 -40 -41q-2 -24 -2 -37v-170z" />
    <glyph glyph-name="ecircumflex" unicode="&#xea;" horiz-adv-x="526" 
d="M58 632q0 -22 18.5 -35.5t39.5 -5.5q15 6 27 18l14 14t16 16.5t14 13.5q15 15 26 15t27 -14l40 -42q18 -16 27 -19q26 -11 46 6q21 18 14 45q-3 9 -9 18q-1 3 -12 16l-87 90q-3 3 -18 16q-27 19 -55 0q-12 -9 -21 -19l-81 -83q-6 -7 -18 -23q-8 -11 -8 -27zM0 249v-166
q0 -25 1 -37q3 -36 38 -43q17 -3 33 -3h295q17 0 32 3q17 3 28 17q13 15 7 35q-9 24 -33 28q-21 3 -41 3h-212q-11 0 -37 2q-22 4 -24 25q-1 33 0 66q2 24 28 26q10 1 29 1h100q22 0 33 1q8 0 24 4q14 4 22.5 15.5t7.5 24.5q-2 29 -29 37q-12 4 -20 4q-11 1 -33 1h-104
q-5 1 -16 1t-17 1q-22 3 -24 24q-4 31 -1 66q3 24 28 26q13 1 37 1q67 1 199 1q25 0 38 1q8 0 20 5q24 9 25 34q2 30 -24 40q-13 5 -24 5q-14 2 -41 2h-179h-91q-4 0 -10.5 -0.5t-12 -1t-10.5 -1.5q-35 -6 -40 -41q-2 -24 -2 -37v-170z" />
    <glyph glyph-name="edieresis" unicode="&#xeb;" horiz-adv-x="526" 
d="M293 709q-25 -1 -42.5 -18.5t-17.5 -43.5q1 -25 18.5 -42.5t42.5 -17.5q26 -1 44.5 18t17.5 46q-2 25 -20 42t-43 16zM184 648q0 26 -18 43.5t-43 17.5q-26 0 -43.5 -17t-18.5 -42q-1 -26 18 -45.5t45 -18.5q25 1 42 19t18 43zM0 249v-166q0 -25 1 -37q3 -36 38 -43
q17 -3 33 -3h295q17 0 32 3q17 3 28 17q13 15 7 35q-9 24 -33 28q-21 3 -41 3h-212q-11 0 -37 2q-22 4 -24 25q-1 33 0 66q2 24 28 26q10 1 29 1h100q22 0 33 1q8 0 24 4q14 4 22.5 15.5t7.5 24.5q-2 29 -29 37q-12 4 -20 4q-11 1 -33 1h-104q-5 1 -16 1t-17 1q-22 3 -24 24
q-4 31 -1 66q3 24 28 26q13 1 37 1q67 1 199 1q25 0 38 1q8 0 20 5q24 9 25 34q2 30 -24 40q-13 5 -24 5q-14 2 -41 2h-179h-91q-4 0 -10.5 -0.5t-12 -1t-10.5 -1.5q-35 -6 -40 -41q-2 -24 -2 -37v-170z" />
    <glyph glyph-name="igrave" unicode="&#xec;" horiz-adv-x="445" 
d="M213 581q20 0 33 15.5t9 34.5q-1 12 -8 23q-25 36 -77 108q-5 7 -15 14q-26 19 -50 2q-30 -20 -17 -51q6 -16 15 -29q20 -29 60 -85q15 -18 19 -21q12 -11 31 -11zM178 500h-99q-23 0 -34 -1q-14 -2 -23 -7q-22 -13 -21 -38q2 -23 23 -32q8 -4 19 -6q10 -1 29 -1
q22 0 33 -1q26 -3 29 -30q0 -3 0.5 -8.5t0.5 -8.5v-232q0 -6 -2 -20q-2 -25 -26 -27q-11 -2 -33 -2q-5 0 -16 -1t-17 -1q-22 -3 -35 -21q-6 -7 -6 -19q2 -32 31 -40q16 -4 36 -4h224q16 0 24 2q12 2 20 7q16 8 19.5 27.5t-13.5 34.5q-13 12 -30 13q-6 1 -18.5 1.5t-18.5 0.5
q-9 0 -29 2q-19 4 -21 22q-3 20 -3 37v207q0 14 1 21q1 22 9.5 30.5t31.5 9.5q27 0 41 1q15 0 24 4q24 9 26 34q1 14 -6.5 25.5t-21.5 16.5q-12 4 -37 4h-111z" />
    <glyph glyph-name="iacute" unicode="&#xed;" horiz-adv-x="445" 
d="M314 739q2 32 -21 45q-22 13 -46 -1q-12 -9 -19 -17l-74 -105q-2 -3 -7 -15q-12 -32 14 -52q28 -19 54 2q9 7 18 17l69 98q6 10 8 15l2.5 7.5t1.5 5.5zM178 500h-99q-23 0 -34 -1q-14 -2 -23 -7q-22 -13 -21 -38q2 -23 23 -32q8 -4 19 -6q10 -1 29 -1q22 0 33 -1
q26 -3 29 -30q0 -3 0.5 -8.5t0.5 -8.5v-232q0 -6 -2 -20q-2 -25 -26 -27q-11 -2 -33 -2q-5 0 -16 -1t-17 -1q-22 -3 -35 -21q-6 -7 -6 -19q2 -32 31 -40q16 -4 36 -4h224q16 0 24 2q12 2 20 7q16 8 19.5 27.5t-13.5 34.5q-13 12 -30 13q-6 1 -18.5 1.5t-18.5 0.5q-9 0 -29 2
q-19 4 -21 22q-3 20 -3 37v207q0 14 1 21q1 22 9.5 30.5t31.5 9.5q27 0 41 1q15 0 24 4q24 9 26 34q1 14 -6.5 25.5t-21.5 16.5q-12 4 -37 4h-111z" />
    <glyph glyph-name="icircumflex" unicode="&#xee;" horiz-adv-x="445" 
d="M26 632q0 -22 18.5 -35.5t39.5 -5.5q15 6 27 18l14 14t16 16.5t14 13.5q15 15 26 15t27 -14l40 -42q18 -16 27 -19q26 -11 46 6q21 18 14 45q-3 9 -9 18q-1 3 -12 16l-87 90q-3 3 -18 16q-27 19 -55 0q-12 -9 -21 -19l-81 -83q-6 -7 -18 -23q-8 -11 -8 -27zM178 500h-99
q-23 0 -34 -1q-14 -2 -23 -7q-22 -13 -21 -38q2 -23 23 -32q8 -4 19 -6q10 -1 29 -1q22 0 33 -1q26 -3 29 -30q0 -3 0.5 -8.5t0.5 -8.5v-232q0 -6 -2 -20q-2 -25 -26 -27q-11 -2 -33 -2q-5 0 -16 -1t-17 -1q-22 -3 -35 -21q-6 -7 -6 -19q2 -32 31 -40q16 -4 36 -4h224
q16 0 24 2q12 2 20 7q16 8 19.5 27.5t-13.5 34.5q-13 12 -30 13q-6 1 -18.5 1.5t-18.5 0.5q-9 0 -29 2q-19 4 -21 22q-3 20 -3 37v207q0 14 1 21q1 22 9.5 30.5t31.5 9.5q27 0 41 1q15 0 24 4q24 9 26 34q1 14 -6.5 25.5t-21.5 16.5q-12 4 -37 4h-111z" />
    <glyph glyph-name="idieresis" unicode="&#xef;" horiz-adv-x="445" 
d="M267 705q-25 -1 -42.5 -18.5t-17.5 -43.5q1 -25 18.5 -42.5t42.5 -17.5q26 -1 44.5 18t17.5 46q-2 25 -20 42t-43 16zM158 644q0 26 -18 43.5t-43 17.5q-26 0 -43.5 -17t-18.5 -42q-1 -26 18 -45.5t45 -18.5q25 1 42 19t18 43zM178 500h-99q-23 0 -34 -1q-14 -2 -23 -7
q-22 -13 -21 -38q2 -23 23 -32q8 -4 19 -6q10 -1 29 -1q22 0 33 -1q26 -3 29 -30q0 -3 0.5 -8.5t0.5 -8.5v-232q0 -6 -2 -20q-2 -25 -26 -27q-11 -2 -33 -2q-5 0 -16 -1t-17 -1q-22 -3 -35 -21q-6 -7 -6 -19q2 -32 31 -40q16 -4 36 -4h224q16 0 24 2q12 2 20 7
q16 8 19.5 27.5t-13.5 34.5q-13 12 -30 13q-6 1 -18.5 1.5t-18.5 0.5q-9 0 -29 2q-19 4 -21 22q-3 20 -3 37v207q0 14 1 21q1 22 9.5 30.5t31.5 9.5q27 0 41 1q15 0 24 4q24 9 26 34q1 14 -6.5 25.5t-21.5 16.5q-12 4 -37 4h-111z" />
    <glyph glyph-name="eth" unicode="&#xf0;" horiz-adv-x="711" 
d="M519 453q79 -58 98 -154t-33 -178q-69 -110 -198 -119q-27 -2 -124 -2q-31 0 -46 1q-8 0 -24 2q-30 6 -36 36q-4 17 -4 41v122h-85q-28 0 -41 6q-26 13 -26 39q-2 27 24 40q10 5 24 6q5 1 33 1h71v129q0 13 2 37q6 36 41 41q14 2 21 2q107 0 161 -1q78 0 142 -49z
M531 217q11 53 -12 103t-70 76q-37 21 -80 21q-30 1 -91 1q-1 0 -7 -1t-9 -2q-19 -4 -21 -22q-2 -11 -2 -33v-66h98q22 0 33 -1q8 0 20 -4q29 -10 29 -41q0 -14 -8.5 -25.5t-21.5 -15.5q-9 -3 -28 -5q-15 -1 -46 -1q-13 0 -38 0.5t-38 0.5v-70q0 -12 3 -24q3 -14 16 -17
q7 -2 21 -4h49v-1q6 0 26.5 0.5t31.5 1.5q53 5 93.5 41t51.5 88z" />
    <glyph glyph-name="ntilde" unicode="&#xf1;" horiz-adv-x="529" 
d="M287 565q6 0 20 2q57 11 80 67q8 16 1 33t-23 24t-33 0t-24 -23q-6 -14 -17 -16q-9 -2 -37 14q-15 10 -32 17q-90 40 -149 -51q-10 -15 -6 -32.5t19 -27.5t32 -6t27 19q13 19 22 22q7 3 21 -3q9 -4 22 -12q45 -27 77 -27zM439 246v157v37q-2 17 -5 24q-4 12 -14.5 19.5
t-23.5 7.5q-25 0 -36 -24q-5 -12 -5 -24q-1 -12 -1 -37v-170q0 -19 -3 -37q-1 -8 -9 -11t-13 2q-21 19 -29 30q-23 26 -64 74t-55 64q-62 73 -86 100q-13 16 -27 26q-16 11 -35.5 5.5t-26.5 -24.5q-4 -14 -5 -20q-1 -10 -1 -29v-344q0 -11 2 -33q1 -17 19 -31q10 -8 23 -8
t23 8q19 16 19 35q1 11 1 33q1 19 1 56v56v42q-1 41 0 41l3 24q2 6 9 8t12 -2q16 -14 23 -23q68 -78 202 -236q15 -17 32 -32q7 -7 23 -9q15 -2 28.5 7.5t16.5 25.5q2 13 2 38v174z" />
    <glyph glyph-name="ograve" unicode="&#xf2;" horiz-adv-x="568" 
d="M270 578q20 0 33 15.5t9 34.5q-1 12 -8 23q-25 36 -77 108q-5 7 -15 14q-26 19 -50 2q-30 -20 -17 -51q7 -16 15 -29q20 -29 60 -85q15 -18 19 -21q12 -11 31 -11zM478 250q-1 102 -73 174.5t-175 73.5q-104 0 -177 -73t-73 -177q0 -100 72 -174.5t180 -73.5t177.5 76
t68.5 174zM230 411q65 0 113.5 -47.5t47.5 -116.5q0 -67 -48.5 -114.5t-116.5 -46.5q-66 2 -112.5 49t-46.5 113q0 68 47.5 115.5t115.5 47.5z" />
    <glyph glyph-name="oacute" unicode="&#xf3;" horiz-adv-x="568" 
d="M338 718q2 32 -21 45q-22 13 -46 -1q-12 -9 -19 -17l-74 -105q-2 -3 -7 -15q-12 -32 14 -52q28 -19 54 2q9 7 18 17l69 98q6 10 8 15q1 3 2 8zM478 250q-1 102 -73 174.5t-175 73.5q-104 0 -177 -73t-73 -177q0 -100 72 -174.5t180 -73.5t177.5 76t68.5 174zM230 411
q65 0 113.5 -47.5t47.5 -116.5q0 -67 -48.5 -114.5t-116.5 -46.5q-66 2 -112.5 49t-46.5 113q0 68 47.5 115.5t115.5 47.5z" />
    <glyph glyph-name="ocircumflex" unicode="&#xf4;" horiz-adv-x="568" 
d="M78 610q0 -22 18.5 -35.5t39.5 -5.5q15 6 27 18l44 44q15 15 26 15t27 -14l40 -42q18 -16 27 -19q26 -11 46 6q21 18 14 45q-3 9 -9 18q-1 3 -12 16l-87 90q-3 3 -18 16q-27 19 -55 0q-12 -9 -21 -19l-81 -83q-6 -7 -18 -23q-8 -11 -8 -27zM478 250q-1 102 -73 174.5
t-175 73.5q-104 0 -177 -73t-73 -177q0 -100 72 -174.5t180 -73.5t177.5 76t68.5 174zM230 411q65 0 113.5 -47.5t47.5 -116.5q0 -67 -48.5 -114.5t-116.5 -46.5q-66 2 -112.5 49t-46.5 113q0 68 47.5 115.5t115.5 47.5z" />
    <glyph glyph-name="otilde" unicode="&#xf5;" horiz-adv-x="568" 
d="M302 582q6 0 20 2q57 11 80 67q8 16 1 33t-23 24t-33 0t-24 -23q-6 -14 -17 -16q-9 -2 -37 14q-15 10 -32 17q-90 40 -149 -51q-10 -15 -6 -32.5t19 -27.5t32 -6t27 19q13 19 22 22q8 3 21 -3q9 -4 22 -12q45 -27 77 -27zM478 250q-1 102 -73 174.5t-175 73.5
q-104 0 -177 -73t-73 -177q0 -100 72 -174.5t180 -73.5t177.5 76t68.5 174zM230 411q65 0 113.5 -47.5t47.5 -116.5q0 -67 -48.5 -114.5t-116.5 -46.5q-66 2 -112.5 49t-46.5 113q0 68 47.5 115.5t115.5 47.5z" />
    <glyph glyph-name="odieresis" unicode="&#xf6;" horiz-adv-x="568" 
d="M313 716q-25 -1 -42.5 -18.5t-17.5 -43.5q1 -25 18.5 -42.5t42.5 -17.5q26 -1 44.5 18t17.5 46q-2 25 -20 42t-43 16zM204 655q0 25 -18 43t-43 18q-26 0 -43.5 -17t-18.5 -42q-1 -26 18 -45.5t45 -18.5q25 1 42 19t18 43zM478 250q-1 102 -73 174.5t-175 73.5
q-104 0 -177 -73t-73 -177q0 -100 72 -174.5t180 -73.5t177.5 76t68.5 174zM230 411q65 0 113.5 -47.5t47.5 -116.5q0 -67 -48.5 -114.5t-116.5 -46.5q-66 2 -112.5 49t-46.5 113q0 68 47.5 115.5t115.5 47.5z" />
    <glyph glyph-name="divide" unicode="&#xf7;" horiz-adv-x="510" 
d="M214 486q-25 -1 -42 -19t-17 -43q1 -25 18.5 -42.5t43.5 -17.5q25 -1 43.5 18.5t17.5 45.5q-2 25 -20.5 42t-43.5 16zM209 320h-128q-22 0 -33 -1q-15 -2 -24 -7q-24 -12 -24 -40q2 -27 27 -39q12 -6 40 -6h249q30 0 45 1q10 0 28 4q29 8 31 41q0 31 -29 41q-14 4 -20 5
q-11 1 -34 1h-128zM278 123q0 25 -17.5 43t-42.5 18q-25 1 -43 -15.5t-20 -42.5q-1 -26 17 -45t45 -19q24 0 42 18t19 43z" />
    <glyph glyph-name="oslash" unicode="&#xf8;" horiz-adv-x="584" 
d="M475 636q21 -13 19 -42q-1 -2 -3 -9.5t-4 -11.5q-14 -24 -21 -35l-68 -107q78 -72 80 -181q1 -99 -68.5 -174t-177.5 -76q-51 0 -96 17q-8 -14 -42 -67q-10 -15 -23 -29q-11 -11 -26 -11q-19 -2 -32.5 11t-12.5 32q2 13 7 24q3 6 9.5 17.5t8.5 14.5l36 56q-81 75 -81 183
q0 104 73 177t177 73q47 0 93 -19q56 89 65 103q17 26 21 31q6 10 19 21q22 18 47 2zM67 248q0 -60 41 -108q112 176 167 264q-20 7 -45 7q-68 0 -115.5 -47.5t-47.5 -115.5zM391 247q0 63 -40 109q-15 -24 -74.5 -118t-92.5 -145q23 -7 42 -7q68 -1 116.5 46.5t48.5 114.5z
" />
    <glyph glyph-name="ugrave" unicode="&#xf9;" horiz-adv-x="589" 
d="M289 574q20 0 33 15.5t9 34.5q-1 12 -8 23q-25 36 -77 108q-5 7 -15 14q-26 19 -50 2q-30 -20 -17 -51q6 -16 15 -29q20 -29 60 -85q15 -18 19 -21q12 -11 31 -11zM1 334v-74q1 -7 1 -21t1 -21q11 -93 79 -155q62 -56 141 -63q113 -12 198 65q58 52 73 132q6 33 6 66v153
q0 19 -1 29q-2 14 -4 20q-10 28 -38 28t-38 -27q-4 -14 -4 -20q-1 -13 -1 -38q0 -93 -1 -140q0 -31 -2 -46q-10 -62 -58 -100.5t-108 -36.5q-62 2 -106.5 44.5t-49.5 104.5q-1 6 -1 37v64t-1 64v33q0 14 -2 21q-2 18 -13.5 28.5t-26.5 11.5q-35 0 -42 -39q-2 -22 -2 -33v-87
z" />
    <glyph glyph-name="uacute" unicode="&#xfa;" horiz-adv-x="589" 
d="M390 723q2 32 -21 45q-22 13 -46 -1q-12 -9 -19 -17l-74 -105q-2 -3 -7 -15q-12 -32 14 -52q28 -19 54 2q9 7 18 17l69 98q6 10 8 15q1 3 2 8zM1 334v-74q1 -7 1 -21t1 -21q11 -93 79 -155q62 -56 141 -63q113 -12 198 65q58 52 73 132q6 33 6 66v153q0 19 -1 29
q-2 14 -4 20q-10 28 -38 28t-38 -27q-4 -14 -4 -20q-1 -13 -1 -38q0 -93 -1 -140q0 -31 -2 -46q-10 -62 -58 -100.5t-108 -36.5q-62 2 -106.5 44.5t-49.5 104.5q-1 6 -1 37v64t-1 64v33q0 14 -2 21q-2 18 -13.5 28.5t-26.5 11.5q-35 0 -42 -39q-2 -22 -2 -33v-87z" />
    <glyph glyph-name="ucircumflex" unicode="&#xfb;" horiz-adv-x="589" 
d="M95 636q0 -22 18.5 -35.5t39.5 -5.5q15 6 27 18l14 14t16 16.5t14 13.5q15 15 26 15t27 -14l40 -42q18 -16 27 -19q26 -11 46 6q21 18 14 45q-3 9 -9 18q-1 3 -12 16l-87 90q-3 3 -18 16q-28 19 -55 0q-12 -9 -21 -19l-81 -83q-6 -7 -18 -23q-8 -11 -8 -27zM1 334v-74
q1 -7 1 -21t1 -21q11 -93 79 -155q62 -56 141 -63q113 -12 198 65q58 52 73 132q6 33 6 66v153q0 19 -1 29q-2 14 -4 20q-10 28 -38 28t-38 -27q-4 -14 -4 -20q-1 -13 -1 -38q0 -93 -1 -140q0 -31 -2 -46q-10 -62 -58 -100.5t-108 -36.5q-62 2 -106.5 44.5t-49.5 104.5
q-1 6 -1 37v64t-1 64v33q0 14 -2 21q-2 18 -13.5 28.5t-26.5 11.5q-35 0 -42 -39q-2 -22 -2 -33v-87z" />
    <glyph glyph-name="udieresis" unicode="&#xfc;" horiz-adv-x="589" 
d="M331 745q-25 -1 -42.5 -18.5t-17.5 -43.5q1 -25 18.5 -42.5t42.5 -17.5q26 -1 44.5 18t17.5 46q-2 25 -20 42t-43 16zM222 684q0 26 -18 43.5t-43 17.5q-26 0 -43.5 -17t-18.5 -42q-1 -26 18 -45.5t45 -18.5q25 1 42 19t18 43zM1 334v-74q1 -7 1 -21t1 -21
q11 -93 79 -155q62 -56 141 -63q113 -12 198 65q58 52 73 132q6 33 6 66v153q0 19 -1 29q-2 14 -4 20q-10 28 -38 28t-38 -27q-4 -14 -4 -20q-1 -13 -1 -38q0 -93 -1 -140q0 -31 -2 -46q-10 -62 -58 -100.5t-108 -36.5q-62 2 -106.5 44.5t-49.5 104.5q-1 6 -1 37v64t-1 64
v33q0 14 -2 21q-2 18 -13.5 28.5t-26.5 11.5q-35 0 -42 -39q-2 -22 -2 -33v-87z" />
    <glyph glyph-name="yacute" unicode="&#xfd;" horiz-adv-x="522" 
d="M335 733q2 32 -21 45q-22 13 -46 -1q-12 -9 -19 -17l-74 -105q-2 -3 -7 -15q-12 -32 14 -52q28 -19 54 2q9 7 18 17l69 98q6 10 8 15q1 3 3 8zM38 492q-15 -1 -26 -11.5t-12 -25.5q0 -15 4 -24q3 -7 17 -38q12 -23 51.5 -99t60.5 -118q5 -11 17 -33q12 -24 12 -52t2 -41
q2 -18 7 -28q11 -24 37 -22q22 1 33 22q5 9 7 23q2 11 2 33q-3 38 20 75q8 13 22 39q10 17 116 202q15 27 16 29q6 14 7 23q5 29 -21 41q-23 11 -43 -4q-7 -5 -17 -18q-3 -5 -9 -15.5t-8 -13.5q-15 -25 -44.5 -77t-44.5 -77q-5 -10 -17 -28l-9 -9q-3 -3 -9.5 -3t-9.5 4
q-8 8 -10 12q-4 6 -22 40l-74 144q-14 24 -22 35q-12 15 -33 15z" />
    <glyph glyph-name="thorn" unicode="&#xfe;" horiz-adv-x="535" 
d="M295 492q63 -11 107 -62.5t43 -119.5t-43.5 -118.5t-108.5 -61.5q-7 -1 -46 -4h-87h-33q-23 -2 -31.5 -10t-9.5 -30q-1 -14 -1 -41q0 -11 -8 -24q-16 -24 -42 -19q-12 2 -22 12t-11 22q-2 22 -2 33v174v173v2v15v113q0 20 1 30q2 12 4 17q10 26 39 26q12 0 22.5 -7.5
t14.5 -19.5q4 -16 4 -25q1 -13 1 -40v-31h54h64h54q13 0 37 -4zM294 219q30 11 48 37.5t17 58.5q-2 31 -21 55.5t-49 33.5q-15 5 -28 5h-137q-20 -1 -28.5 -9.5t-9.5 -28.5q-1 0 0 -60v-60q0 -2 0.5 -6.5t0.5 -6.5q3 -21 25 -24q4 0 11 -1t10 -1h54q44 0 66 1q20 0 41 6z
" />
    <glyph glyph-name="ydieresis" unicode="&#xff;" horiz-adv-x="522" 
d="M296 720q-25 -1 -42.5 -18.5t-17.5 -43.5q1 -25 18.5 -42.5t42.5 -17.5q26 -1 44.5 18t17.5 46q-2 25 -20 42t-43 16zM187 659q0 25 -17.5 43t-43.5 18t-43.5 -17t-18.5 -42q-1 -26 18 -45.5t45 -18.5q25 1 42 19t18 43zM38 492q-15 -1 -26 -11.5t-12 -25.5q0 -15 4 -24
q3 -7 17 -38q12 -23 51.5 -99t60.5 -118q5 -11 17 -33q12 -24 12 -52t2 -41q2 -18 7 -28q11 -24 37 -22q22 1 33 22q5 9 7 23q2 11 2 33q-3 38 20 75q8 13 22 39q10 17 116 202q15 27 16 29q6 14 7 23q5 29 -21 41q-23 11 -43 -4q-7 -5 -17 -18q-3 -5 -9 -15.5t-8 -13.5
q-15 -25 -44.5 -77t-44.5 -77q-5 -10 -17 -28l-9 -9q-3 -3 -9.5 -3t-9.5 4q-8 8 -10 12q-4 6 -22 40l-74 144q-14 24 -22 35q-12 15 -33 15z" />
    <glyph glyph-name="OE" unicode="&#x152;" horiz-adv-x="1349" 
d="M1234 324q26 -59 25 -121q-3 -111 -82.5 -188t-191.5 -77q-81 0 -148 43.5t-100 116.5q-57 -78 -142.5 -124t-180.5 -48q-93 -3 -177 36q-70 32 -128 94q-102 110 -108 259q-6 145 78 257q109 147 288 165q116 12 207 -55q67 -50 96 -129t7 -160q-45 -170 -221 -207
q-14 -3 -42 -3q-7 0 -21 4q-24 11 -25 36q-2 26 21 37q8 4 24 8q4 1 11 2t12.5 2t10.5 2q77 16 121 85q31 55 29 112.5t-41.5 107t-102.5 65.5q-53 13 -109 1q-184 -42 -243 -223q-14 -47 -13 -90q2 -82 43.5 -153.5t111.5 -114.5l27 -15q62 -30 132 -33t133 24
q143 66 182 216q1 10 5 25q0 2 2 17t4 23q2 16 5 24q7 22 33 27q20 28 48 50l27 20q22 18 13 43q-2 6 -6 16.5t-5 14.5q-14 53 6 104t66 79q62 38 132.5 16.5t99.5 -86.5q9 -24 8 -40t-12.5 -27t-28.5 -10q-18 0 -29 14q-3 3 -7.5 10.5t-6.5 10.5q-1 1 -5.5 8.5t-7.5 11.5
q-33 41 -82 25q-22 -8 -36.5 -26.5t-15.5 -41.5q-1 -24 12 -44t35 -28q10 -4 32 -8l32 -3q13 -3 25 -15q12 -15 8.5 -33.5t-20.5 -26.5q-15 -7 -28 -8q-5 0 -21 -0.5t-25 -1.5q-69 -5 -118 -52q-32 -32 -45 -68q-3 -21 -11 -51q-5 -45 16 -91q25 -55 77 -85t111 -24
q58 5 103 43.5t59 95.5q13 47 -1 98q-1 3 -5.5 15.5t-6.5 19.5q-4 14 -4 20q0 26 22 37q22 12 43 -4q11 -9 20 -26z" />
    <glyph glyph-name="oe" unicode="&#x153;" horiz-adv-x="914" 
d="M822 54q6 -20 -7 -35q-11 -14 -28 -17q-15 -3 -32 -3h-295q-16 0 -33 3q-35 7 -38 43q0 2 -0.5 6t-0.5 5q-66 -55 -156 -56q-108 -1 -180 73.5t-72 174.5q0 104 73 177t177 73q90 0 159 -59q0 3 0.5 8.5t0.5 7.5q5 35 40 41q5 1 10.5 1.5t12 1t10.5 0.5h91h179
q27 0 41 -2q11 0 24 -5q26 -10 24 -40q-1 -25 -25 -34q-12 -5 -20 -5q-13 -1 -38 -1q-132 0 -199 -1q-24 0 -37 -1q-25 -2 -28 -26q-3 -35 1 -66q2 -21 24 -24q5 0 16 -1t17 -1h104q22 0 33 -1q8 0 20 -4q27 -8 29 -37q1 -13 -7.5 -24.5t-22.5 -15.5q-16 -4 -24 -4
q-11 -1 -33 -1h-100q-19 0 -29 -1q-26 -2 -28 -26q-1 -33 0 -66q2 -21 24 -25q26 -2 37 -2h212q20 0 41 -3q24 -4 33 -28zM226 86q59 -1 105 36t57 94v32v32q-11 57 -56 94t-102 37q-68 0 -115.5 -47.5t-47.5 -115.5q0 -66 46.5 -113t112.5 -49z" />
    <glyph glyph-name="Wcircumflex" unicode="&#x174;" horiz-adv-x="1030" 
d="M494 835q0 -22 18.5 -35.5t39.5 -5.5q15 6 27 18l44 44q15 15 26 15t27 -14l40 -42q18 -16 27 -19q26 -11 46 6q21 18 14 45q-3 9 -9 18q-1 3 -12 16l-87 90q-3 3 -18 16q-27 19 -55 0q-12 -9 -21 -19l-81 -83q-6 -7 -18 -23q-8 -11 -8 -27zM482 480q2 -19 -5 -49
q-42 -151 -187 -179q-149 -30 -245 95q-19 26 -32 63q-6 15 -9 31t-3.5 31t0.5 29t3 26t4 20t4 15l2 6q26 71 84.5 114t134.5 47q14 1 83 1q58 0 58 -60q0 -16 0.5 -48t0.5 -47v-14.5v-17v-14.5q0 -3 1 -24t2 -30q0 -3 5 -6q5 0 7 4t6.5 16t6.5 15q8 11 14 15
q15 12 33.5 7.5t26.5 -22.5q3 -7 5 -24zM930 581q0 56 -1 83q0 16 -3 29q-6 22 -27 29q-16 5 -30.5 -2.5t-19.5 -23.5q-3 -8 -5 -37q-6 -126 -6 -128q-10 -132 -40 -241q-17 -60 -42 -113q-52 -105 -128 -149q-26 -15 -21 -45q2 -14 4 -21q3 -13 12.5 -18.5t21.5 -1.5
q16 6 23 10q35 17 64 45q54 49 92 123q39 72 63 166q31 118 43 295zM674 597v67q0 14 -3 28q-6 30 -39 32q-31 0 -39 -31q-2 -7 -4 -21q0 -6 -0.5 -18.5t-0.5 -18.5q-1 -92 -16 -198q-19 -125 -64 -228q-26 -59 -61 -103q-6 -7 -38 -39q-2 -2 -14 -7q-13 -4 -17 8
q-4 10 -4 16q-1 15 -1 46q-2 20 -4 28q-4 14 -14.5 23t-24.5 9t-25 -8.5t-14 -21.5q-4 -15 -4 -33q-1 -65 0 -129q0 -17 2 -25q3 -21 18 -31.5t36 -6.5q10 1 28 7q27 10 55 28q48 32 83 75q51 64 86 146q28 69 47 151q26 120 32 255zM289 388v100v103q0 15 -3 29
q-3 15 -19 20q-1 1 -4 1.5t-4 0.5q-85 6 -136 -56q-60 -73 -23 -160q37 -84 132 -93q20 -2 33 3q18 6 22 23q2 20 2 29z" />
    <glyph glyph-name="wcircumflex" unicode="&#x175;" horiz-adv-x="847" 
d="M224 647q0 -22 18.5 -35.5t39.5 -5.5q15 6 27 18l44 44q15 15 26 15t27 -14l40 -42q18 -16 27 -19q26 -11 46 6q21 18 14 45q-3 9 -9 18q-1 3 -12 16l-87 90q-3 3 -18 16q-28 19 -55 0q-12 -9 -21 -19l-81 -83q-6 -7 -18 -23q-8 -11 -8 -27zM504 161q-8 2 -12 5
q-5 4 -8 9q-8 17 -24.5 52t-24.5 53q-10 20 1 44q1 3 3.5 8t5 9.5t4.5 8.5l30 58q9 19 13 31q8 31 -19 46q-28 17 -49 -7q-3 -3 -19 -27q-1 -2 -7 -10.5t-10 -12.5q-3 -4 -9.5 -4.5t-9.5 3.5q-8 10 -14 20q-2 3 -9 14t-12 17q-17 19 -42 11q-30 -11 -27 -42q3 -17 9 -32
q5 -10 14 -30t14 -30q8 -15 15 -34q7 -18 -1 -36q-1 -3 -3.5 -8.5t-3.5 -7.5l-45 -84q-1 -3 -4.5 -8t-4.5 -6l-3 -3t-2 -3q-12 -10 -23 1q-8 8 -21 36q-70 150 -106 225q-10 22 -16 33q-10 14 -15 20q-22 20 -46 6q-27 -14 -22 -41q4 -16 7 -24q3 -7 6.5 -14.5t8 -16.5
t6.5 -14q69 -149 143 -304q10 -22 22 -44q7 -10 16 -19q11 -10 26.5 -10t26.5 10q8 8 15 20q10 15 26 47q15 26 43 80q6 10 14 20q4 4 11.5 4t10.5 -4q5 -6 17 -28q10 -19 52 -109l10 -18q15 -22 37.5 -22t38.5 22l3.5 7t4.5 7q24 44 35 66q68 128 151 286q9 16 19 37
q4 10 6 24q2 24 -21 38q-21 12 -42 -3q-9 -6 -15 -15q-10 -16 -14 -25l-57 -106q-12 -23 -36.5 -69.5t-36.5 -69.5q-14 -26 -20 -31q-1 -1 -11 -6z" />
    <glyph glyph-name="Ycircumflex" unicode="&#x176;" horiz-adv-x="815" 
d="M361 827q0 -22 18.5 -35.5t39.5 -5.5q15 6 27 18l14 14t16 16.5t14 13.5q15 15 26 15t27 -14l40 -42q18 -16 27 -19q26 -11 46 6q21 18 14 45q-3 9 -9 18q-1 3 -12 16l-87 90q-3 3 -18 16q-28 19 -55 0q-12 -9 -21 -19l-81 -83q-6 -7 -18 -23q-8 -11 -8 -27zM705 421v216
q0 25 -1 37q-2 14 -4 20q-4 13 -14.5 20.5t-22.5 7.5q-33 0 -40 -30q-3 -12 -3 -25q-1 -16 -1 -49v-369q0 -28 -2 -41q-2 -22 -23 -26q-60 -7 -103 7q-55 18 -85 69q-17 28 4 53q3 4 10.5 12.5t10.5 12.5q42 53 50 122q2 21 -2 36q-6 19 -25 27t-35 -3q-9 -6 -15 -15
q-3 -4 -7 -12.5t-7 -12.5q-2 -2 -4 -1q-5 3 -6 4q-4 16 -4 24q-2 50 -2 74v83q0 64 -62 65q-50 0 -75 -1q-27 -2 -49 -7q-150 -39 -181 -184q-31 -146 89 -242q68 -54 164 -49q22 2 33 2q15 1 25 -12q4 -5 10 -15.5t10 -15.5q48 -71 126 -96q17 -5 53 -11q5 -1 16 -2.5
t16 -2.5q8 -1 10.5 -9.5t-2.5 -13.5q-9 -10 -18 -17q-34 -22 -77 -27q-15 -1 -46 -1q-9 -1 -27 -1h-27q-15 -2 -28 -6q-24 -10 -24 -36q0 -25 23 -36q11 -6 24 -6q83 -4 124 2q93 13 155 80t68 161q1 15 1 46v194zM289 485q0 -64 -1 -96q0 -19 -1 -29q-3 -23 -26 -28
q-22 -4 -50 1q-56 12 -91 56.5t-32 102.5q2 57 41.5 99t96.5 47q6 1 33 1q25 -2 28 -26q1 -10 1 -29q1 -33 1 -99z" />
    <glyph glyph-name="ycircumflex" unicode="&#x177;" horiz-adv-x="522" 
d="M62 618q0 -22 18.5 -35.5t39.5 -5.5q15 6 27 18l14 14t16 16.5t14 13.5q15 15 26 15t27 -14l40 -42q18 -16 27 -19q26 -11 46 6q21 18 14 45q-3 9 -9 18q-1 3 -12 16l-87 90q-3 3 -18 16q-27 19 -55 0q-12 -9 -21 -19l-81 -83q-6 -7 -18 -23q-8 -11 -8 -27zM38 492
q-15 -1 -26 -11.5t-12 -25.5q0 -15 4 -24q3 -7 17 -38q12 -23 51.5 -99t60.5 -118q5 -11 17 -33q12 -24 12 -52t2 -41q2 -18 7 -28q11 -24 37 -22q22 1 33 22q5 9 7 23q2 11 2 33q-3 38 20 75q8 13 22 39q10 17 116 202q15 27 16 29q6 14 7 23q5 29 -21 41q-23 11 -43 -4
q-7 -5 -17 -18q-3 -5 -9 -15.5t-8 -13.5q-15 -25 -44.5 -77t-44.5 -77q-5 -10 -17 -28l-9 -9q-3 -3 -9.5 -3t-9.5 4q-8 8 -10 12q-4 6 -22 40l-74 144q-14 24 -22 35q-12 15 -33 15z" />
    <glyph glyph-name="Ydieresis" unicode="&#x178;" horiz-adv-x="815" 
d="M598 916q-25 -1 -42.5 -18.5t-17.5 -43.5q1 -25 18.5 -42.5t42.5 -17.5q26 -1 44.5 18t17.5 46q-2 25 -20 42t-43 16zM489 855q0 25 -17.5 43t-43.5 18t-43.5 -17t-18.5 -42q-1 -26 18 -45.5t45 -18.5q25 1 42 19t18 43zM705 421v216q0 25 -1 37q-2 14 -4 20
q-4 13 -14.5 20.5t-22.5 7.5q-33 0 -40 -30q-3 -12 -3 -25q-1 -16 -1 -49v-369q0 -28 -2 -41q-2 -22 -23 -26q-60 -7 -103 7q-55 18 -85 69q-17 28 4 53q3 4 10.5 12.5t10.5 12.5q42 53 50 122q2 21 -2 36q-6 19 -25 27t-35 -3q-9 -6 -15 -15q-3 -4 -7 -12.5t-7 -12.5
q-2 -2 -4 -1q-5 3 -6 4q-4 16 -4 24q-2 50 -2 74v83q0 64 -62 65q-50 0 -75 -1q-27 -2 -49 -7q-150 -39 -181 -184q-31 -146 89 -242q68 -54 164 -49q22 2 33 2q15 1 25 -12q4 -5 10 -15.5t10 -15.5q48 -71 126 -96q17 -5 53 -11q5 -1 16 -2.5t16 -2.5q8 -1 10.5 -9.5
t-2.5 -13.5q-9 -10 -18 -17q-34 -22 -77 -27q-15 -1 -46 -1q-9 -1 -27 -1h-27q-15 -2 -28 -6q-24 -10 -24 -36q0 -25 23 -36q11 -6 24 -6q83 -4 124 2q93 13 155 80t68 161q1 15 1 46v194zM289 485q0 -64 -1 -96q0 -19 -1 -29q-3 -23 -26 -28q-22 -4 -50 1q-56 12 -91 56.5
t-32 102.5q2 57 41.5 99t96.5 47q6 1 33 1q25 -2 28 -26q1 -10 1 -29q1 -33 1 -99z" />
    <glyph glyph-name="gravecomb" unicode="&#x300;" 
d="M-133 615q20 0 33 15.5t9 34.5q-1 12 -8 23q-25 36 -77 108q-5 7 -15 14q-26 19 -50 2q-30 -20 -17 -51q6 -16 15 -29q20 -29 60 -85q15 -18 19 -21q12 -11 31 -11z" />
    <glyph glyph-name="acutecomb" unicode="&#x301;" 
d="M-90 768q2 32 -21 45q-22 13 -46 -1q-12 -9 -19 -17l-74 -105q-2 -3 -7 -15q-12 -32 14 -52q28 -19 54 2q9 7 18 17l69 98q6 10 8 15q1 3 2 8z" />
    <glyph glyph-name="uni0302" unicode="&#x302;" 
d="M-401 647q0 -22 18.5 -35.5t39.5 -5.5q15 6 27 18l44 44q15 15 26 15t27 -14l40 -42q18 -16 27 -19q26 -11 46 6q21 18 14 45q-3 9 -9 18q-1 3 -12 16l-87 90q-3 3 -18 16q-28 19 -55 0q-12 -9 -21 -19l-81 -83q-6 -7 -18 -23q-8 -11 -8 -27z" />
    <glyph glyph-name="tildecomb" unicode="&#x303;" 
d="M131 664q6 0 20 2q57 11 80 67q8 16 1 33t-23 24t-33 0t-24 -23q-6 -14 -17 -16q-9 -2 -37 14q-15 10 -32 17q-90 40 -149 -51q-10 -15 -6 -32.5t19 -27.5t32 -6t27 19q13 19 22 22q7 3 21 -3q9 -4 22 -12q45 -27 77 -27z" />
    <glyph glyph-name="uni0307" unicode="&#x307;" 
d="M-154 793q-25 -1 -42 -19t-17 -43q1 -25 18.5 -42.5t43.5 -17.5q25 -1 43.5 18.5t17.5 45.5q-2 25 -20.5 42t-43.5 16z" />
    <glyph glyph-name="uni0308" unicode="&#x308;" 
d="M-153 778q-25 -1 -42.5 -18.5t-17.5 -43.5q1 -25 18.5 -42.5t42.5 -17.5q26 -1 44.5 18t17.5 46q-2 25 -20 42t-43 16zM-262 717q0 25 -18 43t-43 18q-26 0 -43.5 -17t-18.5 -42q-1 -26 18 -45.5t45 -18.5q25 1 42 19t18 43z" />
    <glyph glyph-name="uni030A" unicode="&#x30a;" 
d="M-90 713q1 53 -34 91t-88 40q-55 2 -93 -35t-40 -88q-1 -54 36 -92t90 -39q52 -1 89.5 35t39.5 88zM-216 686q-13 0 -22 9t-10 22q0 13 9.5 22.5t22.5 8.5q11 -1 20 -9t10 -20q1 -13 -8 -22.5t-22 -10.5z" />
    <glyph glyph-name="uni0327" unicode="&#x327;" 
d="M-191 -174q72 17 94 84q24 70 -27 127q-7 8 -25 22q-16 13 -22 33l-6 16q-13 29 -42 27q-34 -2 -41 -35q-1 -3 -4 -35q2 -32 3 -35q3 -30 31 -40q20 -8 30 -14q9 -4 12 -15t-1 -21q-6 -19 -29 -19q-15 0 -25 12q-2 2 -4.5 7l-3.5 7q-8 21 -9 23q-11 24 -40 24
q-31 -2 -41 -31q-5 -19 0 -45q13 -49 57 -76t93 -16z" />
    <glyph glyph-name="uni0335" unicode="&#x335;" 
d="M-301 293h-128q-22 0 -33 -1q-15 -2 -24 -7q-24 -12 -24 -40q2 -27 27 -39q12 -6 40 -6h249q30 0 45 1q10 0 28 4q29 8 31 41q0 31 -29 41q-14 4 -20 5q-11 1 -34 1h-128z" />
    <glyph glyph-name="uni0338" unicode="&#x338;" 
d="M-90 594q2 29 -19 42q-25 16 -47 -2q-13 -11 -19 -21q-4 -5 -21 -31l-363 -573q-2 -3 -8.5 -14.5t-9.5 -17.5q-5 -11 -7 -24q-1 -19 12.5 -32t32.5 -11q15 0 26 11q13 14 23 29q22 34 64 102l308 486q7 11 21 35q2 4 4 11.5t3 9.5z" />
    <glyph glyph-name="Wgrave" unicode="&#x1e80;" horiz-adv-x="1030" 
d="M691 793q20 0 33 15.5t9 34.5q-1 12 -8 23q-25 36 -77 108q-5 7 -15 14q-26 19 -50 2q-30 -20 -17 -51q6 -16 15 -29q20 -29 60 -85q15 -18 19 -21q12 -11 31 -11zM482 480q2 -19 -5 -49q-42 -151 -187 -179q-149 -30 -245 95q-19 26 -32 63q-6 15 -9 31t-3.5 31t0.5 29
t3 26t4 20t4 15l2 6q26 71 84.5 114t134.5 47q14 1 83 1q58 0 58 -60q0 -16 0.5 -48t0.5 -47v-14.5v-17v-14.5q0 -3 1 -24t2 -30q0 -3 5 -6q5 0 7 4t6.5 16t6.5 15q8 11 14 15q15 12 33.5 7.5t26.5 -22.5q3 -7 5 -24zM930 581q0 56 -1 83q0 16 -3 29q-6 22 -27 29
q-16 5 -30.5 -2.5t-19.5 -23.5q-3 -8 -5 -37q-6 -126 -6 -128q-10 -132 -40 -241q-17 -60 -42 -113q-52 -105 -128 -149q-26 -15 -21 -45q2 -14 4 -21q3 -13 12.5 -18.5t21.5 -1.5q16 6 23 10q35 17 64 45q54 49 92 123q39 72 63 166q31 118 43 295zM674 597v67q0 14 -3 28
q-6 30 -39 32q-31 0 -39 -31q-2 -7 -4 -21q0 -6 -0.5 -18.5t-0.5 -18.5q-1 -92 -16 -198q-19 -125 -64 -228q-26 -59 -61 -103q-6 -7 -38 -39q-2 -2 -14 -7q-13 -4 -17 8q-4 10 -4 16q-1 15 -1 46q-2 20 -4 28q-4 14 -14.5 23t-24.5 9t-25 -8.5t-14 -21.5q-4 -15 -4 -33
q-1 -65 0 -129q0 -17 2 -25q3 -21 18 -31.5t36 -6.5q10 1 28 7q27 10 55 28q48 32 83 75q51 64 86 146q28 69 47 151q26 120 32 255zM289 388v100v103q0 15 -3 29q-3 15 -19 20q-1 1 -4 1.5t-4 0.5q-85 6 -136 -56q-60 -73 -23 -160q37 -84 132 -93q20 -2 33 3q18 6 22 23
q2 20 2 29z" />
    <glyph glyph-name="wgrave" unicode="&#x1e81;" horiz-adv-x="847" 
d="M393 615q20 0 33 15.5t9 34.5q-1 12 -8 23q-25 36 -77 108q-5 7 -15 14q-26 19 -50 2q-30 -20 -17 -51q6 -16 15 -29q20 -29 60 -85q15 -18 19 -21q12 -11 31 -11zM504 161q-8 2 -12 5q-5 4 -8 9q-8 17 -24.5 52t-24.5 53q-10 20 1 44q1 3 3.5 8t5 9.5t4.5 8.5l30 58
q9 19 13 31q8 31 -19 46q-28 17 -49 -7q-3 -3 -19 -27q-1 -2 -7 -10.5t-10 -12.5q-3 -4 -9.5 -4.5t-9.5 3.5q-8 10 -14 20q-2 3 -9 14t-12 17q-17 19 -42 11q-30 -11 -27 -42q3 -17 9 -32q5 -10 14 -30t14 -30q8 -15 15 -34q7 -18 -1 -36q-1 -3 -3.5 -8.5t-3.5 -7.5l-45 -84
q-1 -3 -4.5 -8t-4.5 -6l-3 -3t-2 -3q-12 -10 -23 1q-8 8 -21 36q-70 150 -106 225q-10 22 -16 33q-10 14 -15 20q-22 20 -46 6q-27 -14 -22 -41q4 -16 7 -24q3 -7 6.5 -14.5t8 -16.5t6.5 -14q69 -149 143 -304q10 -22 22 -44q7 -10 16 -19q11 -10 26.5 -10t26.5 10
q8 8 15 20q10 15 26 47q15 26 43 80q6 10 14 20q4 4 11.5 4t10.5 -4q5 -6 17 -28q10 -19 52 -109l10 -18q15 -22 37.5 -22t38.5 22l3.5 7t4.5 7q24 44 35 66q68 128 151 286q9 16 19 37q4 10 6 24q2 24 -21 38q-21 12 -42 -3q-9 -6 -15 -15q-10 -16 -14 -25l-57 -106
q-12 -23 -36.5 -69.5t-36.5 -69.5q-14 -26 -20 -31q-1 -1 -11 -6z" />
    <glyph glyph-name="Wacute" unicode="&#x1e82;" horiz-adv-x="1030" 
d="M760 957q2 32 -21 45q-22 13 -46 -1q-12 -9 -19 -17l-74 -105q-2 -3 -7 -15q-12 -32 14 -52q28 -19 54 2q9 7 18 17l69 98q6 10 8 15l2.5 7.5t1.5 5.5zM482 480q2 -19 -5 -49q-42 -151 -187 -179q-149 -30 -245 95q-19 26 -32 63q-6 15 -9 31t-3.5 31t0.5 29t3 26t4 20
t4 15l2 6q26 71 84.5 114t134.5 47q14 1 83 1q58 0 58 -60q0 -16 0.5 -48t0.5 -47v-14.5v-17v-14.5q0 -3 1 -24t2 -30q0 -3 5 -6q5 0 7 4t6.5 16t6.5 15q8 11 14 15q15 12 33.5 7.5t26.5 -22.5q3 -7 5 -24zM930 581q0 56 -1 83q0 16 -3 29q-6 22 -27 29q-16 5 -30.5 -2.5
t-19.5 -23.5q-3 -8 -5 -37q-6 -126 -6 -128q-10 -132 -40 -241q-17 -60 -42 -113q-52 -105 -128 -149q-26 -15 -21 -45q2 -14 4 -21q3 -13 12.5 -18.5t21.5 -1.5q16 6 23 10q35 17 64 45q54 49 92 123q39 72 63 166q31 118 43 295zM674 597v67q0 14 -3 28q-6 30 -39 32
q-31 0 -39 -31q-2 -7 -4 -21q0 -6 -0.5 -18.5t-0.5 -18.5q-1 -92 -16 -198q-19 -125 -64 -228q-26 -59 -61 -103q-6 -7 -38 -39q-2 -2 -14 -7q-13 -4 -17 8q-4 10 -4 16q-1 15 -1 46q-2 20 -4 28q-4 14 -14.5 23t-24.5 9t-25 -8.5t-14 -21.5q-4 -15 -4 -33q-1 -65 0 -129
q0 -17 2 -25q3 -21 18 -31.5t36 -6.5q10 1 28 7q27 10 55 28q48 32 83 75q51 64 86 146q28 69 47 151q26 120 32 255zM289 388v100v103q0 15 -3 29q-3 15 -19 20q-1 1 -4 1.5t-4 0.5q-85 6 -136 -56q-60 -73 -23 -160q37 -84 132 -93q20 -2 33 3q18 6 22 23q2 20 2 29z" />
    <glyph glyph-name="wacute" unicode="&#x1e83;" horiz-adv-x="847" 
d="M507 743q2 32 -21 45q-22 13 -46 -1q-12 -9 -19 -17l-74 -105q-2 -3 -7 -15q-12 -32 14 -52q28 -19 54 2q9 7 18 17l69 98q6 10 8 15l2.5 7.5t1.5 5.5zM504 161q-8 2 -12 5q-5 4 -8 9q-8 17 -24.5 52t-24.5 53q-10 20 1 44q1 3 3.5 8t5 9.5t4.5 8.5l30 58q9 19 13 31
q8 31 -19 46q-28 17 -49 -7q-3 -3 -19 -27q-1 -2 -7 -10.5t-10 -12.5q-3 -4 -9.5 -4.5t-9.5 3.5q-8 10 -14 20q-2 3 -9 14t-12 17q-17 19 -42 11q-30 -11 -27 -42q3 -17 9 -32q5 -10 14 -30t14 -30q8 -15 15 -34q7 -18 -1 -36q-1 -3 -3.5 -8.5t-3.5 -7.5l-45 -84
q-1 -3 -4.5 -8t-4.5 -6l-3 -3t-2 -3q-12 -10 -23 1q-8 8 -21 36q-70 150 -106 225q-10 22 -16 33q-10 14 -15 20q-22 20 -46 6q-27 -14 -22 -41q4 -16 7 -24q3 -7 6.5 -14.5t8 -16.5t6.5 -14q69 -149 143 -304q10 -22 22 -44q7 -10 16 -19q11 -10 26.5 -10t26.5 10
q8 8 15 20q10 15 26 47q15 26 43 80q6 10 14 20q4 4 11.5 4t10.5 -4q5 -6 17 -28q10 -19 52 -109l10 -18q15 -22 37.5 -22t38.5 22l3.5 7t4.5 7q24 44 35 66q68 128 151 286q9 16 19 37q4 10 6 24q2 24 -21 38q-21 12 -42 -3q-9 -6 -15 -15q-10 -16 -14 -25l-57 -106
q-12 -23 -36.5 -69.5t-36.5 -69.5q-14 -26 -20 -31q-1 -1 -11 -6z" />
    <glyph glyph-name="Wdieresis" unicode="&#x1e84;" horiz-adv-x="1030" 
d="M741 929q-25 -1 -42.5 -18.5t-17.5 -43.5q1 -25 18.5 -42.5t42.5 -17.5q26 -1 44.5 18t17.5 46q-2 25 -20 42t-43 16zM632 868q0 26 -18 43.5t-43 17.5q-26 0 -43.5 -17t-18.5 -42q-1 -26 18 -45.5t45 -18.5q25 1 42 19t18 43zM482 480q2 -19 -5 -49q-42 -151 -187 -179
q-149 -30 -245 95q-19 26 -32 63q-6 15 -9 31t-3.5 31t0.5 29t3 26t4 20t4 15l2 6q26 71 84.5 114t134.5 47q14 1 83 1q58 0 58 -60q0 -16 0.5 -48t0.5 -47v-14.5v-17v-14.5q0 -3 1 -24t2 -30q0 -3 5 -6q5 0 7 4t6.5 16t6.5 15q8 11 14 15q15 12 33.5 7.5t26.5 -22.5
q3 -7 5 -24zM930 581q0 56 -1 83q0 16 -3 29q-6 22 -27 29q-16 5 -30.5 -2.5t-19.5 -23.5q-3 -8 -5 -37q-6 -126 -6 -128q-10 -132 -40 -241q-17 -60 -42 -113q-52 -105 -128 -149q-26 -15 -21 -45q2 -14 4 -21q3 -13 12.5 -18.5t21.5 -1.5q16 6 23 10q35 17 64 45
q54 49 92 123q39 72 63 166q31 118 43 295zM674 597v67q0 14 -3 28q-6 30 -39 32q-31 0 -39 -31q-2 -7 -4 -21q0 -6 -0.5 -18.5t-0.5 -18.5q-1 -92 -16 -198q-19 -125 -64 -228q-26 -59 -61 -103q-6 -7 -38 -39q-2 -2 -14 -7q-13 -4 -17 8q-4 10 -4 16q-1 15 -1 46
q-2 20 -4 28q-4 14 -14.5 23t-24.5 9t-25 -8.5t-14 -21.5q-4 -15 -4 -33q-1 -65 0 -129q0 -17 2 -25q3 -21 18 -31.5t36 -6.5q10 1 28 7q27 10 55 28q48 32 83 75q51 64 86 146q28 69 47 151q26 120 32 255zM289 388v100v103q0 15 -3 29q-3 15 -19 20q-1 1 -4 1.5t-4 0.5
q-85 6 -136 -56q-60 -73 -23 -160q37 -84 132 -93q20 -2 33 3q18 6 22 23q2 20 2 29z" />
    <glyph glyph-name="wdieresis" unicode="&#x1e85;" horiz-adv-x="847" 
d="M451 740q-25 -1 -42.5 -18.5t-17.5 -43.5q1 -25 18.5 -42.5t42.5 -17.5q26 -1 44.5 18t17.5 46q-2 25 -20 42t-43 16zM342 679q0 25 -18 43t-43 18q-26 0 -43.5 -17t-18.5 -42q-1 -26 18 -45.5t45 -18.5q25 1 42 19t18 43zM504 161q-8 2 -12 5q-5 4 -8 9q-8 17 -24.5 52
t-24.5 53q-10 20 1 44q1 3 3.5 8t5 9.5t4.5 8.5l30 58q9 19 13 31q8 31 -19 46q-28 17 -49 -7q-3 -3 -19 -27q-1 -2 -7 -10.5t-10 -12.5q-3 -4 -9.5 -4.5t-9.5 3.5q-8 10 -14 20q-2 3 -9 14t-12 17q-17 19 -42 11q-30 -11 -27 -42q3 -17 9 -32q5 -10 14 -30t14 -30
q8 -15 15 -34q7 -18 -1 -36q-1 -3 -3.5 -8.5t-3.5 -7.5l-45 -84q-1 -3 -4.5 -8t-4.5 -6l-3 -3t-2 -3q-12 -10 -23 1q-8 8 -21 36q-70 150 -106 225q-10 22 -16 33q-10 14 -15 20q-22 20 -46 6q-27 -14 -22 -41q4 -16 7 -24q3 -7 6.5 -14.5t8 -16.5t6.5 -14q69 -149 143 -304
q10 -22 22 -44q7 -10 16 -19q11 -10 26.5 -10t26.5 10q8 8 15 20q10 15 26 47q15 26 43 80q6 10 14 20q4 4 11.5 4t10.5 -4q5 -6 17 -28q10 -19 52 -109l10 -18q15 -22 37.5 -22t38.5 22l3.5 7t4.5 7q24 44 35 66q68 128 151 286q9 16 19 37q4 10 6 24q2 24 -21 38
q-21 12 -42 -3q-9 -6 -15 -15q-10 -16 -14 -25l-57 -106q-12 -23 -36.5 -69.5t-36.5 -69.5q-14 -26 -20 -31q-1 -1 -11 -6z" />
    <glyph glyph-name="Ygrave" unicode="&#x1ef2;" horiz-adv-x="815" 
d="M563 796q20 0 33 15.5t9 34.5q-1 12 -8 23q-25 36 -77 108q-5 7 -15 14q-26 19 -50 2q-30 -20 -17 -51q6 -16 15 -29q20 -29 60 -85q15 -18 19 -21q12 -11 31 -11zM705 421v216q0 25 -1 37q-2 14 -4 20q-4 13 -14.5 20.5t-22.5 7.5q-33 0 -40 -30q-3 -12 -3 -25
q-1 -16 -1 -49v-369q0 -28 -2 -41q-2 -22 -23 -26q-60 -7 -103 7q-55 18 -85 69q-17 28 4 53q3 4 10.5 12.5t10.5 12.5q42 53 50 122q2 21 -2 36q-6 19 -25 27t-35 -3q-9 -6 -15 -15q-3 -4 -7 -12.5t-7 -12.5q-2 -2 -4 -1q-5 3 -6 4q-4 16 -4 24q-2 50 -2 74v83q0 64 -62 65
q-50 0 -75 -1q-27 -2 -49 -7q-150 -39 -181 -184q-31 -146 89 -242q68 -54 164 -49q22 2 33 2q15 1 25 -12q4 -5 10 -15.5t10 -15.5q48 -71 126 -96q17 -5 53 -11q5 -1 16 -2.5t16 -2.5q8 -1 10.5 -9.5t-2.5 -13.5q-9 -10 -18 -17q-34 -22 -77 -27q-15 -1 -46 -1
q-9 -1 -27 -1h-27q-15 -2 -28 -6q-24 -10 -24 -36q0 -25 23 -36q11 -6 24 -6q83 -4 124 2q93 13 155 80t68 161q1 15 1 46v194zM289 485q0 -64 -1 -96q0 -19 -1 -29q-3 -23 -26 -28q-22 -4 -50 1q-56 12 -91 56.5t-32 102.5q2 57 41.5 99t96.5 47q6 1 33 1q25 -2 28 -26
q1 -10 1 -29q1 -33 1 -99z" />
    <glyph glyph-name="ygrave" unicode="&#x1ef3;" horiz-adv-x="522" 
d="M240 566q20 0 33 15.5t9 34.5q-1 12 -8 23q-25 36 -77 108q-5 7 -15 14q-26 19 -50 2q-30 -20 -17 -51q7 -16 15 -29q20 -29 60 -85q15 -18 19 -21q12 -11 31 -11zM38 492q-15 -1 -26 -11.5t-12 -25.5q0 -15 4 -24q3 -7 17 -38q12 -23 51.5 -99t60.5 -118q5 -11 17 -33
q12 -24 12 -52t2 -41q2 -18 7 -28q11 -24 37 -22q22 1 33 22q5 9 7 23q2 11 2 33q-3 38 20 75q8 13 22 39q10 17 116 202q15 27 16 29q6 14 7 23q5 29 -21 41q-23 11 -43 -4q-7 -5 -17 -18q-3 -5 -9 -15.5t-8 -13.5q-15 -25 -44.5 -77t-44.5 -77q-5 -10 -17 -28l-9 -9
q-3 -3 -9.5 -3t-9.5 4q-8 8 -10 12q-4 6 -22 40l-74 144q-14 24 -22 35q-12 15 -33 15z" />
    <glyph glyph-name="endash" unicode="&#x2013;" horiz-adv-x="667" 
d="M288 293h-177q-30 0 -45 -1q-20 -2 -33 -7q-33 -12 -33 -40q1 -27 37 -39q17 -6 56 -6h341q42 0 63 1q13 0 39 4q18 4 29.5 15.5t11.5 25.5t-11 25.5t-29 15.5t-27 5q-15 1 -46 1h-176z" />
    <glyph glyph-name="emdash" unicode="&#x2014;" horiz-adv-x="864" 
d="M386 293h-237q-40 0 -61 -1q-26 -2 -43 -7q-23 -6 -34.5 -16.5t-10.5 -23.5q1 -26 49 -39q24 -6 75 -6h458q57 0 84 1q19 0 53 4q24 4 39.5 15.5t15.5 25.5q1 13 -14 24.5t-39 16.5q-23 4 -37 5q-20 1 -61 1h-237z" />
    <glyph glyph-name="quoteleft" unicode="&#x2018;" horiz-adv-x="214" 
d="M0 708q3 -19 5 -25q8 -25 31.5 -36t48.5 -1q23 8 33.5 31.5t1.5 46.5q-4 11 -9 19q-13 19 -7 39q1 3 1 8q1 13 -8.5 22.5t-22.5 7.5q-17 -1 -30 -13q-41 -34 -44 -99z" />
    <glyph glyph-name="quoteright" unicode="&#x2019;" horiz-adv-x="213" 
d="M20 673q0 -1 -0.5 -4t-0.5 -5q-1 -18 12 -27.5t29 -2.5q14 6 24 15q44 41 39 104q0 4 -2 12q-7 27 -31 39.5t-50 2.5q-24 -9 -34.5 -33t-0.5 -48l9 -18q12 -18 6 -35z" />
    <glyph glyph-name="quotesinglbase" unicode="&#x201a;" horiz-adv-x="214" 
d="M20 -52q-1 -3 -1 -9q0 -18 13 -26.5t29 -1.5q13 5 21 13q44 38 42 100q-2 14 -8 27q-10 22 -31.5 31t-44.5 1t-34 -30.5t-3 -46.5l9 -19q12 -21 8 -39z" />
    <glyph glyph-name="quotedblleft" unicode="&#x201c;" horiz-adv-x="387" 
d="M0 708q3 -19 5 -25q8 -25 31.5 -36t48.5 -1q23 8 33.5 31.5t1.5 46.5q-4 11 -9 19q-13 19 -7 39q1 3 1 8q1 13 -8.5 22.5t-22.5 7.5q-17 -1 -30 -13q-41 -34 -44 -99zM277 779q0 2 0.5 6t0.5 6q1 13 -8.5 22t-23.5 7q-14 -1 -27 -11q-52 -43 -44 -114q0 -6 4 -16
q10 -23 33 -32.5t47 -0.5q23 9 33 32.5t1 46.5q-6 12 -10 18q-11 20 -6 36z" />
    <glyph glyph-name="quotedblright" unicode="&#x201d;" horiz-adv-x="386" 
d="M20 673q0 -1 -0.5 -4t-0.5 -5q-1 -18 12 -27.5t29 -2.5q14 6 24 15q44 41 39 104q0 4 -2 12q-7 27 -31 39.5t-50 2.5q-25 -9 -35 -33t0 -48l9 -18q12 -18 6 -35zM193 673q-1 -3 -1 -11q-1 -16 11.5 -25t27.5 -3q14 5 25 14q45 42 40 103q-1 13 -8 28q-11 21 -33.5 28.5
t-44.5 -1.5q-23 -10 -32.5 -33t-0.5 -46l9 -18q12 -19 7 -36z" />
    <glyph glyph-name="quotedblbase" unicode="&#x201e;" horiz-adv-x="214" 
d="M124 24q2 -62 -42 -100q-8 -8 -21 -13q-16 -7 -29 1.5t-13 26.5q0 6 1 9q4 18 -8 39l-9 19q-8 24 3 46.5t34 30.5t44.5 -1t31.5 -31q6 -13 8 -27z" />
    <glyph glyph-name="ellipsis" unicode="&#x2026;" horiz-adv-x="708" 
d="M557 -4q25 -1 42.5 16.5t18.5 43.5q0 26 -17.5 43.5t-42.5 18.5q-26 1 -45 -17.5t-18 -44.5q1 -25 18.5 -42.5t43.5 -17.5zM62 -6q25 -1 42.5 16.5t18.5 43.5q0 26 -17.5 43.5t-42.5 18.5q-26 1 -45 -17.5t-18 -44.5q1 -25 18.5 -42.5t43.5 -17.5zM309 -7
q25 -1 42.5 16.5t18.5 43.5q0 26 -17.5 43.5t-42.5 18.5q-26 1 -45 -17.5t-18 -44.5q1 -25 18.5 -42.5t43.5 -17.5z" />
    <glyph glyph-name="guilsinglleft" unicode="&#x2039;" horiz-adv-x="380" 
d="M247 10q16 0 31 13q12 13 12 31t-13 30l-171 163l171 163q13 13 13 30.5t-12 30.5t-30 13.5t-31 -11.5l-203 -194q-14 -14 -14 -32q0 -19 14 -31l203 -194q12 -12 30 -12z" />
    <glyph glyph-name="guilsinglright" unicode="&#x203a;" horiz-adv-x="380" 
d="M43 8q18 0 30 12l203 195q14 12 14 31t-14 31l-203 194q-13 13 -30.5 12.5t-30.5 -13.5q-12 -13 -11.5 -31t13.5 -30l170 -163l-170 -163q-13 -13 -13.5 -30.5t11.5 -30.5q14 -14 31 -14z" />
    <glyph glyph-name="fraction" unicode="&#x2044;" horiz-adv-x="584" 
d="M494 594q2 29 -19 42q-25 16 -47 -2q-13 -11 -19 -21q-4 -5 -21 -31l-363 -573q-2 -3 -8.5 -14.5t-9.5 -17.5q-5 -11 -7 -24q-1 -19 12.5 -32t32.5 -11q15 0 26 11q13 14 23 29q22 34 64 102l308 486q7 11 21 35q2 4 4 11.5t3 9.5z" />
    <glyph glyph-name="minus" unicode="&#x2212;" horiz-adv-x="510" 
d="M209 293h-128q-22 0 -33 -1q-15 -2 -24 -7q-24 -12 -24 -40q2 -27 27 -39q12 -6 40 -6h249q30 0 45 1q10 0 28 4q29 8 31 41q0 31 -29 41q-14 4 -20 5q-11 1 -34 1h-128z" />
    </font>
</defs>
</svg>
